<?xml version="1.0" encoding="utf-8"?>
<!-- Generator: Adobe Illustrator 16.0.0, SVG Export Plug-In . SVG Version: 6.00 Build 0)  -->
<!DOCTYPE svg PUBLIC "-//W3C//DTD SVG 1.1//EN" "http://www.w3.org/Graphics/SVG/1.1/DTD/svg11.dtd">
<svg version="1.1" id="Layer_1" xmlns="http://www.w3.org/2000/svg" xmlns:xlink="http://www.w3.org/1999/xlink" x="0px" y="0px"
	 width="510.236px" height="510.236px" viewBox="0 0 510.236 510.236" enable-background="new 0 0 510.236 510.236"
	 xml:space="preserve">
<g>
	<path fill="#FFFFFF" d="M225.087,338.396c-0.595-2.963-1.148-5.199-1.468-7.471c-0.354-2.529-0.562-5.081-0.714-7.63
		c-0.152-2.578-0.247-5.162-0.215-7.741c0.064-5.191,1.044-10.199,2.767-15.133c1.38-3.945,1.896-8.21,3.409-12.094
		c1.218-3.119,3.146-6.032,5.127-8.768c4.6-6.352,9.908-12.108,15.606-17.496c1.248-1.179,2.571-2.307,3.983-3.28
		c3.804-2.618,6.14-7.177,11.137-8.254c1.193-0.261,2.193-1.319,3.345-1.883c4.19-2.057,8.41-4.063,12.619-6.086
		c0.211-0.101,0.424-0.22,0.648-0.266c2.839-0.591,5.679-1.176,8.521-1.751c6.58-1.336,13.083-0.753,19.566,0.708
		c1.59,0.356,3.252,0.378,4.863,0.647c1.719,0.288,3.473,0.521,5.114,1.066c3.767,1.248,7.562,2.472,11.188,4.066
		c6.531,2.876,13.261,5.597,16.559,12.745c1.617,3.504,3.107,7.097,5.071,10.403c1.773,2.992,2.94,6.062,3.336,9.485
		c0.076,0.67,0.402,1.395,0.822,1.929c2.399,3.048,2.537,6.618,2.684,10.272c0.212,5.272,0.776,10.531,0.993,15.804
		c0.191,4.7,0.156,9.407,0.143,14.11c-0.01,3.279-0.471,6.588-0.16,9.824c0.376,3.924,1.348,7.787,2.07,11.674
		c0.487,2.615,0.465,5.259,1.346,7.877c1.398,4.168,2.167,8.344,5.323,11.94c2.612,2.979,5.829,5.405,8.04,8.737
		c0.386,0.581,1.205,1.016,1.319,1.613c0.705,3.691,3.541,6.004,5.603,8.791c0.903,1.224,1.304,2.393,1.255,3.869
		c-0.146,4.443-0.201,8.895-0.346,13.342c-0.018,0.534-0.342,1.068-0.57,1.584c-0.33,0.744-1.021,1.479-1.01,2.206
		c0.098,5.329-4.097,7.381-7.556,9.848c-5.319,3.79-11.723,5.18-17.717,7.467c-0.217,0.081-0.46,0.145-0.69,0.14
		c-8.621-0.168-17.488,0.704-24.689-5.646c-2.287-2.014-4.535-4.073-6.798-6.116c-0.349-0.313-0.639-0.729-1.038-0.952
		c-5.477-3.027-7.67-8.562-10.393-13.668c-2.577-4.824-5.012-9.728-7.663-14.9c-1.007,0.621-1.662,0.998-2.285,1.422
		c-0.179,0.124-0.218,0.472-0.399,0.566c-3.561,1.86-5.925,5.19-9.169,7.445c-2.896,2.016-5.89,3.706-9.255,4.913
		c-2.584,0.927-4.852,2.728-7.28,4.102c-2.843,1.605-5.555,3.491-8.89,4.036c-0.682,0.114-1.478,0.32-1.952,0.769
		c-2.499,2.364-5.793,2.079-8.786,2.793c-0.678,0.16-1.349,0.371-2.035,0.481c-2.184,0.352-4.364,0.756-6.563,0.97
		c-6.521,0.635-13.053,1.188-19.58,1.776c-0.585,0.053-1.185,0.255-1.749,0.178c-5.337-0.73-10.843,0.087-16.061-1.617
		c-3.106-1.013-6.185-2.16-9.175-3.478c-2.865-1.264-6.086-1.967-8.176-4.649c-0.243-0.312-0.834-0.372-1.279-0.502
		c-7.926-2.317-14.796-6.58-20.888-11.99c-2.773-2.467-5.008-5.598-7.236-8.611c-2.361-3.193-4.291-6.707-6.659-9.896
		c-2.36-3.181-5.021-6.136-7.57-9.171c-0.447-0.531-0.917-1.137-1.514-1.44c-2.888-1.468-4.171-4.377-5.834-6.803
		c-1.69-2.464-2.581-5.474-3.824-8.246c-0.386-0.856-0.578-1.913-1.204-2.528c-1.862-1.83-2.075-4.177-2.013-6.459
		c0.04-1.49-0.358-2.423-1.375-3.367c-0.842-0.783-1.688-1.66-2.226-2.658c-2.864-5.299-5.024-10.81-5.534-16.932
		c-0.319-3.853-1.313-7.645-1.814-11.486c-0.423-3.248-0.749-6.528-0.803-9.799c-0.109-6.756-0.313-13.533,0.111-20.266
		c0.288-4.523,1.665-8.97,2.415-13.473c0.635-3.802,1.29-7.622,1.527-11.458c0.215-3.439,0.741-6.701,1.979-9.946
		c0.99-2.588,1.343-5.416,2.057-8.118c1.159-4.396,1.851-8.911,4.024-13.03c1.792-3.392,3.146-7.014,4.752-10.504
		c2.296-4.988,4.588-9.979,6.997-14.909c1.482-3.032,3.175-5.96,4.788-8.926c2.587-4.759,6.027-8.821,10.008-12.478
		c1.008-0.926,1.545-2.343,2.468-3.388c3.09-3.508,6.204-6.999,9.421-10.395c1.118-1.183,2.67-1.956,3.815-3.12
		c2.28-2.317,4.546-4.672,6.578-7.207c2.458-3.069,5.524-5.258,8.846-7.258c2.283-1.375,4.218-3.332,6.496-4.713
		c4.754-2.884,9.186-6.382,14.647-7.997c0.738-0.217,1.323-0.917,2.043-1.256c1.34-0.631,2.72-1.18,4.1-1.724
		c0.76-0.3,1.628-0.387,2.317-0.791c6.529-3.832,13.53-6.187,21.06-7.063c1.969-0.23,3.865-1.023,5.833-1.308
		c6.61-0.96,13.2-0.968,19.742,0.681c3.283,0.829,6.646,1.359,9.908,2.256c3.036,0.834,6.077,1.779,8.951,3.046
		c2.681,1.18,5.395,1.98,8.207,2.765c3.738,1.046,7.288,3.138,10.596,5.278c6.317,4.092,10.565,10.221,14.852,16.237
		c0.862,1.21,1.301,2.743,1.825,4.168c0.81,2.198,1.419,4.472,2.302,6.637c0.959,2.342,1.387,4.5,0.597,7.12
		c-0.722,2.392-0.534,5.081-0.596,7.644c-0.192,8.148-3.812,15.041-7.893,21.764c-0.407,0.673-1.068,1.414-1.771,1.65
		c-3.859,1.286-7.151,3.459-10.143,6.14c-2.578,2.312-5.896,3.227-8.845,4.838c-4.729,2.587-9.651,2.89-14.892,2.591
		c-5.613-0.32-11.266,0.024-16.899,0.052c-1.381,0.007-2.764-0.144-4.146-0.13c-8.469,0.073-16.709,1.872-24.975,3.43
		c-1.127,0.212-2.161,0.885-3.262,1.275c-2.42,0.868-4.951,1.492-7.265,2.586c-2.729,1.292-5.383,2.816-7.878,4.519
		c-4.52,3.089-8.906,6.294-12.79,10.281c-3.294,3.382-5.563,7.276-8.171,11.076c-2.898,4.226-4.771,8.799-6.802,13.375
		c-0.281,0.635-0.607,1.292-0.697,1.967c-1.01,7.616-2.559,15.118-2.999,22.873c-0.548,9.67,1.61,18.528,4.842,27.36
		c0.278,0.761,0.592,1.536,0.688,2.33c0.224,1.793,0.494,3.465,2.285,4.507c0.532,0.311,0.899,1.088,1.114,1.727
		c1.362,4.061,3.91,7.436,6.279,10.898c1.899,2.777,3.908,5.465,6.062,8.079C213.851,333.706,219.531,335.185,225.087,338.396z
		 M135.004,292.716c0.168,2.612,0.332,5.878,0.605,9.137c0.232,2.797,0.494,5.599,0.926,8.369c0.379,2.43,0.956,4.838,1.555,7.229
		c0.419,1.671,1.108,3.277,1.523,4.949c0.346,1.392,0.506,2.92,2.059,3.445c1.824,0.621,2.417,2.064,2.998,3.645
		c0.907,2.461,1.812,4.93,2.855,7.337c0.55,1.264,1.322,2.453,2.121,3.584c2.225,3.153,4.467,6.292,6.794,9.366
		c1.687,2.228,3.54,4.328,5.276,6.518c0.805,1.014,1.467,2.133,2.27,3.143c2.251,2.824,4.765,5.465,6.761,8.457
		c2.606,3.91,5.243,7.774,8.399,11.254c1.014,1.117,2.147,2.261,3.459,2.947c4.233,2.217,7.915,5.264,12.545,6.986
		c5.421,2.021,10.308,5.443,15.55,7.999c2.38,1.158,5.019,2.171,7.618,2.412c4.877,0.456,9.815,0.441,14.725,0.354
		c3.396-0.06,6.777-0.702,10.179-0.85c7.211-0.314,14.227-1.682,21.069-3.85c2.544-0.808,4.947-2.125,7.321-3.385
		c2.674-1.418,5.078-3.558,7.895-4.455c5.565-1.779,9.845-5.3,14.092-8.992c2.463-2.139,4.679-4.676,7.417-6.371
		c7.084-4.377,13.584-9.139,16.643-17.355c1.958-5.261,4.346-10.369,6.124-15.688c3.275-9.782,2.674-19.528-0.844-29.195
		c-1.257-3.456-3.689-5.946-6.827-7.023c-4.204-1.44-8.762-1.221-13.19-0.387c-1.946,0.368-3.303,1.508-4.58,3.027
		c-2.526,3.009-4.686,6.156-5.536,10.06c-4.822,5.349-7.301,12.468-13.041,17.146c-1.799,1.465-3.175,3.445-4.961,4.925
		c-2.155,1.776-4.391,3.584-6.873,4.8c-2.49,1.221-4.115,3.471-6.798,4.561c-2.51,1.023-4.958,2.438-7.612,2.453
		c-3.162,0.02-6.254,0.436-9.371,0.613c-4.979,0.293-10.041,0.404-14.985-0.833c-3.274-0.821-6.655-1.297-9.845-2.36
		c-3.724-1.242-7.354-2.83-10.313-5.592c-0.592-0.555-1.355-0.926-2.04-1.382c-3.203-2.136-6.354-4.327-8.458-7.676
		c-0.614-0.985-1.05-2.146-1.85-2.94c-4.513-4.486-7.18-10.103-9.866-15.717c-0.302-0.629-0.596-1.264-0.862-1.906
		c-1.883-4.537-4.204-8.947-5.532-13.64c-2.339-8.261-3.351-16.78-3.129-25.396c0.047-1.736,0.414-3.463,0.526-5.199
		c0.396-6.062,0.992-12.065,3.825-17.602c0.421-0.822,0.585-1.784,0.822-2.693c1.854-7.07,4.936-13.572,8.926-19.689
		c3.479-5.329,7.375-10.196,12.826-13.676c3.163-2.021,6.009-4.626,9.335-6.287c8.817-4.398,17.914-8.18,27.617-10.219
		c2.16-0.455,4.392-0.567,6.594-0.822c2.771-0.316,5.521-1.085,8.349-0.336c0.381,0.098,0.87-0.305,1.324-0.391
		c1.016-0.188,2.038-0.44,3.062-0.455c5.278-0.069,10.561-0.126,15.839-0.075c2.452,0.023,4.907,0.497,7.348,0.411
		c3.145-0.114,6.604,0.156,9.348-1.051c6.204-2.734,12.037-6.348,17.113-10.909c1.468-1.317,2.479-3.422,3.081-5.359
		c1.003-3.226,1.464-6.616,2.229-9.921c1.053-4.553,0.714-9.128-0.368-13.542c-1.013-4.135-2.818-7.948-5.172-11.684
		c-3.746-5.952-8.42-10.558-14.462-13.944c-1.221-0.683-2.37-1.53-3.652-2.057c-3.317-1.359-6.748-2.448-10.026-3.891
		c-5.093-2.241-10.374-3.704-15.897-4.18c-4.913-0.422-9.799-0.288-14.756,0.11c-7.636,0.611-14.476,3.59-21.564,5.867
		c-1.628,0.521-3.04,1.681-4.614,2.412c-2.536,1.178-5.272,1.989-7.653,3.411c-3.91,2.336-7.682,4.927-11.372,7.603
		c-6.277,4.545-12.578,9.071-17.979,14.704c-2.749,2.868-5.729,5.517-8.427,8.432c-3.261,3.526-6.002,7.604-9.574,10.754
		c-4.252,3.75-6.736,8.683-9.838,13.146c-2.756,3.967-4.336,8.762-6.348,13.232c-0.564,1.255-0.465,2.935-1.273,3.932
		c-2.523,3.112-1.584,7.618-4.457,10.524c-0.107,0.113,0.062,0.46,0.021,0.684c-0.195,1.132-0.331,2.279-0.644,3.378
		c-1.347,4.729-3.052,9.377-4.052,14.176c-1.361,6.538-2.203,13.186-3.268,19.787c-0.843,5.21-1.799,10.406-2.48,15.637
		c-0.438,3.358-0.373,6.78-0.712,10.159C136.352,281.892,135.685,286.955,135.004,292.716z M352.968,411.698c0-0.09,0-0.186,0-0.274
		c1.88,0,3.763,0.063,5.643-0.014c4.262-0.176,7.721-2.447,11.207-4.539c1.167-0.7,2.666-1.68,2.979-2.814
		c1.218-4.42,1.998-8.976,0.719-13.542c-1.737-6.207-5.548-11.348-8.936-16.69c-0.41-0.648-1.173-1.187-1.892-1.511
		c-1.954-0.883-3.101-2.496-4.084-4.248c-1.465-2.606-3.006-5.192-4.196-7.928c-1.164-2.676-2.294-5.459-2.791-8.312
		c-1.02-5.869-1.702-11.8-2.334-17.729c-0.321-3.012-0.318-6.066-0.306-9.103c0.013-2.343,0.462-4.692,0.376-7.025
		c-0.226-6.192-0.455-12.393-1.028-18.557c-0.433-4.647-1.029-9.345-2.23-13.84c-1.229-4.599-2.909-9.124-5.367-13.302
		c-0.756-1.285-0.668-3.168-1.595-4.229c-3.292-3.771-5.792-8.363-10.38-10.859c-2.05-1.115-4.3-1.857-6.391-2.906
		c-3.345-1.68-7.077-2.13-10.568-3.395c-3.785-1.367-8.025-1.499-12.081-2.086c-3.204-0.464-6.456-1.408-9.522,0.658
		c-0.437,0.292-1.144,0.208-1.729,0.248c-1.884,0.127-3.658,0.417-5.354,1.467c-1.258,0.78-2.869,0.97-4.29,1.511
		c-1.743,0.665-3.816,1.037-5.088,2.234c-1.727,1.625-3.705,2.342-5.778,3.097c-0.52,0.189-1.258,0.346-1.468,0.74
		c-1.393,2.621-4.104,3.951-6.311,5.277c-6.553,3.945-12.094,8.861-16.627,14.896c-3.159,4.208-6.096,8.529-7.529,13.832
		c-1.557,5.755-2.719,11.581-4.099,17.363c-1.481,6.216-0.742,12.382,0.453,18.534c0.313,1.599,4.995,8.988,6.288,9.863
		c0.466,0.312,1.051,0.469,1.6,0.635c2.449,0.736,5.054,0.761,7.477,1.268c2.616,0.545,4.697,0.061,7.11-0.499
		c3.578-0.83,6.422-2.772,9.295-4.797c3.803-2.679,7.682-5.296,10.6-8.979c2.317-2.926,4.293-6.121,6.621-9.037
		c2.201-2.758,4.396-5.465,5.653-8.83c0.568-1.525,1.204-3.149,2.251-4.344c3.452-3.951,6.684-8.401,12.053-9.839
		c3.458-0.927,7.128-1.284,10.723-1.423c2.4-0.091,4.843,0.611,7.25,1.043c1.129,0.202,2.376,0.369,3.302,0.967
		c4.969,3.205,8.989,7.178,10.028,13.366c0.137,0.806,0.487,1.574,0.645,2.377c0.64,3.306,1.657,6.603,1.761,9.927
		c0.146,4.68-0.331,9.388-0.688,14.07c-0.113,1.498-0.578,3.001-1.092,4.426c-1.807,5.033-3.771,10.012-5.554,15.055
		c-1.727,4.887-3.779,9.557-7.454,13.35c-0.464,0.48-0.909,1.158-0.996,1.796c-0.678,4.938-0.339,9.832,1.333,14.531
		c0.938,2.638,1.845,5.457,3.504,7.625c3.271,4.269,6.999,8.191,10.664,12.14c1.33,1.438,3.224,2.366,4.505,3.834
		c3.124,3.573,6.897,5.137,11.602,4.534C351.542,411.625,352.26,411.698,352.968,411.698z"/>
	<path fill="#FFFFFF" d="M285.791,184.211c-0.814-0.079-1.65-0.069-2.441-0.253c-2.944-0.685-3.157-1.163-3.507-4.297
		c-0.266-2.401-0.437-4.577,1.663-6.371c0.524-0.445,0.532-1.511,0.741-2.302c0.771-2.921,2.753-3.895,6.257-3.064
		c2.822,0.668,4.054,2.561,3.624,5.318c-0.153,0.988-0.149,2.076,0.104,3.032C293.448,180.872,290.64,184.364,285.791,184.211z"/>
	<path fill="#FFFFFF" d="M272.395,171.407c-0.365,2.635-0.637,5.167-1.088,7.668c-0.331,1.837-4,3.604-6.438,3.238
		c-2.471-0.37-3.746-1.776-3.823-4.188c-0.118-3.716,1.606-6.769,3.636-9.644c0.429-0.607,1.57-0.835,2.429-0.974
		c0.652-0.105,1.367,0.231,2.062,0.326C272.281,168.261,272.473,168.474,272.395,171.407z"/>
	<path fill="#FFFFFF" d="M270.243,314.62c-0.049,1.958,0.429,3.945-1.646,5.381c-2.101,1.452-7.339,1.717-9.354,0.193
		c-1.759-1.326-2.575-3.211-1.931-5.26c0.692-2.205,1.735-4.34,2.894-6.351c1.21-2.099,3.338-2.903,5.659-2.567
		c2.405,0.353,3.439,2.297,3.942,4.431C270.125,311.798,270.11,313.228,270.243,314.62z"/>
	<path fill="#FFFFFF" d="M243.979,311.396c3.252,2.92,3.457,6.93,3.623,10.898c0.03,0.711-0.493,1.586-1.014,2.153
		c-1.597,1.743-7.56,2.27-9.28,0.733c-0.552-0.49-0.698-1.613-0.727-2.459c-0.028-0.904,0.435-1.818,0.45-2.734
		C237.14,314.085,238.136,312.808,243.979,311.396z"/>
</g>
</svg>
