<?xml version="1.0" encoding="utf-8"?>
<!-- Generator: Adobe Illustrator 16.0.0, SVG Export Plug-In . SVG Version: 6.00 Build 0)  -->
<!DOCTYPE svg PUBLIC "-//W3C//DTD SVG 1.1//EN" "http://www.w3.org/Graphics/SVG/1.1/DTD/svg11.dtd">
<svg version="1.1" id="Layer_1" xmlns="http://www.w3.org/2000/svg" xmlns:xlink="http://www.w3.org/1999/xlink" x="0px" y="0px"
	 width="636.215px" height="841.891px" viewBox="0 0 636.215 841.891" enable-background="new 0 0 636.215 841.891"
	 xml:space="preserve">
<g>
	<g>
		<path fill="#FFFFFF" d="M336.012,258.782c0.5,0.111,1.035,0.111,1.557,0.16c3.072,0.101,4.852-2.115,4.08-5.037
			c-0.162-0.604-0.162-1.293-0.066-1.918c0.271-1.746-0.51-2.953-2.293-3.377c-2.221-0.526-3.486,0.092-3.971,1.941
			c-0.137,0.508-0.137,1.18-0.479,1.463c-1.322,1.135-1.221,2.518-1.051,4.043C334.01,258.041,334.149,258.35,336.012,258.782z"/>
		<path fill="#FFFFFF" d="M324.293,257.741c1.545,0.229,3.871-0.891,4.082-2.059c0.289-1.582,0.457-3.193,0.695-4.861
			c0.043-1.862-0.076-1.998-2.047-2.268c-0.439-0.062-0.898-0.271-1.307-0.211c-0.551,0.092-1.271,0.235-1.545,0.621
			c-1.289,1.823-2.385,3.762-2.309,6.112C321.916,256.614,322.731,257.506,324.293,257.741z"/>
		<path fill="#FFFFFF" d="M399.682,384.536c-1.309-1.766-3.104-3.229-3.557-5.573c-0.066-0.381-0.586-0.656-0.832-1.023
			c-1.396-2.113-3.443-3.654-5.1-5.539c-2.002-2.276-2.486-4.93-3.379-7.576c-0.562-1.66-0.545-3.334-0.857-4.994
			c-0.455-2.469-1.068-4.918-1.309-7.405c-0.201-2.054,0.096-4.146,0.105-6.229c0.008-2.981,0.033-5.967-0.096-8.949
			c-0.135-3.346-0.49-6.68-0.627-10.022c-0.094-2.314-0.18-4.578-1.707-6.514c-0.264-0.339-0.465-0.798-0.518-1.222
			c-0.254-2.172-0.992-4.123-2.111-6.016c-1.248-2.098-2.189-4.383-3.229-6.603c-2.086-4.536-6.355-6.262-10.498-8.084
			c-2.301-1.012-4.703-1.784-7.096-2.58c-1.043-0.348-2.154-0.495-3.24-0.676c-1.027-0.174-2.08-0.186-3.08-0.414
			c-4.119-0.922-8.244-1.297-12.418-0.444c-1.799,0.362-3.598,0.733-5.406,1.11c-0.137,0.029-0.271,0.104-0.406,0.168
			c-2.674,1.279-5.35,2.558-8.004,3.863c-0.73,0.354-1.367,1.023-2.121,1.189c-3.166,0.684-4.65,3.577-7.064,5.231
			c-0.897,0.621-1.739,1.332-2.527,2.084c-3.615,3.418-6.984,7.066-9.896,11.099c-1.256,1.731-2.479,3.579-3.251,5.561
			c-0.968,2.459-1.288,5.166-2.163,7.672c-1.095,3.127-1.715,6.307-1.758,9.596c-0.017,1.64,0.043,3.279,0.137,4.91
			c0.104,1.619,0.229,3.232,0.457,4.836c0.195,1.443,0.552,2.861,0.927,4.746c-3.522-2.043-7.13-2.979-9.623-6.016
			c-1.369-1.658-2.642-3.365-3.848-5.123c-1.502-2.197-3.123-4.342-3.987-6.916c-0.137-0.402-0.364-0.898-0.704-1.096
			c-1.14-0.662-1.309-1.718-1.451-2.854c-0.062-0.506-0.256-0.998-0.435-1.479c-2.054-5.605-3.42-11.224-3.071-17.355
			c0.279-4.92,1.267-9.678,1.899-14.508c0.062-0.424,0.265-0.844,0.441-1.248c1.291-2.904,2.479-5.803,4.312-8.48
			c1.656-2.407,3.099-4.881,5.186-7.022c2.464-2.529,5.245-4.563,8.112-6.521c1.581-1.082,3.271-2.047,5.001-2.864
			c1.471-0.695,3.072-1.091,4.602-1.638c0.703-0.254,1.355-0.684,2.068-0.812c5.246-0.99,10.475-2.127,15.85-2.181
			c0.873-0.006,1.748,0.091,2.621,0.087c3.582-0.017,7.16-0.236,10.719-0.033c3.326,0.186,6.451,0,9.445-1.642
			c1.867-1.022,3.979-1.604,5.607-3.071c1.902-1.699,3.99-3.078,6.438-3.894c0.439-0.149,0.863-0.621,1.119-1.053
			c2.588-4.262,4.889-8.635,5.008-13.805c0.043-1.623-0.076-3.324,0.381-4.845c0.502-1.664,0.229-3.028-0.381-4.514
			c-0.562-1.379-0.951-2.818-1.459-4.211c-0.332-0.906-0.613-1.877-1.154-2.646c-2.717-3.812-5.416-7.698-9.422-10.295
			c-2.098-1.358-4.346-2.688-6.723-3.35c-1.781-0.494-3.504-1.008-5.201-1.756c-1.824-0.805-3.752-1.396-5.68-1.93
			c-2.07-0.572-4.199-0.902-6.287-1.433c-4.15-1.047-8.326-1.041-12.521-0.43c-1.249,0.178-2.454,0.682-3.7,0.83
			c-4.777,0.551-9.217,2.045-13.357,4.477c-0.434,0.26-0.984,0.31-1.47,0.502c-0.873,0.342-1.748,0.689-2.599,1.099
			c-0.456,0.213-0.83,0.651-1.299,0.791c-3.462,1.026-6.271,3.245-9.293,5.075c-1.442,0.871-2.664,2.111-4.114,2.984
			c-2.104,1.27-4.05,2.658-5.61,4.604c-1.289,1.61-2.725,3.102-4.176,4.571c-0.722,0.734-1.707,1.23-2.418,1.978
			c-2.036,2.155-4.015,4.371-5.977,6.594c-0.586,0.662-0.925,1.566-1.563,2.15c-2.526,2.315-4.71,4.896-6.349,7.916
			c-1.027,1.881-2.097,3.735-3.039,5.661c-1.526,3.125-2.979,6.289-4.438,9.453c-1.021,2.22-1.875,4.506-3.016,6.662
			c-1.375,2.611-1.814,5.476-2.555,8.269c-0.449,1.711-0.669,3.506-1.308,5.145c-0.779,2.062-1.11,4.129-1.247,6.313
			c-0.152,2.432-0.568,4.856-0.969,7.266c-0.482,2.854-1.35,5.68-1.534,8.549c-0.272,4.271-0.138,8.564-0.075,12.851
			c0.041,2.073,0.243,4.157,0.509,6.217c0.321,2.436,0.95,4.842,1.152,7.285c0.321,3.881,1.698,7.377,3.515,10.735
			c0.34,0.638,0.875,1.188,1.41,1.688c0.645,0.598,0.896,1.188,0.873,2.133c-0.043,1.451,0.094,2.936,1.271,4.098
			c0.398,0.388,0.519,1.058,0.767,1.603c0.787,1.766,1.354,3.67,2.425,5.231c1.055,1.543,1.868,3.388,3.701,4.318
			c0.383,0.186,0.68,0.57,0.961,0.912c1.619,1.924,3.308,3.795,4.803,5.813c1.502,2.023,2.727,4.248,4.229,6.277
			c1.407,1.91,2.823,3.893,4.583,5.461c3.87,3.435,8.224,6.131,13.249,7.607c0.289,0.08,0.66,0.119,0.812,0.315
			c1.325,1.697,3.371,2.14,5.188,2.945c1.892,0.834,3.845,1.563,5.812,2.205c3.32,1.084,6.808,0.563,10.194,1.022
			c0.354,0.048,0.739-0.077,1.103-0.11c4.145-0.373,8.283-0.724,12.427-1.123c1.392-0.137,2.773-0.398,4.157-0.615
			c0.436-0.07,0.867-0.203,1.289-0.309c1.902-0.447,3.99-0.271,5.578-1.773c0.297-0.279,0.805-0.404,1.238-0.484
			c2.113-0.35,3.836-1.541,5.635-2.561c1.545-0.873,2.98-2.016,4.617-2.6c2.141-0.771,4.031-1.839,5.873-3.119
			c2.055-1.433,3.557-3.545,5.812-4.72c0.121-0.065,0.139-0.282,0.256-0.36c0.393-0.271,0.809-0.506,1.451-0.898
			c1.684,3.281,3.229,6.396,4.855,9.445c1.73,3.242,3.123,6.748,6.596,8.672c0.254,0.146,0.439,0.4,0.652,0.605
			c1.441,1.299,2.869,2.6,4.318,3.879c4.566,4.03,10.186,3.473,15.658,3.584c0.146,0,0.297-0.039,0.436-0.093
			c3.803-1.45,7.863-2.329,11.234-4.737c2.197-1.558,4.855-2.855,4.795-6.244c-0.01-0.459,0.434-0.926,0.639-1.398
			c0.145-0.328,0.355-0.668,0.363-1.004c0.094-2.815,0.127-5.645,0.221-8.461C400.514,386.053,400.26,385.311,399.682,384.536z
			 M319.498,341.854c0.441-1.396,1.102-2.754,1.84-4.027c0.766-1.33,2.115-1.842,3.592-1.629c1.52,0.224,2.184,1.461,2.496,2.812
			c0.201,0.854,0.193,1.766,0.279,2.646c-0.035,1.246,0.27,2.506-1.045,3.412c-1.332,0.92-4.658,1.09-5.934,0.129
			C319.61,344.35,319.09,343.157,319.498,341.854z M306.638,345.059c0.067-3.74,0.696-4.557,4.405-5.447
			c2.063,1.849,2.188,4.396,2.299,6.908c0.02,0.457-0.312,1.008-0.645,1.369c-1.012,1.106-4.795,1.438-5.891,0.459
			c-0.348-0.31-0.439-1.016-0.46-1.557C306.334,346.221,306.631,345.637,306.638,345.059z M361.66,357.059
			c-1.127,3.367-2.646,6.609-3.885,9.945c-1.938,5.211-6.062,8.229-10.561,11.008c-1.73,1.076-3.141,2.686-4.703,4.037
			c-2.688,2.344-5.404,4.576-8.938,5.705c-1.789,0.569-3.311,1.93-5.006,2.828c-1.502,0.795-3.031,1.635-4.645,2.146
			c-4.346,1.373-8.793,2.236-13.365,2.441c-2.156,0.094-4.297,0.498-6.45,0.536c-3.115,0.054-6.248,0.066-9.347-0.223
			c-1.646-0.149-3.317-0.801-4.83-1.529c-3.325-1.62-6.422-3.795-9.86-5.073c-2.937-1.091-5.271-3.025-7.952-4.438
			c-0.841-0.434-1.552-1.156-2.197-1.871c-2.004-2.205-3.677-4.653-5.331-7.135c-1.265-1.896-2.857-3.57-4.285-5.363
			c-0.51-0.637-0.926-1.352-1.436-1.987c-1.104-1.394-2.282-2.726-3.351-4.138c-1.479-1.949-2.896-3.938-4.313-5.938
			c-0.5-0.717-0.99-1.472-1.34-2.271c-0.662-1.528-1.24-3.092-1.808-4.66c-0.375-0.998-0.748-1.909-1.909-2.305
			c-0.978-0.328-1.079-1.299-1.3-2.184c-0.264-1.062-0.703-2.08-0.97-3.146c-0.382-1.512-0.745-3.041-0.98-4.584
			c-0.281-1.756-0.441-3.533-0.595-5.305c-0.173-2.064-0.272-4.144-0.384-5.797c0.434-3.656,0.856-6.865,1.182-10.084
			c0.212-2.146,0.178-4.314,0.447-6.445c0.434-3.318,1.046-6.617,1.578-9.918c0.671-4.184,1.205-8.402,2.072-12.553
			c0.635-3.037,1.713-5.992,2.572-8.988c0.191-0.695,0.276-1.424,0.405-2.145c0.024-0.14-0.084-0.357-0.019-0.431
			c1.824-1.848,1.23-4.703,2.828-6.676c0.516-0.635,0.447-1.697,0.813-2.496c1.272-2.836,2.274-5.871,4.022-8.393
			c1.961-2.826,3.539-5.961,6.237-8.334c2.267-2.006,4.007-4.593,6.077-6.822c1.707-1.853,3.6-3.531,5.338-5.353
			c3.431-3.569,7.418-6.438,11.398-9.327c2.352-1.695,4.736-3.339,7.214-4.816c1.512-0.9,3.25-1.418,4.854-2.164
			c1.003-0.465,1.902-1.197,2.928-1.529c4.5-1.442,8.836-3.334,13.684-3.723c3.141-0.252,6.249-0.334,9.362-0.072
			c3.506,0.31,6.85,1.232,10.082,2.652c2.078,0.916,4.252,1.611,6.355,2.465c0.814,0.336,1.545,0.877,2.316,1.307
			c3.838,2.15,6.799,5.068,9.178,8.849c1.488,2.371,2.631,4.783,3.273,7.406c0.688,2.801,0.898,5.705,0.236,8.59
			c-0.492,2.098-0.781,4.254-1.416,6.299c-0.383,1.229-1.021,2.562-1.951,3.395c-3.217,2.896-6.928,5.188-10.855,6.923
			c-1.738,0.77-3.938,0.594-5.934,0.666c-1.545,0.057-3.105-0.246-4.66-0.263c-3.344-0.028-6.695,0.006-10.039,0.049
			c-0.652,0.011-1.301,0.17-1.943,0.289c-0.289,0.054-0.604,0.31-0.838,0.246c-1.803-0.477-3.541,0.015-5.3,0.213
			c-1.397,0.162-2.808,0.24-4.183,0.525c-6.151,1.291-11.925,3.686-17.52,6.477c-2.104,1.058-3.91,2.707-5.914,3.99
			c-3.463,2.203-5.936,5.295-8.141,8.672c-2.528,3.879-4.48,8.006-5.661,12.488c-0.151,0.578-0.255,1.188-0.519,1.711
			c-1.799,3.512-2.182,7.314-2.426,11.162c-0.078,1.104-0.308,2.195-0.342,3.299c-0.137,5.469,0.51,10.865,1.985,16.105
			c0.851,2.975,2.315,5.774,3.516,8.649c0.171,0.408,0.354,0.806,0.542,1.213c1.707,3.558,3.395,7.121,6.256,9.965
			c0.51,0.505,0.789,1.24,1.18,1.863c1.332,2.127,3.326,3.521,5.363,4.865c0.434,0.287,0.918,0.523,1.291,0.879
			c1.876,1.752,4.184,2.758,6.543,3.551c2.02,0.67,4.168,0.974,6.246,1.498c3.133,0.781,6.35,0.709,9.506,0.523
			c1.979-0.111,3.938-0.373,5.94-0.396c1.681-0.006,3.234-0.897,4.828-1.549c1.699-0.695,2.734-2.119,4.314-2.895
			c1.568-0.775,2.988-1.916,4.354-3.047c1.141-0.933,2.014-2.191,3.148-3.125c3.641-2.962,5.211-7.478,8.275-10.869
			c0.533-2.478,1.908-4.474,3.506-6.386c0.812-0.959,1.672-1.684,2.91-1.918c2.811-0.522,5.693-0.666,8.367,0.246
			c1.984,0.685,3.529,2.267,4.326,4.457C363.36,344.663,363.735,350.85,361.66,357.059z"/>
	</g>
	<g>
		<g>
			<g>
				<path fill="#FFFFFF" d="M350.477,509.183c-2.576,2.898-4.703,5.561-7.115,7.938c-2.896,2.849-6.084,5.206-10.248,6.192
					c-2.059,0.486-3.947,0.778-5.941,0.296c-2.52-0.598-5.02-1.3-7.525-1.96c0.016-0.274,0.033-0.545,0.053-0.812
					c0.754-0.182,1.604-0.677,2.244-0.486c7.83,2.363,13.156-2.35,18.328-6.768c2.717-2.313,4.564-5.655,6.736-8.448
					c-4.943-6.089-11.818-9.259-20.51-3.979c-0.396-2.294,0.732-3.998,1.709-5.583c3.736-6.092,6.469-12.63,8.863-19.326
					c0.248-0.695,0.412-1.424,0.666-2.294c-2.904-1.126-5.82-0.837-8.662-1.139c-2.74-0.292-5.832,0.683-8.59-2.051
					c0.984-0.185,1.527-0.387,2.059-0.368c4.793,0.243,9.586,0.502,14.377,0.801c1.742,0.108,2.834-0.584,3.553-2.202
					c2.166-4.86,4.545-9.633,6.578-14.547c0.766-1.845,1.68-3.046,3.676-3.292c2.188-0.271,4.123,0.397,5.402,2.117
					c1.334,1.779,0.332,3.649-0.504,5.343c-1.898,3.86-3.883,7.685-5.809,11.527c-0.217,0.434-0.279,0.938-0.465,1.604
					c3.787,0.431,7.41,0.841,10.949,1.24c0.979-1.03,1.795-2.611,2.82-2.77c1.314-0.204,2.926,0.527,4.197,1.248
					c2.385,1.332,2.838,3.082,1.717,5.799c-3.676,8.885-7.473,17.714-13.322,25.473c-0.371,0.486-0.617,1.067-0.984,1.721
					c0.596,0.886,1.094,1.771,1.734,2.534c3.746,4.431,5.289,9.719,6.049,15.327c0.178,1.316,0.365,2.796-1.127,3.229
					c-0.898,0.263-2.146-0.184-3.09-0.634c-3.018-1.435-4.23-4.112-4.686-7.273C353.199,514.787,352.762,511.925,350.477,509.183z
					 M359.996,475.471c-3.393-0.474-6.256-0.775-9.086-1.287c-2.211-0.395-3.619,0.299-4.588,2.337
					c-2.814,5.898-5.715,11.757-8.559,17.593c3.98,1.949,7.898,3.866,11.959,5.853C353.969,492.391,356.828,484.295,359.996,475.471
					z"/>
				<path fill="#FFFFFF" d="M395.524,496.167c2.986,0.338,5.523,0.488,8.004,0.944c2.719,0.489,4.68-0.601,6.4-2.484
					c1.021-1.13,1.955-2.366,3.104-3.339c1.381-1.165,2.871-1.023,3.566,0.353c1.562,3.104,2.953,6.295,4.486,9.61
					c-1.801,1.458-3.988,1.139-6.053,0.834c-5.387-0.795-10.75-1.771-16.127-2.652c-1.225-0.2-2.471-0.286-4.094-0.469
					c-1.295,5.862-2.57,11.639-3.84,17.429c-0.977,4.454-1.895,8.918-2.926,13.362c-0.672,2.911-2.998,3.748-5.459,2.116
					c-4.52-2.996-9.068-5.96-13.592-8.968c-0.27-0.184-0.389-0.601-0.576-0.908c2.654-1.953,6.248-2.12,13.896-0.578
					c2.156-7.346,2.953-14.966,4.297-22.692c-3.311-1.32-6.598-1.034-9.822-1.208c-2.4-0.128-4.814-0.233-7.18-0.617
					c-1.238-0.204-2.377-0.991-3.441-2.019c6.846-0.771,13.547,0.167,20.816,0.357c0.234-2.094,0.805-4.19,0.629-6.22
					c-0.283-3.229-0.756-6.518-1.738-9.594c-0.607-1.9-0.309-2.57,1.262-3.591c5.098-3.315,10.133-6.745,15.027-10.346
					c1.756-1.284,3.803-2.586,4.457-5.495c-4.822-0.217-9.441-0.442-14.062-0.633c-2.408-0.099-4.826-0.017-7.225-0.21
					c-1.705-0.141-3.535-0.292-5.061-2.642c2.025,0.021,3.566,0.049,5.107,0.049c7.461,0.007,14.926,0.017,22.389-0.021
					c2.088-0.017,4.004,0.296,5.703,1.657c2.377,1.889,2.764,2.866,1.926,5.912c-0.334,1.221-0.635,2.479-1.188,3.607
					c-1.416,2.882-3.271,3.709-6.492,3.229c-0.957-0.141-1.996-0.213-2.926,0.01c-2.254,0.535-10.229,5.032-12.264,6.766
					C396.549,483.142,396.285,489.388,395.524,496.167z"/>
			</g>
			<g>
				<path fill="#FFFFFF" d="M443.399,560.284c3.48-0.439,6.43-0.813,9.859-1.25c-0.6-8.071,0.186-15.788-0.695-24.108
					c-4.65,0.831-8.678,1.543-13.014,2.317c-0.656,4.222-1,8.362-2.014,12.335c-0.977,3.822-1.859,8.084-4.191,11.048
					c-3.262,4.136-7.428,7.887-13.379,8.188c-1.74,0.089-3.467,0.424-5.324,0.66c-0.465-2.028,0.482-3.197,2.113-3.801
					c7.045-2.612,9.689-8.675,11.189-15.146c2.752-11.835,2.082-23.838,0.551-35.802c-0.061-0.476-0.137-0.962-0.299-1.405
					c-0.58-1.575-2.246-3.42-0.203-4.674c1.738-1.069,3.752-2.152,6.215-1.221c1.541,0.584,3.408,0.562,5.104,0.45
					c10.805-0.709,21.498-2.771,32.455-1.74c4.506,0.42,9.162-0.797,13.754-1.23c2.057-0.189,4.152-0.085,6.176-0.437
					c5.193-0.896,10.375-1.884,15.521-3.021c1.584-0.344,2.738-0.351,4.021,1.622c-1.346,0.581-2.369,1.343-3.471,1.468
					c-11.275,1.272-22.545,2.639-33.85,3.573c-6.037,0.496-12.154-0.035-18.207,0.352c-5.525,0.357-11.01,1.329-16.309,2.002
					c0.172,7.927,0.328,15.352,0.496,22.979c1.188-0.011,2.297,0.099,3.377-0.043c9.027-1.139,18.062-2.241,27.07-3.531
					c5.697-0.813,11.348-1.952,17.025-2.921c1.102-0.188,2.234-0.446,3.328-0.354c4.697,0.388,8.43-1.076,11.088-5.146
					c1.43-2.195,3.588-2.498,5.91-1.5c1.609,0.702,3.256,1.392,4.701,2.359c0.674,0.446,1.352,1.618,1.223,2.32
					c-0.119,0.659-1.236,1.5-2.012,1.615c-6.473,0.961-12.979,1.71-19.453,2.639c-5.531,0.794-11.049,1.723-16.564,2.629
					c-3.615,0.591-7.219,1.247-10.902,1.891c0.35,6.799-2.4,13.276-0.748,20.494c1.941-0.958,3.574-1.825,5.25-2.59
					c3.463-1.589,6.973-3.072,10.4-4.713c0.807-0.391,1.393-1.231,2.125-1.914c-1.836-3.972-6.803-5.258-8.291-9.886
					c4.498-0.873,7.764,0.342,10.785,2.685c2.104,1.635,4.303,3.154,7.07,5.173c2.092-3.445,3.98-6.345,5.643-9.359
					c1.357-2.477,2.838-3.204,6.805-2.797c2.256,0.227,4.455,1.927,4.836,3.987c0.162,0.876,0.156,2.144-0.354,2.714
					c-3.025,3.414-6.225,6.677-9.568,10.208c2.439,2.22,6.201,3.108,9.738,3.863c8.545,1.838,17.201,3.121,25.807,4.67
					c1.693,0.304,3.355,0.788,5.959,1.415c-1.188,1.49-1.709,2.811-2.605,3.164c-6.955,2.722-13.693,5.983-21.602,5.501
					c-3.545-0.21-6.646-0.912-9.369-2.892c-6.197-4.51-12.268-9.197-18.336-13.877c-2.443-1.878-3.688-2.354-5.27-0.1
					c-5.168,7.372-13.469,9.991-20.605,14.379c-1.895,1.165-3.783,2.352-5.59,3.645c-2.844,2.042-5.135,2.242-7.914,0.266
					c-1.555-1.104-3.029-2.379-4.299-3.794C443.942,562.953,443.879,561.764,443.399,560.284z"/>
				<path fill="#FFFFFF" d="M461.467,468.802c5.227,0.729,9.887,0.21,14.938-1.313c-0.271-3.433-0.529-6.731-0.83-10.564
					c1.26-0.513,2.637-1.415,4.1-1.593c2.627-0.327,5.469,0.66,7.709-1.684c0.229-0.239,1.479,0.23,2,0.67
					c0.25,0.213,0.113,1.5-0.191,1.661c-4.1,2.235-2.498,5.977-2.857,9.935c5.227-1.689,10.447-0.226,15.285-2.743
					c1.682-0.867,4.078-0.766,6.076-0.52c2.547,0.315,4.217,2.675,3.957,5.179c-0.791,7.608-1.725,15.203-2.533,22.818
					c-0.451,4.214-1.912,7.402-6.781,7.822c-1.045,0.092-2.037,0.788-3.447,1.365c-0.424-1.6-0.801-3.022-1.18-4.441
					c-9.184-0.243-61.713,7.277-67.104,9.794c-2.77-11.232-2.795-22.785-5.762-33.777c2.377-3.138,5.969-2.533,8.031-1.507
					c4.922,2.455,9.713,1.038,14.57,0.945c1.084-0.016,2.158-0.4,3.541-0.676c-0.516-4.024-1.012-7.91-1.494-11.734
					c3.143-1.894,9.715-2.294,14.861-0.443c-1.48,1.287-2.648,2.298-3.842,3.328C460.815,463.705,461.119,466.058,461.467,468.802z
					 M438.821,499.599c5.521-1.014,10.729-1.969,16.26-2.987c-0.746-4.086-1.391-7.618-2.084-11.412
					c-5.412,0.318-10.418,0.496-15.1,3.017C438.209,492.094,438.498,495.68,438.821,499.599z M500.334,479.364
					c-5.039,0.641-9.367,1.191-13.959,1.776c-0.133,4.155-0.256,8.061-0.393,12.459c4.582-0.578,8.732-1.109,13.145-1.67
					C499.535,487.712,499.908,483.835,500.334,479.364z M476.924,482.857c-5.387-0.512-9.949,0.161-14.414,1.24
					c0.199,7.014,0.352,7.817,2.072,11.231c4.277-0.499,8.643-0.859,13.119-2.101C477.426,489.552,477.192,486.422,476.924,482.857z
					 M438.086,484.353c4.988-0.633,9.514-1.211,14.262-1.815c-0.432-3.363-0.801-6.278-1.23-9.669
					c-4.127,0.146-7.938,0.194-11.729,0.453c-2.035,0.142-3.293,1.342-2.902,3.542C436.918,479.358,437.537,481.819,438.086,484.353
					z M500.641,466.944c-5.092,0.469-9.76-0.771-13.92,2.002c-0.354,3.096-1.119,6.026,0.328,9.147
					c4.396-0.922,8.959,0.551,13.312-2.117C500.448,473.214,500.537,470.394,500.641,466.944z M462.752,481.323
					c4.969-0.633,9.162-1.168,13.932-1.774c-0.137-2.901-0.273-5.773-0.422-8.796c-4.596,0.22-8.525,0.387-12.451,0.619
					c-0.598,0.033-1.18,0.358-2.234,0.696C461.948,474.995,462.313,477.861,462.752,481.323z"/>
				<path fill="#FFFFFF" d="M445.235,522.129c4.445-1.034,8.846-2.396,13.35-3.026c6.797-0.962,13.67-1.354,20.496-2.102
					c3.314-0.364,6.602-1.037,9.912-1.464c3.139-0.41,5.695-1.803,7.998-3.952c3.094-2.902,8.74-2.57,11.516,0.502
					c1.041,1.148,0.771,2.504-0.723,2.99c-1.059,0.345-2.199,0.417-3.307,0.594c-8.197,1.312-16.391,2.694-24.602,3.898
					c-4.432,0.652-8.916,0.93-13.357,1.511c-6.328,0.827-12.637,1.799-18.957,2.662c-0.707,0.092-1.447-0.097-2.172-0.154
					C445.336,523.103,445.285,522.614,445.235,522.129z"/>
			</g>
			<g>
				<path fill="#FFFFFF" d="M316.582,543.342c-0.496,0.072-0.986,0.249-1.465,0.525c-0.741,0.433-1.431,0.755-2.104,0.997
					c-0.656,0.232-1.341,0.456-2.002,0.659c-1.039,0.328-2.108,0.67-3.14,1.098c-0.745,0.312-1.296,0.269-2.093-0.19
					c-0.51-0.289-1.025-0.578-1.544-0.857c-0.716-0.394-1.457-0.801-2.163-1.229c-0.885-0.542-1.732-1.104-2.629-1.7
					c-0.251-0.167-0.504-0.335-0.758-0.502c0.021-0.029,0.041-0.056,0.062-0.082c0.34-0.395,0.689-0.788,1.041-1.179
					c0.75-0.84,1.53-1.703,2.207-2.64c1.369-1.891,2.389-3.941,3.482-6.229c0.578-1.221,0.223-2.469-0.959-3.342
					c-1.469-1.086-3.099-1.137-4.517-1.104c-0.243,0.011-0.462,0.026-0.653,0.054c-1.098,0.156-1.701,0.729-2.084,1.973
					c-0.121,0.394-0.188,0.794-0.262,1.182c-0.045,0.253-0.092,0.509-0.148,0.755c-0.367,1.532-1.186,2.843-2.041,4.229
					c-0.145,0.231-0.286,0.459-0.433,0.699c-0.224,0.363-0.499,0.712-0.789,1.072c-0.026,0.032-0.054,0.065-0.082,0.096
					c-2.646-2.312-6.678-7.778-7.448-9.805c0.021-0.004,0.042-0.017,0.062-0.02c0.387-0.135,0.748-0.267,1.118-0.332
					c0.47-0.085,0.942-0.167,1.417-0.236c0.592-0.085,1.111-0.141,1.593-0.16c0.696-0.032,1.398-0.104,2.146-0.214
					c2.132-0.306,4.228-0.883,6.255-1.443c0.604-0.167,1.213-0.335,1.818-0.499c0.889-0.229,1.771-0.477,2.658-0.712
					c2.002-0.545,4.072-1.106,6.124-1.589c1.087-0.26,1.903-0.771,2.577-1.618l0.207-0.26l-0.156-0.296
					c-0.863-1.604-1.535-2.234-3.008-2.812c-0.086-0.033-0.173-0.065-0.26-0.1c-0.294-0.107-0.574-0.21-0.768-0.36
					c-0.791-0.627-1.675-0.769-2.523-0.903l-0.363-0.059c-1.371-0.233-2.346,0.312-3.008,1.693
					c-0.229,0.486-0.479,0.962-0.734,1.438c-0.229,0.442-0.465,0.88-0.684,1.329c-0.213,0.439-0.396,0.598-0.762,0.67
					c-0.814,0.138-1.615,0.361-2.39,0.577l-0.397,0.104c-0.305,0.082-0.607,0.185-0.909,0.282c-0.463,0.151-0.899,0.299-1.343,0.384
					c-1.838,0.346-3.676,0.681-5.517,1.016c-1.521,0.274-3.036,0.551-4.556,0.837c-0.205,0.039-0.377,0.067-0.524,0.092
					c-0.472,0.069-0.472,0.069-0.819-0.804c-0.152-0.375-0.268-0.763-0.387-1.183c-0.205-0.713-0.418-1.454-0.839-2.098
					c-0.55-0.84-0.808-1.763-1.077-2.741c-0.092-0.317-0.18-0.643-0.277-0.968c-0.182-0.564-0.339-1.142-0.503-1.75
					c-0.032-0.112-0.065-0.236-0.095-0.351l2.354-0.607c3.215-0.833,6.454-1.67,9.694-2.494c0.251-0.066,0.512-0.099,0.77-0.125
					c0.017,0.135,0.031,0.271,0.051,0.395c0.078,0.594,0.15,1.148,0.263,1.693c0.246,1.229,0.976,1.884,1.951,1.746
					c0.351-0.049,0.72-0.207,1.099-0.46c0.646-0.437,1.289-0.938,1.959-1.539c0.332-0.295,0.783-0.752,0.896-1.3l0.078-0.377
					c0.271-1.303,0.549-2.649,0.604-3.998c0.053-1.267,0.01-2.554-0.035-3.791c-0.026-0.732-0.051-1.461-0.059-2.189
					c-0.006-0.189,0.041-0.399,0.086-0.627c0.066-0.341,0.145-0.719,0.081-1.112c-0.272-1.607-0.137-3.196,0.011-4.87
					c0.092-1.063,0.186-2.16,0.168-3.257c-0.027-1.425,0.002-2.803,0.688-4.036c0.076-0.136,0.246-0.499,0.193-0.863
					c-0.021-0.182-0.033-0.374-0.042-0.574c-0.038-0.646-0.075-1.316-0.524-1.71c-0.925-0.821-1.979-1.615-3.414-1.868
					c-1.442-0.256-2.822-0.164-4.283,0.302c-0.453,0.139-0.887,0.322-1.305,0.496c-0.443,0.19-0.861,0.361-1.297,0.496
					c-2.365,0.715-4.781,1.389-7.124,2.048l-0.118,0.033c-1.633,0.459-3.271,0.913-4.91,1.359l-2.488,0.683
					c-0.055,0.014-0.113,0.026-0.17,0.036c-0.221,0.042-0.488,0.092-0.705,0.292c-0.688,0.62-1.563,0.804-2.488,0.998
					c-0.307,0.065-0.621,0.134-0.934,0.216c0.654-0.417,1.189-0.944,1.718-1.457c0.239-0.24,0.479-0.469,0.731-0.695
					c0.451-0.4,1.012-0.72,1.523-0.877c1.255-0.377,2.294-1.086,3.295-1.769c0.48-0.325,0.979-0.667,1.48-0.952
					c0.16-0.092,0.289-0.2,0.396-0.295c0.203-0.18,0.293-0.243,0.489-0.233c0.577,0.036,1.378-0.633,1.503-1.197
					c0.25-1.136,0.902-2.048,1.596-3.014c0.174-0.239,0.344-0.481,0.51-0.719c0.631-0.936,0.703-1.77,0.234-2.728
					c-0.158-0.318-0.334-0.624-0.51-0.916c1.43-0.299,2.938-0.595,4.469-0.817c1.494-0.216,2.838-0.334,4.105-0.361
					c0.336-0.006,0.693-0.081,0.938-0.232c0.424-0.263,0.9-0.43,1.5-0.52c0.243-0.029,0.51-0.059,0.832-0.068
					c0.703-0.032,1.408-0.462,1.854-1.116c0.352-0.515,0.479-1.077,0.355-1.582c-0.282-1.195-0.83-2.625-2.552-3.105l-0.101-0.025
					c-0.912-0.249-1.773-0.489-2.301-1.26c-0.211-0.312-0.577-0.414-0.873-0.502l-0.146-0.043c-0.402-0.129-0.806-0.167-1.201-0.108
					c-0.762,0.108-1.365,0.541-1.924,0.968l-0.17,0.128l-0.026,0.217c-0.165,1.441-0.308,1.76-1.259,2.819
					c-0.056,0.063-0.121,0.122-0.188,0.184c-0.191,0.194-0.42,0.407-0.535,0.716c-0.172,0.453-0.438,0.573-1.158,0.695
					c-2.268,0.401-4.532,0.867-6.723,1.313c-2.643,0.535-5.396,1.119-8.191,1.717c-1.773,0.384-3.641,0.804-5.693,1.287
					c-0.385,0.085-0.764,0.204-1.133,0.312c-0.631,0.19-1.22,0.361-1.816,0.428c-0.188,0.022-0.355,0.04-0.508,0.059
					c-0.526,0.076-1.058,0.21-1.34,0.637c-0.313,0.471-0.232,1.08,0.039,2.114l0.104,0.42l0.436-0.04
					c0.387-0.042,0.787-0.053,1.187-0.076c0.966-0.042,2.014-0.117,2.813-0.377c2.19-0.719,4.491-1.175,6.713-1.631
					c0.557-0.107,1.114-0.22,1.676-0.334c0.33-0.068,0.687-0.135,1.113-0.193c0.317-0.05,0.641-0.085,0.953-0.129
					c0.207-0.028,0.411-0.056,0.618-0.081c0.608,0.83,0.649,1.522,0.146,2.258c-0.24,0.354-0.479,0.706-0.716,1.057
					c-0.6,0.886-1.22,1.802-1.856,2.678c-0.332,0.446-0.788,0.854-1.226,1.248l-0.097,0.085c-0.53,0.47-1.064,0.936-1.601,1.396
					c-1.031,0.89-2.097,1.812-3.089,2.783c-0.618,0.61-1.209,0.929-1.957,1.051c-0.354,0.046-0.717,0.052-1.102,0.059
					c-0.168,0.003-0.336,0.003-0.5,0.01c-0.326,0.017-0.605,0.036-0.852,0.069c-0.521,0.075-1.246,0.25-1.551,0.87
					c-0.34,0.693,0.062,1.566,0.498,2.327c0.516,0.909,0.836,1.868,1.01,3.022l0.189,1.287c0.327,2.209,0.67,4.49,0.961,6.742
					c0.184,1.438,0.354,2.875,0.524,4.316c0.265,2.203,0.531,4.479,0.854,6.715c0.129,0.87,0.511,1.667,0.881,2.445
					c0.09,0.189,0.179,0.378,0.261,0.558c0.221,0.489,0.937,0.611,1.147,0.637c0.465,0.054,0.916,0.05,1.34-0.013l0.078-0.013
					c0.731-0.122,1.444-0.26,2.201-0.414c0.188-0.036,0.383-0.079,0.577-0.118c0.075,0.115,0.149,0.227,0.228,0.335
					c0.306,0.45,0.59,0.87,0.791,1.319c0.359,0.824,0.688,1.684,1.004,2.515c0.252,0.659,0.505,1.313,0.771,1.959
					c0.312,0.752,0.65,1.474,1.012,2.235c0.096,0.207,0.188,0.407,0.286,0.609c-0.089,0.057-0.155,0.093-0.21,0.108
					c-0.422,0.115-0.849,0.217-1.271,0.318c-0.634,0.15-1.279,0.309-1.92,0.502c-2.162,0.649-4.349,1.34-6.466,2.006l-0.88,0.271
					c-0.809,0.257-1.585,0.52-2.313,0.791c-0.41,0.15-0.731,0.431-0.896,0.791c-0.159,0.349-0.17,0.751-0.026,1.129
					c0.19,0.513,0.942,0.909,1.46,0.902c0.585-0.007,1.171-0.177,1.712-0.341l0.213-0.066c0.348-0.102,0.688-0.22,1.029-0.338
					c0.427-0.157,0.832-0.299,1.243-0.403c1.191-0.309,2.382-0.601,3.572-0.898c1.896-0.473,3.856-0.958,5.772-1.483
					c0.543-0.145,0.856-0.082,1.201,0.352c0.214,0.27,0.431,0.528,0.651,0.795c0.424,0.505,0.83,0.991,1.181,1.517
					c1.596,2.386,3.451,4.628,5.674,6.84c0.84,0.837,1.615,1.718,2.442,2.643c0.291,0.321,0.577,0.646,0.871,0.972
					c-0.101,0.171-0.188,0.329-0.28,0.414c-0.482,0.433-0.962,0.876-1.437,1.313c-1.41,1.297-2.861,2.636-4.377,3.826
					c-0.877,0.692-1.905,1.262-2.901,1.807c-0.438,0.229-0.874,0.473-1.298,0.722c-0.373,0.217-1.239,0.726-1.008,1.782
					c0.188,0.844,0.89,1.329,1.832,1.257c0.896-0.063,1.661-0.188,2.336-0.395c0.836-0.245,1.672-0.519,2.481-0.787
					c1.045-0.345,2.125-0.695,3.196-0.994c0.936-0.26,1.695-0.695,2.395-1.375c0.977-0.962,1.997-1.91,2.979-2.836
					c0.312-0.289,0.624-0.581,0.933-0.873l1.246,0.712c1.127,0.646,2.223,1.28,3.317,1.907c0.89,0.502,1.78,0.99,2.672,1.482
					c1.979,1.087,4.024,2.212,5.951,3.439c1.396,0.89,2.69,0.847,3.774,0.688c0.31-0.042,0.619-0.102,0.931-0.167
					c0.548-0.107,1.088-0.371,1.478-0.723c1.151-1.027,2.122-1.952,2.959-2.839c1.674-1.775,2.626-3.991,3.552-6.128l0.244-0.567
					l-0.4-0.227C318.592,543.45,317.582,543.198,316.582,543.342z M270.738,502.595c0.077-0.033,0.159-0.065,0.239-0.099
					c0.475-0.193,0.926-0.377,1.381-0.506c0.951-0.281,1.93-0.542,2.871-0.788c1.904-0.509,3.869-1.033,5.75-1.723
					c1.828-0.676,3.859-1.162,6.396-1.523c0.22-0.032,0.438-0.064,0.661-0.092l0.089-0.017c0.506-0.069,0.998-0.19,1.478-0.309
					c0.276-0.065,0.556-0.135,0.84-0.188c0.556-0.121,1.114-0.227,1.766-0.351l0.376-0.072l-0.076,3.036
					c-0.083,0.068-0.175,0.141-0.254,0.167c-3.09,1.072-6.201,2.143-9.246,3.174c-1.679,0.567-3.355,0.938-5.131,1.132
					c-1.51,0.174-3.002,0.551-4.445,0.919c-0.613,0.158-1.229,0.315-1.846,0.459c-0.184,0.04-0.364,0.085-0.559,0.142
					c-0.268-0.434-0.246-0.925-0.196-1.625C270.867,503.795,270.91,503.199,270.738,502.595z M292.72,490.669
					c0.011,0.602-0.013,1.214-0.037,1.866c-0.006,0.228-0.015,0.457-0.021,0.699c-0.072,0.053-0.179,0.128-0.221,0.138
					c-0.211,0.008-0.429,0.03-0.648,0.061c-0.779,0.115-1.508,0.364-2.216,0.606c-0.688,0.23-1.345,0.457-2.026,0.556l-0.062,0.01
					c-1.389,0.184-2.773,0.407-4.158,0.627l-0.92,0.151c-0.316,0.049-0.609,0.147-0.907,0.25c-0.56,0.193-1.11,0.4-1.665,0.598
					c-1.154,0.426-2.353,0.87-3.549,1.195c-1.359,0.374-2.742,0.643-4.199,0.935c-0.49,0.092-0.984,0.188-1.48,0.289
					c-0.279-1.148-0.182-2.255-0.082-3.41c0.041-0.453,0.082-0.919,0.1-1.397c0.326-0.076,0.646-0.148,0.963-0.224
					c1.081-0.246,2.102-0.485,3.127-0.748c0.539-0.142,1.058-0.335,1.561-0.519c0.203-0.082,0.408-0.157,0.615-0.226
					c0.219-0.082,0.434-0.167,0.652-0.25c0.441-0.175,0.863-0.336,1.293-0.438c0.145-0.033,0.285-0.059,0.428-0.092
					c0.896-0.193,1.817-0.395,2.662-1.08c0.221-0.177,0.604-0.259,1.006-0.341c0.23-0.049,0.474-0.096,0.703-0.167
					c0.703-0.221,1.391-0.496,2.051-0.762c1.183-0.473,2.299-0.916,3.508-1.097h0.021c0.216-0.033,0.434-0.069,0.646-0.107
					c0.428-0.069,0.851-0.139,1.276-0.167c0.837-0.06,1.28,0.259,1.448,1.026c0.127,0.578,0.136,1.225,0.138,1.849v0.168H292.72
					L292.72,490.669z M271.438,512.752c-0.104-0.933-0.197-1.814-0.271-2.695c-0.017-0.213-0.007-0.351,0.415-0.496
					c2.422-0.813,4.732-1.381,7.062-1.716l0.416-0.059c3.006-0.438,5.25-1.061,7.282-2.02c1.073-0.502,2.24-0.898,3.369-1.277
					c0.55-0.187,1.104-0.371,1.646-0.57c0.465-0.167,0.845-0.151,1.232,0.068l0.107,3.581c-0.291,0.1-0.572,0.188-0.854,0.279
					c-0.836,0.272-1.624,0.532-2.422,0.758c-3.169,0.891-6.281,1.767-9.43,2.59c-0.729,0.197-1.49,0.349-2.229,0.486
					c-0.635,0.125-1.29,0.256-1.938,0.41c-0.79,0.197-1.502,0.459-2.117,0.791c-0.457,0.246-0.942,0.338-1.356,0.404
					c-0.185,0.022-0.37,0.042-0.562,0.064c-0.094,0.01-0.193,0.021-0.289,0.036C271.485,513.172,271.461,512.958,271.438,512.752z"
					/>
				<path fill="#FFFFFF" d="M252.158,505.081c-1.345-0.018-2.438-0.093-3.434-0.233c-0.98-0.141-1.611,0.128-2.084,0.847
					c-0.439,0.663-1.09,1.061-2.159,1.313c-1.5,0.345-2.991,0.755-4.431,1.204c-0.504,0.154-0.992,0.36-1.46,0.562
					c-0.497,0.21-0.964,0.41-1.448,0.552c-1.273,0.381-2.592,0.722-3.865,1.047c-0.49,0.128-0.984,0.259-1.476,0.384
					c-0.357,0.095-0.719,0.181-1.089,0.271l-0.117,0.029c-0.047-0.104-0.082-0.197-0.099-0.271c-0.35-1.569-1.271-2.363-2.806-2.439
					c-0.738-0.039-1.466-0.193-2.236-0.368c-0.289-0.059-0.58-0.125-0.869-0.177c-1.394-0.275-2.42,0.112-3.373,1.218l-0.233,0.282
					l0.185,0.312c0.113,0.19,0.213,0.4,0.309,0.607c0.257,0.535,0.521,1.083,1.007,1.418c0.522,0.361,0.804,0.768,0.95,1.395
					c0.188,0.766,0.355,1.593,0.535,2.606c0.256,1.441,0.406,2.932,0.557,4.369c0.193,1.91,0.396,3.883,0.84,5.81
					c0.395,1.728,0.635,3.531,0.869,5.281c0.111,0.854,0.227,1.709,0.357,2.563c0.08,0.534,0.168,1.09,0.356,1.622
					c0.345,0.972,1.05,1.449,1.94,1.321c0.257-0.039,0.522-0.124,0.802-0.259c0.114-0.057,0.229-0.125,0.343-0.197
					c0.143-0.085,0.289-0.178,0.389-0.192c2.403-0.389,4.4-1.632,6.203-2.915c1.336-0.955,2.81-1.539,4.453-2.149
					c0.767-0.286,1.563-0.535,2.336-0.778c0.471-0.145,0.943-0.295,1.414-0.452c0.264-0.093,0.522-0.193,0.785-0.296
					c0.434-0.181,0.844-0.342,1.262-0.424c0.085-0.02,0.168-0.028,0.244-0.042c0.279-0.043,0.354-0.017,0.354-0.017
					c0.039,0.039,0.103,0.189,0.187,0.686c0.329,1.967,0.646,2.284,2.624,2.626c0.104,0.018,0.209,0.036,0.312,0.046
					c1.918,0.215,4.315-1.382,4.09-3.658c-0.036-0.371-0.052-0.745-0.063-1.134c-0.016-0.409-0.029-0.837-0.076-1.264
					c-0.229-2.176-0.097-4.408,0.036-6.561c0.052-0.857,0.104-1.718,0.138-2.574c0.035-0.968,0.189-1.914,0.356-2.908
					c0.214-1.3,0.437-2.646,0.359-4.043c-0.009-0.184-0.017-0.364-0.021-0.545c-0.024-0.669-0.052-1.349-0.214-2.042
					C254.754,505.641,254.075,505.097,252.158,505.081z M232.378,525.418c-0.104-0.645-0.205-1.251-0.277-1.868
					c-0.274-2.337-0.543-5.117-0.464-7.985c0.005-0.187-0.012-0.394-0.026-0.598c-0.021-0.223-0.048-0.633,0.017-0.719
					c0.096-0.118,0.521-0.2,0.803-0.259c0.164-0.033,0.33-0.065,0.479-0.103c0.621-0.164,1.242-0.322,1.863-0.476
					c0.939-0.239,1.884-0.477,2.816-0.735c0.477-0.128,0.939-0.302,1.386-0.469c0.31-0.115,0.612-0.227,0.921-0.328
					c0.506-0.158,1.005-0.325,1.51-0.492c1.621-0.529,3.299-1.08,4.969-1.559c0.181-0.05,0.33-0.089,0.463-0.105
					c0.199-0.033,0.348-0.02,0.404,0.029c0.066,0.053,0.181,0.235,0.233,0.896c0.111,1.468,0.134,2.975,0.16,4.432l0.021,1.09
					c0.034,1.832,0.047,3.667,0.063,5.504l0.002,0.613c0.007,0.242-0.012,0.485-0.028,0.729c-0.009,0.125-0.017,0.25-0.021,0.374
					c-0.057,1.113-0.779,1.921-1.933,2.16c-1.102,0.227-2.108,0.653-3.085,1.066c-0.859,0.363-1.672,0.709-2.535,0.926
					c-0.728,0.178-1.396,0.47-2.049,0.755c-0.808,0.352-1.568,0.68-2.409,0.805l-0.048,0.006c-0.615,0.086-1.162,0.396-1.687,0.689
					c-0.26,0.146-0.505,0.286-0.75,0.394c-0.125,0.058-0.269,0.1-0.433,0.148C232.901,528.588,232.635,526.979,232.378,525.418z"/>
				<path fill="#FFFFFF" d="M317.278,509.292c-0.498-0.968-1.109-1.884-1.7-2.771c-0.195-0.292-0.388-0.584-0.577-0.876
					c-0.617-0.947-1.385-1.435-2.344-1.483c-0.322-0.017-0.646-0.059-0.983-0.107c-0.624-0.085-1.267-0.177-1.913-0.092
					l-0.188,0.025c-2.098,0.303-4.025,0.969-3.977,3.731l0.006,0.328l0.307,0.132c0.182,0.075,0.371,0.141,0.557,0.203
					c0.34,0.122,0.656,0.233,0.869,0.399c1.412,1.165,2.551,2.58,3.383,4.195c0.646,1.254,1,1.557,2.434,1.47l0.079-0.006
					c0.204-0.01,0.419-0.025,0.55,0.023c0.422,0.138,0.865,0.184,1.318,0.111c0.607-0.085,1.152-0.345,1.65-0.613
					c0.594-0.318,1.248-1.169,1.244-1.888C317.982,511.176,317.719,510.159,317.278,509.292z"/>
			</g>
			<g>
				<path fill="#FFFFFF" d="M203.981,554.521c-0.627-0.05-1.278,0.029-1.94,0.236c-1.03,0.324-1.964,0.528-2.858,0.637
					c-0.871,0.107-1.772,0.185-2.646,0.259c-1.363,0.115-2.775,0.233-4.153,0.477c-1.003,0.171-1.669-0.032-2.518-0.816
					c-0.545-0.503-1.103-0.992-1.657-1.483c-0.769-0.68-1.568-1.389-2.312-2.104c-0.938-0.909-1.823-1.842-2.762-2.818
					c-0.258-0.276-0.522-0.559-0.789-0.831c0.033-0.029,0.066-0.057,0.1-0.082c0.527-0.395,1.068-0.777,1.604-1.161
					c1.159-0.821,2.354-1.668,3.444-2.623c2.203-1.939,4.022-4.175,6.002-6.687c1.055-1.333,0.96-2.971-0.246-4.368
					c-1.498-1.735-3.484-2.252-5.234-2.6c-0.309-0.06-0.57-0.104-0.818-0.122c-1.395-0.107-2.292,0.424-3.107,1.842
					c-0.26,0.452-0.457,0.926-0.646,1.378c-0.123,0.297-0.252,0.599-0.396,0.888c-0.876,1.777-2.234,3.164-3.682,4.624
					c-0.24,0.242-0.479,0.485-0.715,0.729c-0.382,0.395-0.814,0.741-1.271,1.109c-0.045,0.028-0.084,0.062-0.128,0.095
					c-2.604-3.574-6.038-11.409-6.427-14.105c0.031,0,0.059-0.008,0.089-0.012c0.507-0.056,0.991-0.113,1.464-0.092
					c0.602,0.026,1.203,0.053,1.805,0.104c0.748,0.059,1.404,0.141,2.001,0.241c0.863,0.151,1.745,0.264,2.691,0.343
					c2.708,0.21,5.439,0.077,8.083-0.047c0.791-0.035,1.582-0.075,2.373-0.103c1.151-0.042,2.305-0.092,3.461-0.141
					c2.611-0.108,5.312-0.228,7.957-0.246c1.406-0.015,2.554-0.417,3.615-1.271l0.327-0.263l-0.112-0.406
					c-0.611-2.213-1.267-3.174-2.912-4.287c-0.094-0.064-0.19-0.128-0.289-0.192c-0.332-0.218-0.646-0.417-0.844-0.66
					c-0.797-0.987-1.84-1.404-2.842-1.802l-0.438-0.182c-1.617-0.669-2.967-0.262-4.16,1.254c-0.416,0.528-0.855,1.044-1.299,1.557
					c-0.408,0.477-0.817,0.955-1.209,1.44c-0.384,0.479-0.656,0.627-1.121,0.604c-1.038-0.042-2.084,0.007-3.096,0.05l-0.516,0.025
					c-0.402,0.017-0.801,0.057-1.198,0.092c-0.608,0.06-1.185,0.115-1.753,0.093c-2.35-0.079-4.699-0.178-7.054-0.279
					c-1.938-0.089-3.881-0.167-5.82-0.243c-0.261-0.006-0.483-0.016-0.675-0.031c-0.596-0.043-0.596-0.043-0.785-1.212
					c-0.078-0.503-0.111-1.015-0.146-1.553c-0.054-0.941-0.108-1.906-0.442-2.81c-0.443-1.192-0.501-2.394-0.565-3.667
					c-0.02-0.42-0.041-0.84-0.074-1.264c-0.061-0.756-0.093-1.507-0.129-2.288c-0.008-0.151-0.014-0.31-0.018-0.459l3.056-0.1
					c4.178-0.122,8.388-0.252,12.597-0.364c0.325-0.013,0.655,0.021,0.976,0.06c-0.014,0.171-0.029,0.338-0.043,0.502
					c-0.067,0.745-0.133,1.444-0.149,2.144c-0.04,1.585,0.68,2.591,1.915,2.688c0.443,0.033,0.939-0.056,1.477-0.259
					c0.916-0.357,1.842-0.794,2.834-1.347c0.483-0.269,1.168-0.706,1.457-1.342l0.197-0.442c0.695-1.523,1.407-3.099,1.855-4.739
					c0.414-1.546,0.715-3.136,1.004-4.667c0.172-0.906,0.344-1.81,0.539-2.705c0.047-0.233,0.16-0.479,0.278-0.745
					c0.179-0.4,0.38-0.848,0.403-1.342c0.117-2.052,0.727-3.958,1.367-5.978c0.406-1.277,0.83-2.603,1.109-3.952
					c0.359-1.756,0.782-3.438,1.971-4.763c0.13-0.151,0.438-0.541,0.479-1.011c0.019-0.228,0.06-0.47,0.103-0.712
					c0.135-0.806,0.275-1.636-0.164-2.245c-0.91-1.265-1.983-2.534-3.676-3.246c-1.703-0.712-3.424-0.979-5.345-0.821
					c-0.593,0.053-1.175,0.158-1.737,0.253c-0.599,0.108-1.162,0.207-1.731,0.25c-3.099,0.216-6.257,0.377-9.312,0.535l-0.154,0.003
					c-2.135,0.115-4.27,0.213-6.404,0.309l-3.243,0.147c-0.071,0.003-0.146,0-0.224,0c-0.273-0.013-0.623-0.023-0.945,0.154
					c-1.018,0.575-2.144,0.558-3.335,0.542c-0.394-0.007-0.795-0.011-1.201,0.003c0.922-0.328,1.725-0.824,2.512-1.311
					c0.361-0.227,0.723-0.449,1.093-0.652c0.669-0.367,1.441-0.607,2.113-0.653c1.646-0.122,3.115-0.699,4.538-1.254
					c0.683-0.27,1.382-0.545,2.081-0.761c0.225-0.066,0.408-0.168,0.57-0.253c0.303-0.158,0.432-0.218,0.665-0.147
					c0.696,0.201,1.87-0.387,2.18-1.057c0.616-1.323,1.677-2.262,2.796-3.257c0.277-0.25,0.557-0.492,0.822-0.738
					c1.033-0.968,1.359-1.977,1.049-3.279c-0.105-0.438-0.236-0.863-0.369-1.273c1.836,0.036,3.768,0.093,5.709,0.243
					c1.896,0.151,3.578,0.377,5.144,0.696c0.412,0.089,0.876,0.092,1.212-0.026c0.599-0.21,1.232-0.275,1.986-0.217
					c0.311,0.023,0.645,0.069,1.046,0.142c0.872,0.15,1.856-0.178,2.579-0.854c0.573-0.535,0.887-1.188,0.875-1.848
					c-0.016-1.542-0.285-3.45-2.27-4.518l-0.113-0.062c-1.049-0.562-2.041-1.09-2.475-2.187c-0.176-0.437-0.594-0.669-0.932-0.854
					l-0.168-0.095c-0.458-0.271-0.943-0.428-1.444-0.467c-0.964-0.078-1.827,0.275-2.634,0.649l-0.246,0.112l-0.089,0.259
					c-0.604,1.723-0.866,2.074-2.327,3.111c-0.087,0.062-0.184,0.117-0.277,0.178c-0.297,0.177-0.635,0.384-0.859,0.722
					c-0.335,0.517-0.697,0.591-1.615,0.542c-2.893-0.142-5.805-0.207-8.617-0.26c-3.393-0.069-6.936-0.125-10.53-0.167
					c-2.289-0.023-4.691-0.023-7.352-0.007c-0.498,0.007-0.996,0.043-1.477,0.071c-0.826,0.06-1.601,0.112-2.354,0.021
					c-0.23-0.026-0.444-0.049-0.637-0.062c-0.67-0.056-1.352-0.04-1.823,0.41c-0.513,0.489-0.586,1.261-0.54,2.601l0.021,0.548
					l0.543,0.068c0.486,0.061,0.979,0.151,1.479,0.243c1.19,0.218,2.5,0.41,3.556,0.312c2.89-0.27,5.839-0.197,8.688-0.134
					c0.717,0.016,1.438,0.04,2.154,0.049c0.42,0.006,0.873,0.025,1.42,0.068c0.407,0.033,0.809,0.072,1.207,0.108
					c0.264,0.029,0.521,0.056,0.778,0.075c0.519,1.188,0.375,2.048-0.447,2.812c-0.392,0.364-0.78,0.729-1.172,1.097
					c-0.979,0.926-1.994,1.881-3.022,2.776c-0.535,0.459-1.205,0.827-1.852,1.188l-0.146,0.079c-0.773,0.426-1.562,0.85-2.348,1.27
					c-1.513,0.804-3.074,1.635-4.564,2.561c-0.928,0.578-1.743,0.804-2.691,0.738c-0.445-0.04-0.895-0.128-1.369-0.232
					c-0.205-0.042-0.414-0.085-0.615-0.121c-0.406-0.079-0.754-0.125-1.065-0.148c-0.654-0.052-1.597-0.042-2.14,0.627
					c-0.608,0.762-0.36,1.95-0.039,3c0.386,1.261,0.513,2.527,0.401,3.991l-0.124,1.631c-0.209,2.804-0.429,5.701-0.696,8.547
					c-0.167,1.815-0.359,3.624-0.548,5.436c-0.289,2.78-0.594,5.655-0.813,8.495c-0.088,1.096,0.157,2.192,0.396,3.246
					c0.061,0.256,0.115,0.505,0.168,0.755c0.135,0.656,0.979,1.004,1.232,1.096c0.557,0.194,1.107,0.312,1.646,0.354l0.103,0.006
					c0.93,0.06,1.846,0.082,2.812,0.108c0.248,0.003,0.494,0.01,0.745,0.017c0.061,0.157,0.122,0.318,0.186,0.476
					c0.247,0.631,0.483,1.231,0.604,1.835c0.217,1.113,0.381,2.256,0.539,3.368c0.125,0.876,0.248,1.746,0.401,2.613
					c0.173,1.018,0.394,1.992,0.62,3.029c0.062,0.274,0.121,0.552,0.186,0.834c-0.123,0.036-0.224,0.062-0.291,0.067
					c-0.549,0.023-1.101,0.033-1.648,0.04c-0.814,0.011-1.658,0.026-2.495,0.078c-2.836,0.2-5.713,0.438-8.495,0.67l-1.152,0.093
					c-1.065,0.085-2.095,0.199-3.062,0.324c-0.549,0.068-1.018,0.328-1.318,0.729c-0.295,0.384-0.418,0.869-0.354,1.372
					c0.099,0.688,0.91,1.385,1.545,1.517c0.718,0.157,1.482,0.107,2.199,0.052l0.275-0.017c0.456-0.029,0.907-0.078,1.357-0.134
					c0.566-0.069,1.104-0.128,1.643-0.146c1.545-0.05,3.09-0.082,4.635-0.114c2.457-0.054,5-0.104,7.496-0.214
					c0.713-0.029,1.078,0.135,1.381,0.766c0.186,0.384,0.381,0.768,0.578,1.151c0.381,0.744,0.744,1.443,1.027,2.187
					c1.294,3.377,2.951,6.64,5.065,9.981c0.799,1.26,1.512,2.55,2.269,3.914c0.262,0.478,0.527,0.955,0.799,1.436
					c-0.172,0.189-0.317,0.352-0.461,0.427c-0.711,0.4-1.421,0.812-2.129,1.221c-2.085,1.198-4.242,2.442-6.436,3.482
					c-1.268,0.611-2.687,1.012-4.061,1.405c-0.604,0.174-1.203,0.345-1.801,0.527c-0.514,0.161-1.721,0.546-1.729,1.907
					c-0.008,1.089,0.724,1.877,1.899,2.059c1.119,0.171,2.093,0.227,2.978,0.164c1.094-0.075,2.194-0.178,3.264-0.279
					c1.379-0.131,2.806-0.267,4.203-0.328c1.223-0.063,2.276-0.384,3.319-1.033c1.47-0.906,2.979-1.793,4.448-2.648
					c0.463-0.272,0.926-0.541,1.386-0.817l1.329,1.229c1.201,1.105,2.37,2.18,3.548,3.257c0.949,0.861,1.907,1.71,2.87,2.562
					c2.123,1.892,4.324,3.841,6.347,5.879c1.465,1.475,3.067,1.789,4.444,1.897c0.39,0.025,0.783,0.042,1.187,0.052
					c0.705,0.017,1.438-0.16,2.015-0.476c1.7-0.938,3.147-1.812,4.422-2.665c2.545-1.718,4.332-4.168,6.062-6.545l0.457-0.628
					l-0.431-0.387C206.423,555.21,205.254,554.623,203.981,554.521z M159.014,491.759c0.109-0.015,0.217-0.03,0.323-0.046
					c0.637-0.105,1.239-0.207,1.833-0.24c1.248-0.075,2.518-0.125,3.75-0.17c2.477-0.092,5.032-0.19,7.534-0.516
					c2.432-0.321,5.061-0.352,8.275-0.095c0.275,0.021,0.557,0.042,0.836,0.069l0.111,0.006c0.643,0.053,1.28,0.043,1.897,0.033
					c0.357-0.006,0.72-0.014,1.083,0c0.717,0.01,1.433,0.033,2.268,0.06l0.48,0.017l-0.939,3.709
					c-0.118,0.065-0.251,0.125-0.354,0.134c-4.094,0.46-8.209,0.906-12.235,1.33c-2.22,0.229-4.378,0.22-6.619-0.033
					c-1.889-0.21-3.834-0.158-5.705-0.108c-0.8,0.021-1.6,0.042-2.396,0.05c-0.234,0-0.473,0.01-0.723,0.021
					c-0.206-0.604-0.051-1.198,0.205-2.051C158.844,493.271,159.06,492.552,159.014,491.759z M189.321,483.227
					c-0.159,0.742-0.356,1.49-0.564,2.285c-0.072,0.271-0.146,0.558-0.222,0.85c-0.105,0.043-0.256,0.112-0.313,0.105
					c-0.258-0.046-0.533-0.079-0.811-0.103c-0.987-0.082-1.954,0.023-2.888,0.125c-0.915,0.1-1.782,0.194-2.646,0.125l-0.078-0.007
					c-1.755-0.161-3.518-0.269-5.273-0.384l-1.177-0.075c-0.399-0.025-0.788,0.013-1.185,0.056
					c-0.737,0.079-1.475,0.178-2.211,0.275c-1.536,0.204-3.127,0.411-4.686,0.479c-1.774,0.074-3.545,0.025-5.413-0.026
					c-0.631-0.017-1.266-0.033-1.904-0.049c-0.021-1.49,0.404-2.819,0.852-4.211c0.176-0.552,0.354-1.106,0.508-1.69
					c0.42,0,0.833-0.003,1.244-0.003c1.396,0,2.711-0.006,4.053-0.056c0.695-0.023,1.384-0.115,2.054-0.207
					c0.27-0.036,0.547-0.072,0.814-0.105c0.294-0.033,0.583-0.076,0.872-0.122c0.597-0.089,1.155-0.171,1.708-0.171
					c0.188-0.006,0.371,0,0.554,0c1.149,0.01,2.343,0.026,3.567-0.587c0.32-0.157,0.811-0.146,1.331-0.138
					c0.297,0.006,0.604,0.013,0.909-0.018c0.92-0.074,1.838-0.22,2.728-0.36c1.58-0.247,3.073-0.489,4.61-0.368h0.027
					c0.271,0.022,0.545,0.039,0.818,0.056c0.54,0.026,1.082,0.06,1.613,0.142c1.042,0.167,1.502,0.68,1.496,1.667
					c-0.006,0.744-0.178,1.539-0.346,2.304L189.321,483.227z M157.057,504.427c0.135-1.172,0.26-2.281,0.419-3.381
					c0.036-0.267,0.089-0.434,0.647-0.492c3.198-0.335,6.191-0.384,9.146-0.151l0.526,0.042c3.811,0.302,6.739,0.164,9.504-0.453
					c1.458-0.325,2.998-0.479,4.484-0.637c0.731-0.069,1.461-0.146,2.184-0.236c0.613-0.082,1.077,0.046,1.496,0.424l-0.859,4.428
					c-0.385,0.033-0.761,0.072-1.129,0.104c-1.101,0.103-2.143,0.2-3.178,0.253c-4.145,0.22-8.205,0.434-12.305,0.57
					c-0.95,0.033-1.923,0.007-2.868-0.02c-0.813-0.026-1.66-0.056-2.494-0.04c-1.018,0.017-1.968,0.147-2.816,0.384
					c-0.632,0.174-1.255,0.151-1.779,0.115c-0.232-0.018-0.463-0.046-0.701-0.072c-0.121-0.01-0.246-0.025-0.368-0.036
					C156.996,504.96,157.029,504.69,157.057,504.427z"/>
				<path fill="#FFFFFF" d="M135.522,489.654c-1.65-0.394-2.973-0.784-4.152-1.236c-1.166-0.443-2.015-0.285-2.791,0.46
					c-0.729,0.701-1.631,0.998-3.016,1.011c-1.943,0.01-3.891,0.095-5.777,0.246c-0.662,0.056-1.314,0.174-1.949,0.286
					c-0.667,0.122-1.295,0.239-1.932,0.281c-1.673,0.115-3.381,0.161-5.035,0.21c-0.641,0.023-1.28,0.04-1.92,0.06
					c-0.465,0.017-0.932,0.029-1.41,0.04h-0.156c-0.022-0.142-0.043-0.259-0.041-0.358c0.004-2.027-0.902-3.259-2.768-3.777
					c-0.893-0.257-1.742-0.65-2.646-1.07c-0.34-0.158-0.674-0.318-1.018-0.47c-1.633-0.72-2.996-0.528-4.479,0.57l-0.363,0.276
					l0.138,0.433c0.084,0.27,0.148,0.552,0.211,0.831c0.165,0.729,0.334,1.475,0.84,2.025c0.541,0.594,0.771,1.162,0.783,1.969
					c0.013,0.995-0.012,2.065-0.071,3.354c-0.087,1.841-0.312,3.709-0.53,5.518c-0.291,2.396-0.588,4.877-0.582,7.365
					c0.005,2.229-0.2,4.513-0.396,6.715c-0.101,1.086-0.196,2.169-0.271,3.256c-0.044,0.681-0.097,1.379-0.013,2.084
					c0.153,1.29,0.89,2.078,2.021,2.167c0.318,0.026,0.674-0.007,1.051-0.093c0.158-0.039,0.318-0.092,0.479-0.146
					c0.194-0.068,0.4-0.139,0.527-0.128c3.06,0.184,5.855-0.784,8.423-1.864c1.911-0.798,3.877-1.105,6.065-1.397
					c1.016-0.135,2.066-0.22,3.08-0.305c0.622-0.056,1.238-0.105,1.859-0.164c0.352-0.036,0.702-0.092,1.051-0.151
					c0.584-0.092,1.132-0.184,1.666-0.161c0.111,0,0.219,0.004,0.314,0.011c0.35,0.033,0.437,0.082,0.437,0.082
					c0.042,0.059,0.077,0.259,0.04,0.896c-0.146,2.498,0.162,2.98,2.492,3.945c0.123,0.056,0.248,0.104,0.373,0.146
					c2.291,0.791,5.682-0.499,6.033-3.363c0.061-0.467,0.145-0.919,0.234-1.404c0.096-0.506,0.197-1.038,0.256-1.566
					c0.322-2.74,1.109-5.441,1.868-8.051c0.304-1.041,0.607-2.071,0.883-3.118c0.313-1.178,0.766-2.291,1.243-3.466
					c0.627-1.54,1.274-3.131,1.57-4.864c0.038-0.229,0.081-0.456,0.125-0.683c0.152-0.821,0.312-1.674,0.305-2.563
					C138.552,491.075,137.867,490.209,135.522,489.654z M105.584,509.135c0.05-0.814,0.096-1.592,0.176-2.37
					c0.314-2.947,0.761-6.438,1.65-9.936c0.061-0.232,0.098-0.485,0.135-0.738c0.039-0.275,0.113-0.788,0.219-0.879
					c0.146-0.122,0.694-0.105,1.058-0.093c0.212,0.003,0.421,0.011,0.613,0.003c0.806-0.025,1.612-0.05,2.421-0.068
					c1.221-0.026,2.441-0.06,3.666-0.115c0.619-0.03,1.232-0.112,1.826-0.194c0.407-0.052,0.813-0.107,1.222-0.145
					c0.665-0.06,1.325-0.125,1.991-0.185c2.139-0.206,4.354-0.409,6.527-0.542c0.236-0.01,0.438-0.01,0.602,0
					c0.256,0.023,0.428,0.076,0.493,0.151c0.062,0.082,0.154,0.341,0.032,1.162c-0.269,1.835-0.657,3.692-1.032,5.491l-0.276,1.339
					c-0.468,2.262-0.957,4.521-1.451,6.771l-0.16,0.755c-0.066,0.302-0.153,0.594-0.242,0.89c-0.045,0.15-0.088,0.305-0.131,0.456
					c-0.379,1.349-1.489,2.137-2.975,2.11c-1.416-0.026-2.771,0.217-4.082,0.453c-1.158,0.21-2.252,0.402-3.373,0.427
					c-0.94,0.02-1.85,0.192-2.723,0.36c-1.088,0.211-2.113,0.407-3.182,0.318l-0.064-0.003c-0.777-0.062-1.529,0.164-2.256,0.381
					c-0.361,0.108-0.699,0.21-1.031,0.275c-0.166,0.033-0.354,0.05-0.568,0.061C105.346,513.169,105.469,511.12,105.584,509.135z"/>
				<path fill="#FFFFFF" d="M214.291,512.909c-0.34-1.33-0.836-2.626-1.313-3.876c-0.155-0.41-0.313-0.821-0.469-1.231
					c-0.494-1.339-1.299-2.149-2.465-2.475c-0.387-0.111-0.773-0.253-1.178-0.41c-0.74-0.276-1.506-0.562-2.322-0.638l-0.24-0.02
					c-2.651-0.207-5.21,0.069-5.916,3.476l-0.084,0.404l0.338,0.243c0.203,0.148,0.416,0.282,0.627,0.41
					c0.383,0.232,0.746,0.46,0.953,0.729c1.414,1.825,2.418,3.879,2.994,6.099c0.441,1.71,0.791,2.18,2.575,2.472l0.093,0.016
					c0.258,0.043,0.527,0.085,0.678,0.178c0.475,0.292,1.01,0.467,1.582,0.509c0.773,0.06,1.518-0.108,2.198-0.299
					c0.818-0.227,1.863-1.09,2.052-1.97C214.635,515.414,214.598,514.096,214.291,512.909z"/>
			</g>
		</g>
		<path fill="#FFFFFF" d="M186.885,607.645v11.921c0,0.15-0.481,0.468-1.447,0.951c-0.966,0.486-2.421,0.935-4.365,1.346
			c-1.948,0.408-4.313,0.611-7.101,0.611c-3.659-0.078-6.552-0.756-8.673-2.021c-2.12-1.272-3.62-3.184-4.496-5.729
			c-0.88-2.549-1.316-5.902-1.316-10.063c0.092-3.349,0.602-6.163,1.523-8.447c0.925-2.278,2.395-4.031,4.402-5.259
			c2.011-1.222,4.648-1.857,7.921-1.903c3.104,0,5.815,0.184,8.126,0.564c2.312,0.373,3.503,0.655,3.571,0.854l1.28,5.323
			c0-0.039-0.382-0.27-1.145-0.695c-0.832-0.46-1.923-0.873-3.275-1.24c-1.351-0.36-2.996-0.545-4.938-0.545
			c-0.9,0-1.611,0.025-2.131,0.072c-4.738,0.302-7.107,4.057-7.107,11.276c0,2.502,0.111,4.682,0.33,6.545
			c0.22,1.864,0.738,3.473,1.561,4.823c0.82,1.354,2.04,2.115,3.655,2.271c1.978,0,3.463-0.176,4.454-0.537
			c0.994-0.354,1.613-0.65,1.854-0.881v-9.236L186.885,607.645L186.885,607.645z"/>
		<path fill="#FFFFFF" d="M204.339,622.2v-2.476c-0.186,0.426-0.807,0.957-1.863,1.594c-1.059,0.632-2.853,0.953-5.381,0.953
			c-2.162-0.08-3.959-0.639-5.392-1.668c-1.433-1.022-2.166-2.652-2.2-4.872c0-2.377,0.852-4.162,2.557-5.35
			c1.703-1.195,4.262-1.916,7.668-2.166c1.571-0.131,2.782-0.531,3.633-1.209c0.85-0.676,1.271-1.43,1.271-2.277
			c0-0.854-0.389-1.588-1.168-2.199c-0.781-0.616-1.836-0.918-3.164-0.918c-2.738,0-4.866,0.504-6.387,1.517
			c-1.521,1.012-2.516,1.856-2.989,2.541l0.987-4.7c0-0.078,0.361-0.328,1.084-0.742c0.722-0.42,1.729-0.807,3.021-1.175
			c1.294-0.36,2.836-0.551,4.631-0.558c3.648,0,6.288,0.616,7.92,1.856c1.627,1.247,2.441,2.868,2.441,4.884v16.963h-6.67V622.2z
			 M201.081,618.51c2.17-0.592,3.258-1.537,3.258-2.842v-5.392c-0.012,0.033-0.094,0.197-0.244,0.492
			c-0.148,0.295-0.49,0.584-1.021,0.873c-0.532,0.289-1.343,0.5-2.427,0.625c-1.851,0.256-3.261,0.668-4.229,1.24
			c-0.972,0.57-1.456,1.555-1.456,2.938c0.15,1.604,1.436,2.41,3.848,2.41C199.538,618.858,200.294,618.739,201.081,618.51z"/>
		<path fill="#FFFFFF" d="M241.114,607.645v11.921c0,0.15-0.482,0.468-1.447,0.951c-0.965,0.486-2.42,0.935-4.367,1.346
			c-1.947,0.408-4.312,0.611-7.098,0.611c-3.661-0.078-6.553-0.756-8.673-2.021c-2.12-1.272-3.62-3.184-4.497-5.729
			c-0.879-2.549-1.317-5.902-1.317-10.063c0.092-3.349,0.603-6.163,1.524-8.447c0.924-2.278,2.393-4.031,4.401-5.259
			c2.013-1.222,4.649-1.857,7.921-1.903c3.105,0,5.814,0.184,8.127,0.564c2.311,0.373,3.503,0.655,3.57,0.854l1.281,5.323
			c0-0.039-0.381-0.27-1.146-0.695c-0.832-0.46-1.923-0.873-3.273-1.24c-1.352-0.36-2.996-0.545-4.938-0.545
			c-0.899,0-1.609,0.025-2.133,0.072c-4.737,0.302-7.104,4.057-7.104,11.276c0,2.502,0.108,4.682,0.329,6.545
			c0.22,1.864,0.737,3.473,1.56,4.823c0.819,1.354,2.041,2.115,3.656,2.271c1.977,0,3.461-0.176,4.454-0.537
			c0.994-0.354,1.612-0.65,1.854-0.881v-9.236L241.114,607.645L241.114,607.645z"/>
		<path fill="#FFFFFF" d="M258.565,622.2v-2.476c-0.187,0.426-0.807,0.957-1.861,1.594c-1.059,0.632-2.854,0.953-5.382,0.953
			c-2.161-0.08-3.958-0.639-5.392-1.668c-1.434-1.022-2.166-2.652-2.2-4.872c0-2.377,0.853-4.162,2.558-5.35
			c1.703-1.195,4.26-1.916,7.668-2.166c1.57-0.131,2.781-0.531,3.631-1.209c0.852-0.676,1.273-1.43,1.273-2.277
			c0-0.854-0.391-1.588-1.169-2.199c-0.781-0.616-1.835-0.918-3.164-0.918c-2.737,0-4.866,0.504-6.386,1.517
			c-1.521,1.012-2.518,1.856-2.99,2.541l0.988-4.7c0-0.078,0.359-0.328,1.083-0.742c0.722-0.42,1.729-0.807,3.022-1.175
			c1.293-0.36,2.836-0.551,4.629-0.558c3.648,0,6.289,0.616,7.921,1.856c1.627,1.247,2.442,2.868,2.442,4.884v16.963h-6.672V622.2z
			 M255.306,618.51c2.173-0.592,3.259-1.537,3.259-2.842v-5.392c-0.013,0.033-0.095,0.197-0.242,0.492
			c-0.15,0.295-0.49,0.584-1.022,0.873c-0.531,0.289-1.341,0.5-2.425,0.625c-1.85,0.256-3.26,0.668-4.229,1.24
			c-0.972,0.57-1.454,1.555-1.454,2.938c0.147,1.604,1.433,2.41,3.847,2.41C253.764,618.858,254.522,618.739,255.306,618.51z"/>
		<path fill="#FFFFFF" d="M293.209,622.2h-7.521v-33.086h22.514v4.13H293.21v9.648h12.496v4.109H293.21L293.209,622.2L293.209,622.2
			z"/>
		<path fill="#FFFFFF" d="M323.817,622.2v-2.476c-0.188,0.426-0.809,0.957-1.863,1.594c-1.059,0.632-2.854,0.953-5.38,0.953
			c-2.162-0.08-3.959-0.639-5.394-1.668c-1.433-1.022-2.167-2.652-2.198-4.872c0-2.377,0.852-4.162,2.557-5.35
			c1.703-1.195,4.26-1.916,7.667-2.166c1.572-0.131,2.783-0.531,3.631-1.209c0.85-0.676,1.273-1.43,1.273-2.277
			c0-0.854-0.391-1.588-1.168-2.199c-0.781-0.616-1.836-0.918-3.164-0.918c-2.738,0-4.867,0.504-6.386,1.517
			c-1.521,1.012-2.518,1.856-2.99,2.541l0.988-4.7c0-0.078,0.359-0.328,1.084-0.742c0.722-0.42,1.729-0.807,3.021-1.175
			c1.294-0.36,2.836-0.551,4.628-0.558c3.65,0,6.291,0.616,7.92,1.856c1.629,1.247,2.443,2.868,2.443,4.884v16.963h-6.67V622.2z
			 M320.557,618.51c2.172-0.592,3.258-1.537,3.258-2.842v-5.392c-0.012,0.033-0.094,0.197-0.242,0.492
			c-0.15,0.295-0.49,0.584-1.021,0.873s-1.342,0.5-2.426,0.625c-1.849,0.256-3.259,0.668-4.228,1.24
			c-0.973,0.57-1.457,1.555-1.457,2.938c0.15,1.604,1.436,2.41,3.85,2.41C319.014,618.858,319.772,618.739,320.557,618.51z"/>
		<path fill="#FFFFFF" d="M333.26,622.2v-23.641h6.674v2.914c0.021-0.024,0.158-0.188,0.406-0.498
			c0.248-0.302,0.621-0.624,1.117-0.958c0.498-0.335,1.174-0.649,2.029-0.952c0.91-0.381,2.07-0.57,3.48-0.57
			c1.086,0,1.77,0.046,2.045,0.138l0.572,3.412c-0.809-0.195-1.566-0.295-2.271-0.295c-1.537,0-2.812,0.289-3.828,0.867
			c-1.146,0.563-2.023,1.34-2.637,2.323c-0.611,0.978-0.918,1.883-0.918,2.703V622.2H333.26L333.26,622.2z"/>
		<path fill="#FFFFFF" d="M351.422,622.2v-23.641h6.674v1.924c1.375-1.372,3.482-2.062,6.326-2.062c2.01,0,3.422,0.361,4.236,1.09
			c0.812,0.729,1.291,1.339,1.43,1.825c0.012-0.027,0.244-0.289,0.703-0.781c0.455-0.499,1.129-0.952,2.018-1.359
			c0.893-0.412,2.021-0.648,3.398-0.701c2.529,0,4.426,0.578,5.691,1.731c1.266,1.155,1.896,2.651,1.896,4.503v17.469h-5.113
			v-16.896c0-2.127-1.273-3.191-3.83-3.191c-1.34,0.093-2.295,0.578-2.867,1.457c-0.57,0.882-0.916,1.603-1.029,2.166v16.464h-5.113
			v-16.894c0-0.914-0.312-1.676-0.938-2.279c-0.625-0.603-1.594-0.911-2.91-0.911c-1.41,0.145-2.393,0.67-2.945,1.588
			c-0.555,0.92-0.873,1.668-0.953,2.246v16.254h-6.674V622.2z"/>
		<path fill="#FFFFFF" d="M390.332,589.05c1.178,0,2.098,0.368,2.762,1.109c0.666,0.734,0.998,1.62,0.998,2.651
			c0,1.05-0.34,1.949-1.016,2.704c-0.674,0.748-1.615,1.123-2.816,1.123c-1.154,0-2.072-0.381-2.754-1.136s-1.021-1.628-1.021-2.626
			c0-1.019,0.342-1.91,1.021-2.68C388.188,589.43,389.129,589.05,390.332,589.05z M386.985,622.2v-23.641h6.604V622.2H386.985
			L386.985,622.2z"/>
		<path fill="#FFFFFF" d="M416.951,604.022V622.2h-4.975v-17.312c0-1.99-1.516-2.979-4.541-2.979
			c-1.479,0.17-2.537,0.631-3.182,1.379c-0.643,0.741-1.025,1.346-1.152,1.805v17.105h-6.672v-23.639h6.672v1.924
			c0.094-0.06,0.408-0.263,0.943-0.624c0.539-0.354,1.301-0.688,2.289-0.983c0.986-0.303,2.135-0.453,3.441-0.453
			c2.459,0,4.27,0.563,5.432,1.688C416.371,601.239,416.951,602.546,416.951,604.022z"/>
		<path fill="#FFFFFF" d="M429.012,627.452c3.652,0,5.479-1.084,5.479-3.259v-3.051c-1.688,0.847-3.75,1.267-6.188,1.267
			c-1.777-0.072-3.295-0.361-4.549-0.873c-1.254-0.519-2.322-1.66-3.207-3.436c-0.883-1.771-1.326-4.385-1.326-7.824
			c0.096-3.557,0.66-6.209,1.699-7.948c1.041-1.732,2.215-2.822,3.527-3.255c1.311-0.435,2.811-0.65,4.498-0.65
			c0.936,0.046,1.793,0.203,2.57,0.466c0.779,0.271,1.479,0.564,2.092,0.887c0.588,0.31,0.883,0.474,0.883,0.485v-1.7h6.604v24.558
			c0,4.799-3.527,7.254-10.59,7.385c-2.531,0-4.619-0.217-6.264-0.644c-1.648-0.426-2.588-0.756-2.816-0.983l-0.504-3.693
			c0.521,0.348,1.508,0.793,2.963,1.338C425.34,627.057,427.049,627.372,429.012,627.452z M434.49,603.602
			c0-0.125-0.398-0.434-1.197-0.926c-0.795-0.492-1.695-0.82-2.703-0.998c-1.5,0-2.693,0.309-3.578,0.934
			c-0.883,0.615-1.514,1.55-1.889,2.804c-0.377,1.254-0.594,2.92-0.65,5.002c0,2.809,0.41,5.002,1.23,6.576
			c0.818,1.575,2.375,2.362,4.662,2.362c1.213-0.078,2.154-0.274,2.822-0.596c0.67-0.316,1.105-0.564,1.303-0.756V603.602
			L434.49,603.602z"/>
	</g>
</g>
</svg>
