<?xml version="1.0" encoding="utf-8"?>
<!-- Generator: Adobe Illustrator 16.0.0, SVG Export Plug-In . SVG Version: 6.00 Build 0)  -->
<!DOCTYPE svg PUBLIC "-//W3C//DTD SVG 1.1//EN" "http://www.w3.org/Graphics/SVG/1.1/DTD/svg11.dtd">
<svg version="1.1" id="Layer_1" xmlns="http://www.w3.org/2000/svg" xmlns:xlink="http://www.w3.org/1999/xlink" x="0px" y="0px"
	 width="595.279px" height="841.89px" viewBox="0 0 595.279 841.89" enable-background="new 0 0 595.279 841.89"
	 xml:space="preserve">
<g>
	<path fill="#FFFFFF" stroke="#FFFFFF" stroke-width="3" stroke-miterlimit="10" d="M35.651,243.541c0,0.898-0.698,3.047-2.097,6.44
		c-2.997,7.391-5.792,18.421-8.388,33.1c-3.894,21.568-5.841,34.298-5.841,38.193c0,1.198,0.148,3.444,0.45,6.739
		c0.299,3.198,0.448,5.542,0.448,7.04c0,3.794-1.399,5.691-4.193,5.691c-1.599,0-3.047-0.549-4.343-1.647
		c-1.199-1.101-1.799-2.449-1.799-4.044c0-2.599,0.397-6.74,1.198-12.432c0.799-5.092,3.243-19.171,7.339-42.236
		c2.794-15.974,5.692-27.758,8.688-35.347c1.198-3.195,2.696-4.793,4.493-4.793c0.898,0,1.798,0.352,2.695,1.048
		C35.201,241.993,35.651,242.741,35.651,243.541z"/>
	<path fill="#FFFFFF" stroke="#FFFFFF" stroke-width="3" stroke-miterlimit="10" d="M107.393,296.561
		c0,7.091-4.193,15.826-12.581,26.21c-4.293,5.192-9.338,9.486-15.127,12.88c-5.894,3.393-11.482,5.093-16.775,5.093
		c-8.986,0-13.479-6.59-13.479-19.77c0-11.982,5.292-24.014,15.876-36.096c6.987-7.886,12.183-11.833,15.576-11.833
		c2.098,0,4.591,0.801,7.489,2.396c2.793,1.7,4.193,3.146,4.193,4.344c0,2.396-0.899,3.595-2.696,3.595
		c-1.101,0-2.396-0.599-3.896-1.797c-1.698-1.099-2.896-1.647-3.595-1.647c-2.298,0-6.191,3.544-11.682,10.634
		c-5.093,6.59-8.439,11.734-10.035,15.427c-2.097,4.493-3.146,9.885-3.146,16.176c0,7.091,2.494,10.634,7.489,10.634
		c8.187,0,16.423-5.092,24.713-15.277c6.59-8.088,9.886-14.877,9.886-20.37c0-3.594-1.55-5.392-4.644-5.392
		c-2.396,0-3.594-1.096-3.594-3.295c0-1.099,0.499-2.097,1.498-2.996c0.996-0.996,2.096-1.498,3.294-1.498
		c2.794,0,5.34,1.298,7.639,3.894C106.195,290.569,107.393,293.467,107.393,296.561z"/>
	<path fill="#FFFFFF" stroke="#FFFFFF" stroke-width="3" stroke-miterlimit="10" d="M189.619,333.105
		c0,3.295-1.748,4.943-5.242,4.943c-1.298,0-3.197-0.85-5.69-2.547c-3.596-2.497-5.444-3.796-5.542-3.894
		c-17.175-9.084-30.805-14.378-40.89-15.876c-0.299,4.293-0.849,10.435-1.646,18.422c-0.502,4.394-2.149,6.59-4.943,6.59
		c-2.996,0-4.493-1.55-4.493-4.643c0-1.897,0.847-7.188,2.546-15.876c1.296-7.189,3.495-18.921,6.59-35.197
		c1.798-9.586,4.544-22.714,8.238-39.391c0.898-3.594,2.494-5.392,4.792-5.392c2.598,0,3.896,1.648,3.896,4.942
		c0-0.097-1.298,5.242-3.896,16.026c-2.694,10.883-5.491,24.513-8.387,40.888c10.983-12.38,20.718-22.167,29.206-29.355
		c7.188-5.991,11.33-8.987,12.432-8.987c3.494,0,5.241,1.348,5.241,4.043c0,3.396-2.196,5.444-6.59,6.141
		c-7.289,5.294-19.321,16.677-36.095,34.148c13.679,4.593,26.409,10.087,38.191,16.476c1.997,0.599,4.892,1.747,8.688,3.444
		C188.421,329.413,189.619,331.108,189.619,333.105z"/>
	<path fill="#FFFFFF" stroke="#FFFFFF" stroke-width="3" stroke-miterlimit="10" d="M259.864,336.101
		c0,3.093-1.748,4.643-5.243,4.643c-4.493,0-8.187-1.747-11.083-5.242c-2.897-3.497-4.344-7.586-4.344-12.282
		c0-0.996,0.098-2.344,0.299-4.043c-3.496,4.396-7.938,8.44-13.329,12.132c-5.594,3.794-10.185,5.691-13.78,5.691
		c-4.095,0-7.391-1.448-9.884-4.344c-2.497-2.896-3.745-6.34-3.745-10.334c0-10.984,4.591-21.965,13.78-32.951
		c8.886-10.881,17.374-16.326,25.461-16.326c4.891,0,9.084,1.7,12.581,5.093c3.094,2.897,4.643,5.743,4.643,8.537
		c0,1.897-0.249,3.396-0.749,4.494c1.596,0.999,2.396,2.347,2.396,4.044c0,1.4-1.148,3.796-3.445,7.189
		c-4.193,5.894-6.291,13.532-6.291,22.916c0,2.996,1.648,5.342,4.943,7.04c1.198-0.501,2.396-0.749,3.595-0.749
		C258.464,331.607,259.864,333.105,259.864,336.101z M249.08,293.265c0-3.692-0.999-6.789-2.996-9.286
		c-1.896-2.494-4.493-3.744-7.788-3.744c-6.493,0-13.532,4.994-21.118,14.977c-7.391,9.488-11.083,17.875-11.083,25.162
		c0,6.193,2.397,9.286,7.189,9.286c3.195,0,8.138-2.845,14.828-8.537c5.592-4.993,10.384-10.085,14.378-15.277
		C243.588,303.053,245.785,298.858,249.08,293.265z"/>
	<path fill="#FFFFFF" stroke="#FFFFFF" stroke-width="3" stroke-miterlimit="10" d="M348.38,335.651
		c0,1.099-0.449,2.195-1.348,3.295c-0.998,1.198-2.047,1.797-3.146,1.797c-4.592,0-7.938-0.898-10.035-2.695
		c-2.195-1.7-3.645-5.145-4.342-10.335c-0.301-2.194-0.451-5.392-0.451-9.585c0-2.996,0.299-7.639,0.898-13.929
		c0.5-6.491,0.748-10.834,0.748-13.031c0-3.495-1.598-5.242-4.791-5.242c-6.092,0-12.184,2.696-18.273,8.088
		c-3.795,3.394-9.336,9.734-16.625,19.021c-3.294,4.293-6.289,10.434-8.985,18.422c-0.801,2.296-2.496,3.445-5.092,3.445
		c-1.102,0-2.197-0.651-3.295-1.947c-1.102-1.101-1.648-2.097-1.648-2.995c0-1.199,1.648-4.543,4.943-10.035
		c1.596-2.596,4.291-11.833,8.087-27.708c1.998-8.687,3.843-18.322,5.542-28.906c0.696-4.891,1.146-10.035,1.348-15.427
		c0.2-5.093,1.596-7.639,4.193-7.639c3.594,0,5.393,1.85,5.393,5.542c0,2.795-1,8.787-2.996,17.973
		c-1.499,8.387-4.096,20.871-7.789,37.443c5.392-6.291,11.232-11.682,17.523-16.175c6.988-4.89,12.93-7.339,17.824-7.339
		c8.484,0,12.73,4.893,12.73,14.678c0,1.598-0.301,4.942-0.9,10.035c-0.598,5.093-0.898,8.387-0.898,9.886
		c0,8.289,0.697,14.377,2.098,18.272c2.396-0.397,3.691-0.599,3.896-0.599C346.583,329.96,348.38,331.855,348.38,335.651z"/>
	<path fill="none" stroke="#FFFFFF" stroke-width="2" stroke-miterlimit="10" d="M428.827,315.582
		c0,8.188-8.588,15.628-25.76,22.317c-4.594,1.895-8.688,2.845-12.283,2.845c-2.992,0-4.49-1.647-4.49-4.942
		c0-2.898,1.35-4.343,4.045-4.343c0.299,0,1.744,0.299,4.342,0.898c7.588-2.097,14.229-4.992,19.922-8.687
		c3.793-2.494,5.689-5.041,5.689-7.639c0-1.296-2.301-2.396-6.891-3.295c-3.895-0.799-9.486-1.446-16.771-1.947
		c-5.193-0.397-8.838-0.949-10.938-1.647c-3.994-1.596-5.99-4.394-5.99-8.388c0-3.393,2.996-7.886,8.986-13.479
		c4.193-3.894,9.037-7.489,14.527-10.784c3.496-2.296,6.941-3.445,10.336-3.445c2.193,0,3.992,0.75,5.391,2.247
		c1.5,1.7,2.246,3.497,2.246,5.392c0,2.197-1.1,3.295-3.293,3.295c-0.896,0-1.748-0.649-2.547-1.947
		c-0.801-1.098-1.498-1.647-2.098-1.647c-2.795,0-7.738,2.897-14.828,8.687c-7.09,5.691-10.633,9.536-10.633,11.533
		c0,1.498,3.195,2.396,9.584,2.696c5.693,0.299,12.133,1.1,19.322,2.396c3.094,0.599,5.891,1.947,8.387,4.044
		C427.581,311.638,428.827,313.585,428.827,315.582z"/>
	<path fill="none" stroke="#FFFFFF" stroke-width="2" stroke-miterlimit="10" d="M503.116,276.64c0,1.498-0.447,3.695-1.348,6.59
		c-2.6,9.188-4.344,16.625-5.242,22.316c-1.102,6.29-1.646,13.382-1.646,21.268c0,0.998,0.547,2.546,1.646,4.643
		c0.996,2.097,1.498,3.644,1.498,4.643c0,1.198-0.502,2.247-1.498,3.146c-1.102,0.996-2.299,1.498-3.594,1.498
		c-3.695,0-5.543-6.54-5.543-19.62c0-0.799,0.051-1.896,0.15-3.295c-11.084,15.276-22.221,22.915-33.4,22.915
		c-8.688,0-13.029-5.841-13.029-17.524c0-9.885,0.748-20.617,2.246-32.201c0.398-3.195,1.197-6.191,2.396-8.987
		c1.498-3.894,3.295-5.841,5.393-5.841c1.295,0,2.396,0.651,3.293,1.947c0.9,1.4,1.352,2.696,1.352,3.894
		c0,1.498-0.951,2.846-2.848,4.044c-1.498,3.295-2.6,8.889-3.295,16.774c-0.299,3.595-0.451,10.237-0.451,19.92
		c0,6.291,2.197,9.436,6.594,9.436c4.691,0,10.279-3.045,16.773-9.136c5.592-5.392,11.133-12.379,16.625-20.968
		c0.498-4.891,1.896-11.233,4.191-19.021c2.098-6.688,4.045-10.035,5.842-10.035C501.818,273.045,503.116,274.244,503.116,276.64z"
		/>
	<path fill="#FFFFFF" stroke="#FFFFFF" stroke-width="3" stroke-miterlimit="10" d="M585.386,268.832
		c0,8.586-5.1,16.817-15.295,24.686c-4.475,3.489-6.709,8.184-6.709,14.087c0,2.952-1.252,4.428-3.754,4.428
		c-2.775,0-4.16-1.698-4.16-5.098c0-3.04,0.805-6.351,2.414-9.928c1.877-4.293,4.473-7.6,7.781-9.928
		c3.309-2.325,6.125-5.454,8.453-9.391c2.234-3.576,3.355-6.485,3.355-8.72c0-2.147-1.209-4.293-3.625-6.44
		c-2.863-2.684-6.752-4.024-11.672-4.024c-7.066,0-12.701,3.041-16.902,9.123c-0.807,1.163-1.434,1.967-1.881,2.414
		c-0.803,1.073-1.609,1.611-2.412,1.611c-2.506,0.089-3.758-1.074-3.758-3.489c0-1.251,0.537-2.862,1.609-4.829
		c4.918-8.406,12.699-12.612,23.344-12.612c6.709,0,12.256,1.791,16.637,5.367C583.193,259.663,585.386,263.915,585.386,268.832z
		 M565.661,333.768c0,1.878-0.67,3.488-2.012,4.83c-1.432,1.428-3.041,2.146-4.83,2.146c-1.877,0-3.49-0.718-4.83-2.146
		c-1.254-1.342-1.877-2.952-1.877-4.83c0-1.789,0.623-3.308,1.877-4.562c1.34-1.342,2.953-2.013,4.83-2.013
		c1.879,0,3.488,0.671,4.83,2.013C564.991,330.46,565.661,331.978,565.661,333.768z"/>
</g>
<text transform="matrix(1 0 0 1 129.8679 414.7031)" fill="#FFFFFF" font-family="'NotoSansHant-Light-B5pc-H'" font-size="22">現在你會用泰雅語說 「 你好嗎 」 了</text>
<path fill="none" stroke="#FFFFFF" stroke-width="2" stroke-miterlimit="10" d="M367.745,483.394
	c-0.19-0.622-0.374-1.246-0.594-1.859c-0.083-0.229-0.296-0.369-0.561-0.385c-0.214-0.012-0.428-0.024-0.672-0.039
	c-0.418-0.773-0.685-1.611-1.238-2.346c-0.261-0.013-0.543-0.057-0.819-0.031c-0.804,0.074-1.592,0.225-2.294,0.662
	c-0.055,0.033-0.121,0.052-0.176,0.084c-0.291,0.174-0.604,0.22-0.939,0.201c-0.455-0.027-0.914-0.013-1.368-0.049
	c-0.365-0.03-0.69,0.015-0.968,0.271c-0.048,0.044-0.106,0.076-0.159,0.114c-0.396,0.285-0.794,0.299-1.209,0.028
	c-0.251-0.164-0.486-0.359-0.788-0.458c-0.122,0.111-0.246,0.204-0.342,0.318c-0.223,0.264-0.493,0.416-0.84,0.435
	c-0.038,0.003-0.074,0.043-0.104,0.062c-0.124,0.157-0.244,0.309-0.357,0.454c-0.303,0.025-0.582,0.05-0.87,0.074
	c-0.058,0.135-0.116,0.25-0.157,0.371c-0.083,0.246-0.152,0.499-0.235,0.746c-0.034,0.1-0.067,0.225-0.144,0.281
	c-0.329,0.245-0.647,0.523-1.079,0.572c-0.955,0.106-1.865,0.033-2.612-0.677c-0.109-0.104-0.231-0.197-0.354-0.288
	c-0.149-0.111-0.235-0.262-0.247-0.441c-0.033-0.484-0.207-0.931-0.366-1.381c-0.109-0.309-0.158-0.58,0.125-0.826
	c0.077-0.066,0.109-0.184,0.179-0.309c-0.327-0.578-0.654-1.159-0.959-1.697c-0.108-0.031-0.15-0.055-0.19-0.055
	c-0.609,0.012-1.15-0.146-1.614-0.565c-0.139-0.125-0.343-0.18-0.525-0.245c-0.098-0.036-0.22-0.061-0.317-0.035
	c-0.528,0.138-1.032,0.048-1.53-0.13c-0.059-0.022-0.128-0.013-0.188-0.016c-0.062,0.038-0.122,0.067-0.17,0.109
	c-0.322,0.289-0.619,0.617-1.125,0.546c-0.087-0.012-0.192,0.086-0.288,0.136c-0.112,0.059-0.222,0.123-0.304,0.166
	c-0.306-0.063-0.44-0.251-0.552-0.475c-0.252-0.505-0.508-1.008-0.771-1.508c-0.067-0.131-0.163-0.245-0.253-0.376
	c-0.284,0.043-0.54,0.089-0.798,0.114c-0.103,0.012-0.239,0.017-0.311-0.039c-0.257-0.202-0.511-0.431-0.501-0.795
	c0.024-0.909-0.033-1.829,0.295-2.706c0.139-0.371,0.183-0.754,0.175-1.151c-0.013-0.65-0.038-1.305,0.139-1.944
	c0.034-0.123,0.035-0.259,0.034-0.389c-0.006-0.652-0.023-1.304-0.023-1.957c0-0.208-0.059-0.377-0.201-0.529
	c-0.252-0.269-0.515-0.532-0.738-0.826c-0.336-0.438-0.768-0.687-1.353-0.783c-0.208,0.17-0.472,0.336-0.671,0.559
	c-0.469,0.529-1.059,0.896-1.624,1.3c-0.281,0.202-0.565,0.296-0.913,0.23c-0.213-0.039-0.437-0.007-0.651-0.04
	c-0.804-0.129-1.55-0.016-2.223,0.474c-0.224,0.165-0.482,0.172-0.748,0.139c-0.281-0.035-0.564-0.047-0.843-0.087
	c-0.385-0.053-0.731,0.014-1.048,0.249c-0.287,0.216-0.617,0.308-0.979,0.278c-0.107-0.008-0.217,0.011-0.326,0.007
	c-0.442-0.015-0.865,0.04-1.242,0.301c-0.199,0.139-0.404,0.128-0.612,0.005c-0.112-0.064-0.234-0.113-0.349-0.177
	c-0.438-0.238-0.902-0.268-1.39-0.205c-0.267,0.413-0.523,0.812-0.787,1.222c-0.306-0.031-0.585-0.087-0.861-0.081
	c-0.302,0.007-0.602,0.068-0.87,0.102c-0.056,0.067-0.088,0.099-0.11,0.134c-0.373,0.615-0.771,1.2-1.347,1.66
	c-0.358,0.288-0.326,0.804-0.031,1.154c0.183,0.216,0.404,0.313,0.668,0.365c0.204,0.041,0.439-0.007,0.6,0.174
	c0.035,0.263-0.142,0.421-0.252,0.596c-0.617,0.998-1.26,1.981-1.862,2.987c-0.245,0.41-0.544,0.721-0.991,0.889
	c-0.121,0.045-0.229,0.122-0.356,0.191c-0.059,0.187-0.123,0.37-0.176,0.557c-0.179,0.626-0.349,1.256-0.531,1.881
	c-0.045,0.161-0.123,0.313-0.188,0.473c-0.141,0.011-0.248,0.026-0.355,0.026c-0.478-0.005-0.957,0.006-1.434-0.023
	c-0.45-0.027-0.857,0.052-1.239,0.302c-0.176,0.115-0.354,0.258-0.624,0.243c-0.318-0.302-0.595-0.653-0.695-1.116
	c-0.154-0.701-0.323-1.398-0.439-2.104c-0.083-0.504-0.362-0.846-0.729-1.181c-0.143,0.132-0.258,0.229-0.364,0.335
	c-0.508,0.506-1.072,0.885-1.832,0.825c-0.275-0.021-0.44,0.114-0.577,0.34c-0.373,0.611-0.75,1.224-1.149,1.818
	c-0.215,0.321-0.338,0.645-0.311,1.034c0.015,0.211,0.053,0.438-0.117,0.655c-0.425,0.102-0.881,0.035-1.332,0.046
	c-0.452,0.012-0.907,0.003-1.374,0.003c-0.351,0.506-0.686,0.985-1.019,1.467c-0.072,0.105-0.13,0.222-0.197,0.337
	c0.107,0.201,0.205,0.386,0.31,0.582c-0.472,0.698-0.914,1.39-1.405,2.03c-0.606,0.038-1.17,0.095-1.733,0.102
	c-0.41,0.004-0.768,0.1-1.076,0.371c-0.227,0.198-0.479,0.279-0.782,0.203c-0.305-0.076-0.604-0.064-0.875,0.126
	c-0.215,0.15-0.452,0.132-0.69,0.075c-0.401-0.099-0.8-0.2-1.203-0.291c-0.143-0.031-0.29-0.035-0.448-0.054
	c-0.079,0.19-0.161,0.345-0.207,0.509c-0.134,0.477-0.378,0.87-0.787,1.159c-0.218,0.153-0.357,0.371-0.47,0.613
	c-0.284,0.61-0.579,1.216-0.876,1.819c-0.074,0.152-0.174,0.291-0.266,0.44c-0.592-0.055-0.934,0.335-1.332,0.627
	c-0.032,0.368-0.062,0.713-0.093,1.059c-0.03,0.344,0.015,0.694-0.098,1.068c-0.338,0.116-0.682,0.247-1.031,0.355
	c-0.979,0.305-0.736,0.317-1.491-0.175c-0.418-0.271-0.916-0.169-1.187,0.242c-0.18,0.27-0.378,0.542-0.488,0.844
	c-0.126,0.343-0.361,0.466-0.678,0.518c-0.128,0.02-0.259,0.042-0.388,0.042c-0.229-0.001-0.416,0.085-0.593,0.225
	c-0.459,0.364-0.933,0.712-1.389,1.082c-0.358,0.289-0.766,0.379-1.234,0.384c-0.439-0.504-0.881-1.008-1.328-1.521
	c-0.446-0.022-0.879-0.048-1.312-0.063c-0.06-0.003-0.122,0.032-0.208,0.057c-0.028,0.118-0.064,0.242-0.085,0.366
	c-0.047,0.278-0.099,0.557-0.126,0.837c-0.026,0.267-0.177,0.43-0.386,0.568c-0.25,0.165-0.523,0.189-0.811,0.186
	c-0.387-0.007-0.775-0.001-1.193-0.001c-0.2,0.208-0.379,0.475-0.629,0.632c-0.246,0.155-0.562,0.2-0.864,0.299
	c-0.157,0.279-0.305,0.568-0.479,0.843c-0.492,0.781-0.883,1.595-0.883,2.547c0,0.253-0.154,0.382-0.383,0.464
	c-0.741,0.264-1.485,0.454-2.29,0.406c-0.743-0.042-1.336-0.333-1.801-0.891c-0.362-0.434-0.698-0.889-1.034-1.343
	c-0.161-0.216-0.35-0.378-0.595-0.49c-0.473-0.221-0.934-0.466-1.41-0.677c-0.318-0.141-0.523-0.351-0.665-0.669
	c-0.4-0.893-0.824-1.775-1.246-2.655c-0.093-0.194-0.192-0.397-0.331-0.558c-0.514-0.591-1.027-1.179-1.377-1.891
	c-0.06-0.124-0.202-0.249-0.331-0.284c-0.288-0.081-0.572-0.212-0.896-0.181c-0.367,0.335-0.735,0.669-1.079,0.979
	c-1.209-0.063-2.174-0.549-2.944-1.36c-0.135,0-0.222-0.01-0.307,0.003c-0.731,0.101-1.463,0.202-2.193,0.312
	c-0.261,0.04-0.512,0.047-0.774-0.012c-0.53-0.12-1.062-0.229-1.598-0.316c-0.299-0.049-0.523-0.173-0.705-0.416
	c-0.231-0.312-0.487-0.605-0.756-0.938c-0.242,0.073-0.404,0.136-0.572,0.171c-0.189,0.04-0.385,0.081-0.576,0.075
	c-0.675-0.015-1.348-0.057-2.02-0.072c-0.276-0.007-0.52-0.059-0.696-0.281c-0.27-0.34-0.626-0.444-1.04-0.389
	c-0.234,0.031-0.473,0.06-0.696,0.133c-0.454,0.148-0.902,0.317-1.346,0.494c-0.369,0.146-0.741,0.223-1.142,0.221
	c-0.588-0.002-0.971,0.304-1.125,0.881c-0.22,0.826-0.268,0.592,0.1,1.426c0.105,0.238,0.217,0.475,0.311,0.717
	c0.069,0.182,0.136,0.369,0.165,0.561c0.067,0.45,0.118,0.905,0.158,1.359c0.012,0.146-0.013,0.306-0.063,0.444
	c-0.153,0.419-0.152,0.853-0.162,1.287c-0.005,0.2,0.016,0.389,0.142,0.556c0.244,0.324,0.313,0.709,0.386,1.095
	c0.109,0.569-0.085,1.031-0.507,1.388c-0.565,0.476-1.159,0.916-1.738,1.375c-0.159,0.125-0.33,0.203-0.532,0.225
	c-0.416,0.045-0.795,0.202-1.172,0.376c-0.266,0.122-0.475,0.261-0.587,0.562c-0.061,0.163-0.243,0.301-0.399,0.408
	c-0.372,0.252-0.561,0.576-0.556,1.036c0.003,0.333-0.125,0.464-0.456,0.525c-0.233,0.043-0.474,0.047-0.713,0.06
	c-0.259,0.014-0.45,0.123-0.588,0.348c-0.135,0.221-0.25,0.468-0.497,0.592c-0.283,0.141-0.392,0.383-0.444,0.672
	c-0.022,0.128-0.063,0.249-0.1,0.392c-0.217,0.054-0.425,0.104-0.654,0.159c-0.1,0.151-0.205,0.312-0.314,0.475
	c-0.086,0.128-0.185,0.229-0.347,0.274c-0.384,0.108-0.535,0.421-0.604,0.773c-0.058,0.298-0.08,0.602-0.114,0.905
	c-0.054,0.479,0.043,0.906,0.422,1.24c0.044,0.04,0.06,0.111,0.076,0.143c0.005,0.298-0.232,0.43-0.349,0.634
	c-0.009,0.538,0.119,1.083-0.105,1.61c-0.073,0.17,0.002,0.34,0.163,0.457c0.157,0.112,0.31,0.229,0.46,0.342
	c0.02,0.47,0.016,0.896-0.364,1.221c-0.189,0.16-0.224,0.405-0.113,0.596c0.19,0.327,0.193,0.67,0.156,1.011
	c-0.057,0.517,0.157,0.832,0.626,1.002c0.223,0.081,0.45,0.153,0.672,0.239c0.373,0.146,0.478,0.299,0.419,0.701
	c-0.036,0.254-0.142,0.499-0.209,0.749c-0.044,0.166-0.112,0.337,0.083,0.528c0.343,0.021,0.731,0.062,1.12,0.066
	c0.407,0.006,0.768,0.139,1.104,0.347c0.101,0.064,0.209,0.181,0.232,0.291c0.128,0.604,0.184,1.207-0.233,1.742
	c-0.027,0.034-0.051,0.071-0.073,0.107c-0.261,0.462-0.22,0.798,0.176,1.15c0.189,0.167,0.318,0.352,0.375,0.611
	c-0.024,0.066-0.047,0.15-0.083,0.229c-0.178,0.382-0.449,0.643-0.895,0.642c-0.222-0.002-0.363,0.127-0.501,0.265
	c-0.142,0.142-0.303,0.159-0.48,0.104c-0.208-0.065-0.413-0.138-0.621-0.201c-0.151-0.046-0.308-0.056-0.435,0.053
	c-0.26,0.222-0.584,0.271-0.895,0.365c-0.18,0.056-0.4,0.027-0.551,0.259c0.081,0.28,0.15,0.595,0.263,0.895
	c0.094,0.248,0.065,0.46-0.057,0.684c-0.281,0.516-0.479,1.066-0.665,1.625c-0.118,0.35-0.249,0.697-0.404,1.03
	c-0.118,0.254-0.264,0.5-0.434,0.723c-0.288,0.381-0.654,0.627-1.167,0.577c-0.188-0.019-0.381,0.012-0.618,0.021
	c-0.072,0.468-0.114,0.927-0.458,1.214c0.012,0.275,0.087,0.476,0.251,0.635c0.434,0.418,0.58,0.952,0.628,1.53
	c0.013,0.164,0.058,0.326,0.086,0.479c0.271,0.067,0.469-0.04,0.677-0.086c0.656-0.149,1.308-0.36,1.972-0.415
	c0.731-0.061,1.476,0.018,2.213,0.052c0.32,0.016,0.638,0.072,0.979,0.111c0.032,0.18,0.07,0.324,0.083,0.471
	c0.034,0.39,0.062,0.78,0.085,1.17c0.021,0.368,0.044,0.738,0.047,1.107c0.003,0.377-0.235,0.561-0.594,0.456
	c-0.164-0.048-0.317-0.138-0.468-0.221c-0.173-0.092-0.333-0.206-0.506-0.295c-0.323-0.166-0.654-0.184-1.015-0.056
	c-0.097,0.382-0.045,0.752-0.052,1.116c-0.009,0.455,0.03,0.914-0.189,1.364c0.348,0.28,0.365,0.667,0.367,1.062
	c0,0.239-0.001,0.479,0.03,0.716c0.015,0.111,0.109,0.214,0.156,0.302c0.254-0.014,0.333-0.185,0.446-0.31
	c0.103-0.117,0.215-0.229,0.38-0.225c0.631,0.021,1.259,0.062,1.717,0.592c0.007,0.521-0.05,1.01-0.225,1.489
	c-0.095,0.263-0.173,0.542-0.185,0.819c-0.028,0.607-0.008,1.217-0.01,1.825c0,0.362,0.104,0.683,0.336,0.964
	c0.097,0.115,0.224,0.231,0.261,0.368c0.042,0.151-0.004,0.325-0.012,0.492c0.346,0.185,0.674,0.354,1.062,0.309
	c0.413-0.045,0.706,0.171,0.966,0.444c0.135,0.14,0.245,0.305,0.372,0.453c0.222,0.259,0.475,0.449,0.847,0.37
	c0.29-0.061,0.499,0.058,0.669,0.295c0.085,0.118,0.201,0.263,0.329,0.298c0.423,0.113,0.857,0.179,1.247-0.115
	c0.365-0.274,0.727-0.553,1.085-0.835c0.179-0.14,0.37-0.221,0.6-0.209c0.131,0.008,0.263-0.012,0.392,0.003
	c0.377,0.043,0.656-0.11,0.925-0.367c0.738-0.708,1.49-1.398,2.248-2.083c0.24-0.218,0.502-0.418,0.779-0.585
	c0.413-0.247,0.813-0.499,1.044-0.934c0.532-0.024,0.958,0.111,1.289,0.526c0.244,0.304,0.524,0.581,0.791,0.868
	c0.205,0.22,0.415,0.438,0.613,0.646c0.173-0.015,0.301-0.022,0.43-0.036c0.714-0.072,1.431-0.1,2.148-0.035
	c0.225,0.019,0.417,0.062,0.53,0.302c0.131,0.274,0.375,0.34,0.661,0.255c0.187-0.054,0.377-0.102,0.561-0.168
	c0.307-0.11,0.61-0.229,0.913-0.351c0.236-0.096,0.46-0.123,0.675,0.049c0.051,0.041,0.109,0.072,0.166,0.102
	c0.399,0.212,0.728,0.082,0.858-0.345c0.096-0.312,0.184-0.624,0.272-0.939c0.091-0.327,0.289-0.518,0.639-0.554
	c0.168-0.018,0.371-0.036,0.489-0.136c0.244-0.208,0.507-0.427,0.581-0.767c0.101-0.476,0.384-0.819,0.766-1.091
	c0.169-0.121,0.262-0.28,0.338-0.465c0.392-0.942,0.814-1.873,1.182-2.825c0.342-0.881,0.794-1.686,1.431-2.386
	c0.247-0.271,0.484-0.553,0.726-0.829c0.346-0.011,0.692-0.024,1.039-0.031c0.497-0.008,1,0.038,1.464-0.211
	c0.029-0.015,0.082,0.016,0.139,0.027c0.341,0.325,0.354,0.824,0.581,1.203c0.275,0.461,0.085,0.919,0.107,1.367
	c0.587,0.069,0.599,0.063,0.739-0.399c0.075-0.25,0.133-0.506,0.222-0.75c0.088-0.244,0.203-0.478,0.313-0.711
	c0.076-0.165,0.212-0.27,0.373-0.347c0.587-0.284,1.158-0.617,1.854-0.475c0.042,0.008,0.088,0.004,0.13-0.003
	c0.464-0.08,0.792,0.151,1.078,0.475c0.112,0.128,0.217,0.264,0.352,0.43c0.372-0.263,0.684-0.561,1.019-0.828
	c0.171-0.139,0.318-0.284,0.375-0.515c0.058-0.236,0.257-0.344,0.481-0.385c0.17-0.03,0.354-0.066,0.517-0.031
	c0.437,0.093,0.697-0.129,0.923-0.45c0.125-0.178,0.249-0.357,0.391-0.521c0.126-0.146,0.266-0.286,0.417-0.406
	c0.293-0.23,0.613-0.414,1-0.431c0.379-0.015,0.661-0.178,0.843-0.518c0.113-0.21,0.247-0.408,0.365-0.616
	c0.087-0.154,0.194-0.272,0.353-0.368c0.503-0.3,0.991-0.626,1.493-0.931c0.341-0.205,0.607-0.488,0.876-0.772
	c0.156-0.164,0.271-0.345,0.273-0.573c0.004-0.364,0.159-0.669,0.336-0.972c0.188-0.318,0.358-0.646,0.516-0.979
	c0.099-0.207,0.232-0.347,0.444-0.447c0.589-0.276,1.174-0.564,1.75-0.87c0.335-0.178,0.688-0.266,1.059-0.282
	c0.125-0.006,0.279,0.011,0.368,0.081c0.228,0.184,0.483,0.18,0.743,0.18c0.522,0.004,1.039,0.014,1.56,0.08
	c0.688,0.089,1.381,0.084,2.076-0.045c0.4-0.074,0.831-0.09,1.232-0.028c0.687,0.106,0.593,0.114,1.213-0.396
	c0.084-0.069,0.167-0.139,0.251-0.208c0.66-0.551,0.66-0.551,0.74-1.417c0.004-0.044,0.009-0.088,0.008-0.131
	c-0.007-0.287,0.113-0.492,0.363-0.643c0.347-0.21,0.566-0.532,0.716-0.902c0.065-0.161,0.146-0.317,0.2-0.481
	c0.078-0.236,0.245-0.344,0.477-0.386c0.472-0.083,0.941-0.166,1.422-0.155c0.346,0.008,0.691-0.013,1.04-0.019
	c0.132-0.21,0.25-0.392,0.362-0.577c0.361-0.594,0.717-1.191,1.082-1.783c0.077-0.123,0.187-0.227,0.261-0.316
	c0.345-0.004,0.511,0.193,0.676,0.402c0.512,0.648,1.028,1.293,1.547,1.937c0.271,0.339,0.545,0.679,0.831,1.003
	c0.225,0.257,0.34,0.272,0.61,0.067c0.436-0.332,0.89-0.627,1.434-0.742c0.334-0.072,0.535-0.236,0.585-0.597
	c0.067-0.485,0.39-0.809,0.772-1.079c0.36-0.256,0.744-0.332,1.173-0.2c0.228,0.072,0.461,0.131,0.696,0.17
	c0.475,0.08,0.941,0.111,1.392-0.15c0.22-0.13,0.487-0.183,0.737-0.255c0.479-0.14,0.833-0.453,1.163-0.806
	c0.072-0.077,0.121-0.181,0.192-0.261c0.379-0.417,0.791-0.533,1.255-0.162c0.169,0.134,0.337,0.274,0.48,0.436
	c0.215,0.236,0.459,0.393,0.783,0.42c0.266-0.123,0.501-0.385,0.873-0.172c0.047,0.132,0.136,0.29,0.156,0.454
	c0.039,0.325,0.243,0.5,0.5,0.635c0.173,0.091,0.355,0.166,0.54,0.228c0.099,0.032,0.217,0.042,0.316,0.021
	c0.45-0.09,0.894-0.19,1.2-0.587c0.119-0.152,0.294-0.262,0.418-0.411c0.165-0.199,0.351-0.4,0.45-0.633
	c0.227-0.538,0.436-1.089,0.6-1.65c0.225-0.761,0.572-1.45,1.021-2.099c0.632-0.916,1.533-1.231,2.598-1.182
	c0.353,0.016,0.506,0.154,0.583,0.501c0.051,0.232,0.072,0.475,0.118,0.708c0.024,0.127,0.04,0.287,0.122,0.361
	c0.355,0.333,0.645,0.741,1.222,0.779c0.535,0.035,0.922,0.338,1.026,0.921c0.06,0.332,0.259,0.474,0.594,0.467
	c0.191-0.003,0.384-0.027,0.544-0.04c0.067,0.054,0.106,0.075,0.132,0.107c0.119,0.151,0.189,0.346,0.416,0.387
	c0.238,0.043,0.474,0.071,0.698-0.055c0.215-0.121,0.445-0.156,0.691-0.121c0.128,0.018,0.261,0.011,0.39,0
	c0.231-0.019,0.419-0.105,0.499-0.35c0.02-0.058,0.068-0.106,0.11-0.171c0.271-0.055,0.562-0.073,0.81-0.364
	c0.024-0.306,0.074-0.683,0.297-0.745c0.708-0.081,0.808,0.313,0.946,0.628c0.438,0.218,0.857,0.138,1.213-0.064
	c0.425-0.243,0.855-0.27,1.316-0.257c0.376,0.009,0.687,0.111,0.855,0.473c0.107,0.229,0.297,0.312,0.527,0.312
	c0.413-0.005,0.831,0.015,1.236-0.048c0.763-0.118,1.412,0.122,2.025,0.534c0.577,0.389,1.153,0.778,1.731,1.165
	c0.16,0.106,0.328,0.205,0.479,0.299c0.065-0.03,0.116-0.038,0.14-0.068c0.674-0.823,1.354-1.643,2.01-2.481
	c0.245-0.312,0.373-0.681,0.312-1.099c-0.037-0.257-0.037-0.521-0.053-0.779c-0.025-0.443,0.147-0.653,0.578-0.68
	c0.218-0.014,0.435-0.003,0.652-0.006c0.353-0.006,0.688-0.077,1.015-0.212c0.172-0.072,0.295-0.173,0.375-0.337
	c0.132-0.274,0.261-0.551,0.407-0.817c0.158-0.292,0.37-0.554,0.688-0.666c0.652-0.229,1.296-0.514,2.019-0.432
	c0.215,0.025,0.436,0.005,0.651,0.004c0.132,0,0.264,0.011,0.392-0.005c0.595-0.072,0.784-0.287,0.877-0.79
	c0.016-0.086,0.021-0.174,0.031-0.26c0.077-0.572-0.02-1.128-0.191-1.669c-0.382-1.203-0.626-2.439-0.896-3.668
	c-0.083-0.377,0-0.683,0.306-0.93c0.39-0.314,0.762-0.649,1.157-0.953c0.336-0.258,0.623-0.536,0.696-0.977
	c0.006-0.035,0.055-0.064,0.108-0.124c0.101-0.004,0.246-0.052,0.354-0.008c0.276,0.111,0.537,0.264,0.839,0.417
	c0.104-0.131,0.22-0.256,0.314-0.395c0.517-0.753,1.014-1.52,1.548-2.26c0.268-0.37,0.41-0.745,0.385-1.206
	c-0.019-0.339-0.039-0.691,0.063-1.012c0.326-0.246,0.658-0.232,1.014-0.173c0.475,0.08,0.938,0.107,1.367-0.218
	c0.257-0.194,0.555-0.181,0.852,0.014c0.174,0.115,0.396,0.176,0.604,0.216c0.421,0.08,0.592-0.042,0.722-0.451
	c0.078-0.247,0.147-0.503,0.268-0.729c0.224-0.421,0.478-0.827,0.731-1.232c0.292-0.465,0.641-0.877,1.152-1.118
	c0.054-0.024,0.088-0.089,0.164-0.169c-0.03-0.32-0.061-0.664-0.095-1.008c-0.065-0.648-0.136-1.292-0.1-1.949
	c0.044-0.76,0.267-1.453,0.674-2.075c0.177-0.27,0.25-0.495,0.128-0.777c-0.215-0.494-0.062-0.983-0.005-1.477
	c0.065-0.55,0.328-0.979,0.784-1.292c0.017-0.118,0.026-0.226,0.048-0.331c0.176-0.811,0.35-0.965,1.182-0.989
	c0.293-0.009,0.52-0.095,0.604-0.387c0.065-0.226,0.214-0.373,0.384-0.512c0.098-0.08,0.197-0.157,0.295-0.234
	C367.749,483.566,367.77,483.473,367.745,483.394z"/>
</svg>
