<?xml version="1.0" encoding="utf-8"?>
<!-- Generator: Adobe Illustrator 16.0.0, SVG Export Plug-In . SVG Version: 6.00 Build 0)  -->
<!DOCTYPE svg PUBLIC "-//W3C//DTD SVG 1.1//EN" "http://www.w3.org/Graphics/SVG/1.1/DTD/svg11.dtd">
<svg version="1.1" id="Layer_1" xmlns="http://www.w3.org/2000/svg" xmlns:xlink="http://www.w3.org/1999/xlink" x="0px" y="0px"
	 width="184.261px" height="184.291px" viewBox="0 0 184.261 184.291" enable-background="new 0 0 184.261 184.291"
	 xml:space="preserve">
<g>
	<g>
		<path fill-rule="evenodd" clip-rule="evenodd" fill="#FFFFFF" d="M126.886,83.98c-0.767,0.862-1.399,1.654-2.117,2.361
			c-0.861,0.848-1.81,1.549-3.049,1.843c-0.612,0.145-1.174,0.231-1.768,0.088c-0.75-0.178-1.493-0.387-2.24-0.583
			c0.005-0.082,0.011-0.162,0.016-0.242c0.225-0.054,0.478-0.201,0.668-0.145c2.33,0.703,3.915-0.699,5.453-2.014
			c0.809-0.688,1.359-1.683,2.005-2.514c-1.472-1.812-3.517-2.755-6.102-1.184c-0.119-0.683,0.218-1.189,0.508-1.661
			c1.112-1.813,1.925-3.758,2.637-5.75c0.074-0.207,0.123-0.424,0.198-0.683c-0.864-0.335-1.732-0.249-2.578-0.339
			c-0.815-0.087-1.735,0.203-2.556-0.61c0.293-0.055,0.455-0.115,0.612-0.109c1.426,0.072,2.852,0.149,4.278,0.238
			c0.519,0.032,0.843-0.174,1.057-0.655c0.645-1.446,1.352-2.866,1.958-4.328c0.228-0.549,0.499-0.906,1.093-0.979
			c0.651-0.081,1.227,0.118,1.608,0.63c0.397,0.529,0.099,1.086-0.15,1.59c-0.565,1.148-1.155,2.286-1.729,3.43
			c-0.064,0.129-0.083,0.279-0.138,0.478c1.127,0.128,2.205,0.25,3.258,0.369c0.292-0.307,0.534-0.777,0.84-0.824
			c0.391-0.061,0.87,0.157,1.249,0.371c0.71,0.396,0.844,0.917,0.511,1.726c-1.093,2.644-2.223,5.271-3.964,7.579
			c-0.111,0.145-0.184,0.317-0.293,0.512c0.178,0.264,0.326,0.527,0.517,0.754c1.115,1.318,1.574,2.892,1.799,4.561
			c0.053,0.392,0.109,0.832-0.335,0.961c-0.268,0.078-0.639-0.055-0.919-0.188c-0.898-0.427-1.259-1.224-1.394-2.164
			C127.696,85.647,127.566,84.796,126.886,83.98z M129.719,73.95c-1.009-0.141-1.862-0.23-2.704-0.383
			c-0.658-0.117-1.077,0.089-1.365,0.695c-0.837,1.755-1.7,3.498-2.546,5.234c1.185,0.58,2.35,1.15,3.559,1.741
			C127.925,78.984,128.776,76.575,129.719,73.95z"/>
		<path fill-rule="evenodd" clip-rule="evenodd" fill="#FFFFFF" d="M140.289,80.107c0.889,0.101,1.644,0.146,2.381,0.281
			c0.809,0.146,1.392-0.179,1.905-0.739c0.304-0.336,0.582-0.704,0.923-0.993c0.411-0.347,0.854-0.305,1.061,0.104
			c0.465,0.924,0.879,1.873,1.335,2.859c-0.536,0.434-1.187,0.339-1.801,0.248c-1.603-0.236-3.198-0.527-4.798-0.789
			c-0.364-0.06-0.735-0.085-1.218-0.14c-0.385,1.744-0.765,3.463-1.142,5.186c-0.29,1.325-0.563,2.653-0.87,3.976
			c-0.2,0.866-0.892,1.115-1.624,0.63c-1.345-0.892-2.699-1.773-4.044-2.668c-0.081-0.055-0.116-0.179-0.172-0.271
			c0.79-0.581,1.859-0.631,4.135-0.172c0.642-2.186,0.879-4.453,1.279-6.752c-0.985-0.393-1.963-0.308-2.923-0.359
			c-0.714-0.038-1.433-0.069-2.136-0.184c-0.369-0.061-0.708-0.295-1.024-0.601c2.036-0.229,4.03,0.05,6.193,0.106
			c0.07-0.623,0.239-1.247,0.187-1.851c-0.084-0.961-0.225-1.939-0.517-2.854c-0.182-0.565-0.092-0.765,0.375-1.068
			c1.517-0.986,3.015-2.007,4.472-3.078c0.522-0.382,1.131-0.77,1.326-1.635c-1.435-0.064-2.81-0.132-4.184-0.188
			c-0.717-0.029-1.436-0.005-2.149-0.063c-0.508-0.042-1.052-0.087-1.505-0.786c0.603,0.007,1.061,0.015,1.52,0.015
			c2.22,0.002,4.441,0.005,6.661-0.006c0.622-0.005,1.191,0.088,1.697,0.493c0.707,0.562,0.822,0.853,0.573,1.759
			c-0.1,0.363-0.189,0.737-0.354,1.073c-0.421,0.857-0.974,1.104-1.932,0.961c-0.285-0.042-0.594-0.063-0.87,0.003
			c-0.67,0.159-3.044,1.497-3.649,2.013C140.594,76.232,140.516,78.091,140.289,80.107z"/>
	</g>
	<g>
		<path fill-rule="evenodd" clip-rule="evenodd" fill="#FFFFFF" d="M154.533,99.185c1.036-0.131,1.913-0.242,2.934-0.372
			c-0.178-2.401,0.055-4.697-0.207-7.173c-1.384,0.247-2.582,0.459-3.872,0.689c-0.196,1.256-0.298,2.488-0.599,3.67
			c-0.29,1.138-0.554,2.405-1.248,3.287c-0.97,1.23-2.209,2.347-3.98,2.437c-0.518,0.026-1.031,0.126-1.584,0.196
			c-0.138-0.604,0.144-0.951,0.629-1.131c2.096-0.777,2.883-2.581,3.329-4.506c0.819-3.521,0.62-7.093,0.164-10.652
			c-0.018-0.142-0.041-0.286-0.089-0.418c-0.172-0.469-0.668-1.018-0.06-1.391c0.517-0.318,1.116-0.641,1.849-0.363
			c0.458,0.174,1.014,0.167,1.518,0.134c3.214-0.211,6.396-0.824,9.657-0.518c1.34,0.125,2.726-0.237,4.092-0.366
			c0.611-0.057,1.235-0.025,1.837-0.13c1.545-0.267,3.087-0.561,4.619-0.898c0.471-0.103,0.814-0.104,1.196,0.482
			c-0.4,0.173-0.705,0.399-1.032,0.437c-3.355,0.379-6.708,0.785-10.071,1.063c-1.796,0.147-3.616-0.011-5.417,0.104
			c-1.644,0.106-3.276,0.396-4.852,0.596c0.051,2.358,0.098,4.567,0.148,6.837c0.353-0.003,0.683,0.029,1.005-0.013
			c2.686-0.339,5.374-0.667,8.054-1.051c1.695-0.242,3.376-0.581,5.065-0.869c0.328-0.056,0.666-0.133,0.99-0.105
			c1.398,0.115,2.508-0.32,3.299-1.531c0.426-0.653,1.068-0.743,1.759-0.446c0.479,0.209,0.969,0.414,1.399,0.702
			c0.2,0.133,0.401,0.481,0.363,0.69c-0.035,0.196-0.368,0.446-0.598,0.48c-1.926,0.286-3.862,0.509-5.789,0.785
			c-1.646,0.236-3.287,0.513-4.928,0.782c-1.076,0.176-2.148,0.371-3.244,0.563c0.104,2.022-0.714,3.95-0.223,6.098
			c0.578-0.285,1.063-0.543,1.562-0.771c1.03-0.473,2.074-0.914,3.095-1.402c0.24-0.116,0.414-0.366,0.632-0.569
			c-0.546-1.182-2.024-1.564-2.467-2.941c1.338-0.26,2.31,0.102,3.209,0.799c0.625,0.486,1.28,0.938,2.104,1.539
			c0.623-1.025,1.185-1.888,1.679-2.785c0.404-0.736,0.844-0.953,2.025-0.832c0.671,0.067,1.325,0.573,1.438,1.187
			c0.048,0.261,0.047,0.638-0.105,0.808c-0.9,1.016-1.852,1.986-2.847,3.037c0.725,0.66,1.845,0.925,2.897,1.149
			c2.542,0.547,5.118,0.929,7.679,1.39c0.504,0.09,0.998,0.234,1.773,0.421c-0.354,0.443-0.509,0.836-0.776,0.941
			c-2.069,0.81-4.074,1.78-6.427,1.637c-1.055-0.063-1.978-0.271-2.788-0.86c-1.844-1.342-3.65-2.736-5.456-4.129
			c-0.728-0.559-1.097-0.7-1.568-0.029c-1.538,2.193-4.007,2.973-6.13,4.278c-0.564,0.347-1.126,0.699-1.664,1.084
			c-0.846,0.607-1.528,0.667-2.354,0.079c-0.462-0.329-0.902-0.708-1.279-1.129C154.695,99.979,154.676,99.625,154.533,99.185z"/>
		<path fill-rule="evenodd" clip-rule="evenodd" fill="#FFFFFF" d="M159.909,71.966c1.555,0.217,2.942,0.063,4.444-0.391
			c-0.08-1.021-0.157-2.003-0.247-3.144c0.375-0.152,0.785-0.421,1.22-0.474c0.782-0.098,1.627,0.196,2.294-0.501
			c0.068-0.071,0.439,0.068,0.595,0.199c0.075,0.063,0.034,0.446-0.057,0.494c-1.219,0.665-0.744,1.778-0.851,2.956
			c1.555-0.503,3.108-0.067,4.548-0.816c0.5-0.258,1.213-0.228,1.808-0.154c0.758,0.094,1.254,0.796,1.177,1.541
			c-0.235,2.264-0.512,4.523-0.753,6.789c-0.134,1.254-0.569,2.202-2.018,2.327c-0.311,0.027-0.606,0.234-1.026,0.406
			c-0.126-0.476-0.238-0.899-0.351-1.321c-2.732-0.072-18.362,2.165-19.965,2.914c-0.824-3.342-0.832-6.779-1.714-10.05
			c0.708-0.934,1.776-0.754,2.39-0.448c1.464,0.73,2.89,0.309,4.335,0.281c0.323-0.005,0.643-0.119,1.054-0.201
			c-0.153-1.197-0.3-2.354-0.445-3.491c0.936-0.563,2.891-0.683,4.422-0.132c-0.441,0.383-0.789,0.684-1.143,0.99
			C159.715,70.449,159.806,71.149,159.909,71.966z M153.171,81.129c1.644-0.302,3.193-0.586,4.838-0.889
			c-0.222-1.216-0.414-2.267-0.62-3.396c-1.61,0.095-3.1,0.147-4.492,0.897C152.989,78.896,153.075,79.963,153.171,81.129z
			 M171.474,75.108c-1.5,0.19-2.787,0.354-4.153,0.528c-0.04,1.236-0.076,2.398-0.117,3.707c1.363-0.172,2.599-0.33,3.912-0.497
			C171.236,77.592,171.347,76.438,171.474,75.108z M164.508,76.147c-1.603-0.152-2.96,0.048-4.289,0.369
			c0.059,2.087,0.104,2.326,0.616,3.342c1.273-0.148,2.572-0.256,3.904-0.625C164.658,78.14,164.588,77.208,164.508,76.147z
			 M152.953,76.593c1.484-0.188,2.831-0.36,4.243-0.54c-0.128-1.001-0.238-1.868-0.366-2.877c-1.228,0.043-2.361,0.058-3.489,0.135
			c-0.605,0.042-0.98,0.399-0.864,1.054C152.605,75.106,152.79,75.839,152.953,76.593z M171.565,71.413
			c-1.515,0.14-2.904-0.229-4.142,0.596c-0.106,0.921-0.333,1.793,0.097,2.722c1.309-0.274,2.666,0.164,3.961-0.63
			C171.507,73.278,171.534,72.439,171.565,71.413z M160.292,75.691c1.479-0.188,2.726-0.348,4.146-0.528
			c-0.041-0.863-0.082-1.718-0.125-2.617c-1.368,0.065-2.538,0.115-3.705,0.185c-0.178,0.01-0.351,0.106-0.665,0.207
			C160.052,73.809,160.161,74.661,160.292,75.691z"/>
		<path fill-rule="evenodd" clip-rule="evenodd" fill="#FFFFFF" d="M155.08,87.832c1.323-0.308,2.632-0.713,3.972-0.9
			c2.022-0.286,4.067-0.403,6.098-0.625c0.987-0.108,1.964-0.309,2.949-0.436c0.934-0.122,1.695-0.536,2.38-1.176
			c0.92-0.863,2.601-0.765,3.426,0.149c0.31,0.342,0.229,0.745-0.215,0.89c-0.314,0.103-0.655,0.124-0.983,0.177
			c-2.439,0.391-4.876,0.802-7.32,1.16c-1.318,0.194-2.653,0.276-3.974,0.449c-1.883,0.246-3.76,0.535-5.641,0.792
			c-0.21,0.027-0.431-0.028-0.646-0.046C155.11,88.122,155.095,87.977,155.08,87.832z"/>
	</g>
	<g>
		<path fill="#FFFFFF" d="M116.801,94.144c-0.147,0.021-0.293,0.074-0.436,0.156c-0.221,0.129-0.426,0.225-0.626,0.297
			c-0.196,0.069-0.399,0.136-0.596,0.196c-0.309,0.098-0.628,0.199-0.934,0.326c-0.222,0.093-0.386,0.08-0.623-0.057
			c-0.152-0.086-0.305-0.172-0.459-0.255c-0.213-0.117-0.434-0.238-0.644-0.366c-0.263-0.161-0.516-0.328-0.782-0.506
			c-0.075-0.05-0.15-0.1-0.226-0.149c0.006-0.009,0.012-0.017,0.019-0.024c0.101-0.117,0.206-0.234,0.31-0.351
			c0.223-0.25,0.455-0.507,0.656-0.785c0.408-0.563,0.711-1.173,1.036-1.854c0.172-0.363,0.066-0.734-0.285-0.994
			c-0.437-0.323-0.921-0.338-1.343-0.328c-0.072,0.003-0.137,0.008-0.195,0.016c-0.326,0.047-0.506,0.217-0.62,0.587
			c-0.036,0.117-0.056,0.236-0.077,0.352c-0.014,0.075-0.027,0.151-0.045,0.225c-0.109,0.456-0.352,0.846-0.607,1.258
			c-0.042,0.069-0.085,0.137-0.128,0.208c-0.066,0.108-0.148,0.212-0.235,0.319c-0.008,0.01-0.016,0.02-0.024,0.028
			c-0.787-0.688-1.987-2.314-2.217-2.917c0.006-0.001,0.013-0.005,0.02-0.006c0.115-0.04,0.222-0.079,0.333-0.099
			c0.14-0.025,0.28-0.05,0.421-0.07c0.176-0.025,0.331-0.042,0.474-0.048c0.207-0.01,0.416-0.031,0.639-0.063
			c0.634-0.091,1.258-0.263,1.861-0.43c0.18-0.05,0.361-0.1,0.542-0.148c0.264-0.068,0.527-0.142,0.791-0.212
			c0.596-0.162,1.212-0.329,1.822-0.473c0.323-0.077,0.566-0.229,0.767-0.481l0.062-0.077l-0.046-0.088
			c-0.257-0.478-0.457-0.665-0.895-0.837c-0.025-0.01-0.051-0.02-0.077-0.029c-0.087-0.032-0.171-0.063-0.229-0.107
			c-0.235-0.187-0.498-0.229-0.75-0.269l-0.108-0.018c-0.408-0.069-0.698,0.093-0.895,0.504c-0.068,0.145-0.143,0.286-0.219,0.428
			c-0.068,0.132-0.138,0.262-0.203,0.396c-0.063,0.131-0.118,0.178-0.227,0.199c-0.242,0.041-0.48,0.107-0.71,0.172l-0.119,0.031
			c-0.091,0.024-0.181,0.055-0.271,0.084c-0.138,0.045-0.268,0.089-0.399,0.114c-0.547,0.103-1.094,0.202-1.641,0.302
			c-0.452,0.082-0.903,0.164-1.355,0.249c-0.061,0.012-0.112,0.021-0.156,0.027c-0.14,0.021-0.14,0.021-0.244-0.239
			c-0.045-0.111-0.079-0.227-0.115-0.352c-0.061-0.212-0.125-0.433-0.249-0.624c-0.164-0.25-0.24-0.524-0.321-0.815
			c-0.026-0.095-0.053-0.191-0.083-0.288c-0.054-0.168-0.101-0.34-0.149-0.521c-0.01-0.033-0.02-0.07-0.028-0.104l0.701-0.181
			c0.957-0.248,1.92-0.497,2.884-0.742c0.075-0.02,0.152-0.029,0.229-0.037c0.005,0.04,0.009,0.08,0.015,0.117
			c0.023,0.177,0.045,0.342,0.078,0.504c0.073,0.366,0.29,0.561,0.581,0.52c0.104-0.015,0.213-0.062,0.326-0.137
			c0.192-0.13,0.384-0.279,0.583-0.458c0.099-0.088,0.233-0.224,0.267-0.387l0.023-0.112c0.08-0.388,0.163-0.788,0.179-1.189
			c0.016-0.377,0.003-0.76-0.01-1.128c-0.008-0.218-0.015-0.435-0.018-0.651c-0.001-0.057,0.012-0.119,0.026-0.187
			c0.02-0.102,0.043-0.214,0.024-0.331c-0.081-0.479-0.04-0.951,0.003-1.449c0.027-0.316,0.055-0.643,0.05-0.969
			c-0.008-0.424,0-0.834,0.205-1.201c0.022-0.04,0.073-0.148,0.058-0.257c-0.006-0.054-0.01-0.111-0.013-0.171
			c-0.011-0.192-0.022-0.392-0.156-0.509c-0.275-0.244-0.589-0.48-1.016-0.556c-0.43-0.076-0.84-0.049-1.275,0.09
			c-0.135,0.041-0.263,0.096-0.388,0.147c-0.132,0.057-0.257,0.107-0.386,0.147c-0.704,0.213-1.423,0.413-2.12,0.609l-0.035,0.01
			c-0.486,0.137-0.974,0.271-1.461,0.404l-0.741,0.203c-0.016,0.004-0.034,0.008-0.051,0.011c-0.065,0.013-0.145,0.027-0.21,0.087
			c-0.204,0.185-0.464,0.239-0.74,0.297c-0.091,0.02-0.185,0.04-0.278,0.064c0.195-0.124,0.354-0.281,0.511-0.434
			c0.071-0.071,0.143-0.14,0.218-0.207c0.134-0.119,0.3-0.214,0.453-0.261c0.374-0.112,0.683-0.323,0.98-0.526
			c0.143-0.097,0.291-0.198,0.44-0.283c0.048-0.027,0.086-0.06,0.119-0.088c0.061-0.054,0.087-0.072,0.146-0.069
			c0.172,0.011,0.41-0.188,0.447-0.356c0.074-0.338,0.269-0.609,0.475-0.896c0.052-0.071,0.102-0.144,0.151-0.214
			c0.188-0.278,0.209-0.526,0.07-0.812c-0.047-0.095-0.1-0.186-0.152-0.272c0.425-0.089,0.874-0.177,1.33-0.243
			c0.444-0.064,0.844-0.1,1.222-0.107c0.1-0.002,0.207-0.024,0.279-0.069c0.126-0.078,0.268-0.128,0.446-0.154
			c0.072-0.009,0.152-0.018,0.248-0.021c0.209-0.01,0.419-0.138,0.551-0.332c0.104-0.153,0.143-0.32,0.106-0.471
			c-0.084-0.355-0.247-0.781-0.759-0.924l-0.03-0.008c-0.271-0.074-0.528-0.146-0.684-0.375c-0.063-0.093-0.172-0.123-0.26-0.149
			l-0.043-0.013c-0.12-0.038-0.24-0.05-0.357-0.032c-0.227,0.032-0.406,0.161-0.572,0.288l-0.051,0.038l-0.008,0.064
			c-0.049,0.429-0.092,0.523-0.375,0.839c-0.016,0.019-0.036,0.036-0.056,0.055c-0.058,0.058-0.125,0.121-0.16,0.213
			c-0.051,0.135-0.13,0.171-0.345,0.207c-0.674,0.119-1.349,0.258-2,0.391c-0.786,0.159-1.605,0.333-2.438,0.511
			c-0.528,0.114-1.083,0.239-1.694,0.383c-0.115,0.025-0.228,0.061-0.337,0.093c-0.188,0.057-0.362,0.107-0.541,0.127
			c-0.056,0.007-0.106,0.012-0.151,0.018c-0.157,0.022-0.314,0.063-0.398,0.189c-0.093,0.14-0.069,0.321,0.011,0.629l0.032,0.125
			l0.129-0.012c0.115-0.013,0.234-0.016,0.353-0.022c0.287-0.013,0.599-0.035,0.836-0.112c0.652-0.214,1.336-0.35,1.998-0.485
			c0.166-0.032,0.332-0.065,0.499-0.1c0.098-0.021,0.204-0.04,0.331-0.058c0.095-0.015,0.19-0.025,0.284-0.038
			c0.062-0.009,0.123-0.017,0.184-0.024c0.181,0.247,0.193,0.453,0.043,0.672c-0.071,0.105-0.142,0.21-0.213,0.314
			c-0.178,0.264-0.363,0.536-0.552,0.797c-0.099,0.133-0.235,0.254-0.365,0.371l-0.029,0.025c-0.158,0.14-0.317,0.278-0.476,0.415
			c-0.307,0.265-0.624,0.539-0.919,0.828c-0.184,0.182-0.36,0.276-0.583,0.313c-0.105,0.014-0.213,0.016-0.328,0.018
			c-0.05,0.001-0.1,0.001-0.148,0.003c-0.097,0.005-0.181,0.011-0.253,0.021c-0.155,0.022-0.371,0.074-0.461,0.259
			c-0.101,0.206,0.019,0.466,0.148,0.692c0.153,0.271,0.249,0.556,0.3,0.899l0.057,0.383c0.098,0.657,0.199,1.336,0.286,2.006
			c0.055,0.428,0.106,0.855,0.157,1.284c0.078,0.655,0.158,1.333,0.254,1.998c0.038,0.259,0.152,0.496,0.262,0.728
			c0.026,0.057,0.053,0.112,0.077,0.166c0.065,0.146,0.278,0.182,0.342,0.189c0.138,0.016,0.272,0.015,0.398-0.004l0.023-0.004
			c0.218-0.036,0.43-0.077,0.655-0.123c0.056-0.011,0.114-0.023,0.172-0.035c0.022,0.034,0.045,0.067,0.067,0.1
			c0.091,0.134,0.176,0.259,0.235,0.393c0.107,0.245,0.205,0.501,0.299,0.748c0.075,0.196,0.15,0.391,0.229,0.583
			c0.093,0.224,0.194,0.438,0.301,0.665c0.028,0.062,0.056,0.121,0.085,0.182c-0.026,0.017-0.046,0.027-0.063,0.032
			c-0.125,0.034-0.252,0.064-0.378,0.095c-0.188,0.045-0.38,0.092-0.571,0.149c-0.644,0.193-1.294,0.398-1.924,0.597l-0.262,0.081
			c-0.24,0.076-0.472,0.154-0.688,0.235c-0.122,0.045-0.218,0.128-0.267,0.235c-0.047,0.104-0.051,0.224-0.008,0.336
			c0.057,0.152,0.281,0.271,0.435,0.269c0.174-0.002,0.348-0.053,0.509-0.102l0.063-0.02c0.103-0.03,0.205-0.065,0.306-0.101
			c0.127-0.047,0.248-0.089,0.37-0.12c0.354-0.092,0.708-0.179,1.063-0.268c0.563-0.141,1.147-0.285,1.718-0.441
			c0.162-0.043,0.255-0.024,0.357,0.104c0.063,0.08,0.128,0.157,0.194,0.236c0.126,0.15,0.247,0.295,0.351,0.451
			c0.475,0.71,1.027,1.377,1.688,2.035c0.25,0.249,0.481,0.511,0.727,0.786c0.087,0.096,0.172,0.192,0.259,0.289
			c-0.03,0.051-0.056,0.098-0.083,0.123c-0.144,0.129-0.286,0.261-0.427,0.391c-0.419,0.386-0.852,0.784-1.302,1.139
			c-0.261,0.206-0.567,0.375-0.863,0.537c-0.13,0.068-0.26,0.141-0.386,0.215c-0.111,0.064-0.369,0.216-0.3,0.53
			c0.056,0.251,0.265,0.396,0.545,0.374c0.266-0.019,0.494-0.056,0.695-0.117c0.249-0.073,0.497-0.154,0.738-0.234
			c0.311-0.103,0.632-0.207,0.952-0.296c0.278-0.077,0.504-0.207,0.712-0.409c0.291-0.286,0.594-0.568,0.887-0.844
			c0.093-0.086,0.186-0.173,0.277-0.26l0.371,0.212c0.335,0.192,0.661,0.381,0.987,0.567c0.264,0.149,0.53,0.295,0.795,0.441
			c0.589,0.323,1.198,0.658,1.771,1.023c0.415,0.265,0.801,0.252,1.124,0.205c0.092-0.013,0.184-0.03,0.276-0.05
			c0.163-0.032,0.324-0.11,0.439-0.215c0.343-0.306,0.631-0.581,0.88-0.845c0.498-0.528,0.781-1.188,1.057-1.823l0.072-0.169
			l-0.119-0.067C117.399,94.176,117.099,94.101,116.801,94.144z M103.161,82.021c0.023-0.01,0.047-0.02,0.071-0.029
			c0.141-0.058,0.275-0.112,0.411-0.15c0.283-0.084,0.574-0.161,0.854-0.234c0.567-0.151,1.152-0.308,1.711-0.513
			c0.544-0.201,1.148-0.346,1.903-0.453c0.065-0.01,0.131-0.02,0.197-0.027l0.026-0.005c0.15-0.021,0.297-0.057,0.439-0.092
			c0.083-0.02,0.165-0.04,0.25-0.056c0.166-0.036,0.332-0.067,0.525-0.104l0.112-0.021l-0.022,0.903
			c-0.025,0.021-0.052,0.042-0.076,0.05c-0.919,0.319-1.845,0.638-2.751,0.944c-0.5,0.169-0.999,0.279-1.527,0.337
			c-0.449,0.052-0.893,0.164-1.322,0.273c-0.183,0.047-0.366,0.094-0.549,0.137c-0.055,0.012-0.108,0.025-0.166,0.042
			c-0.079-0.129-0.073-0.275-0.059-0.483C103.2,82.377,103.212,82.2,103.161,82.021z M109.702,78.472
			c0.002,0.179-0.004,0.361-0.011,0.556c-0.001,0.067-0.004,0.136-0.006,0.208c-0.021,0.016-0.053,0.038-0.066,0.041
			c-0.063,0.002-0.127,0.009-0.193,0.018c-0.232,0.034-0.449,0.108-0.659,0.181c-0.205,0.068-0.4,0.136-0.603,0.165l-0.019,0.003
			c-0.413,0.055-0.825,0.121-1.237,0.187l-0.273,0.045c-0.094,0.015-0.182,0.044-0.27,0.074c-0.167,0.058-0.331,0.119-0.496,0.178
			c-0.344,0.127-0.7,0.259-1.056,0.355c-0.405,0.111-0.816,0.191-1.25,0.278c-0.146,0.027-0.293,0.056-0.441,0.086
			c-0.083-0.342-0.054-0.671-0.024-1.015c0.012-0.135,0.024-0.273,0.03-0.416c0.097-0.022,0.191-0.044,0.286-0.066
			c0.322-0.073,0.625-0.145,0.931-0.223c0.16-0.042,0.314-0.1,0.463-0.154c0.061-0.024,0.122-0.047,0.184-0.067
			c0.065-0.024,0.129-0.05,0.194-0.074c0.131-0.052,0.257-0.1,0.385-0.13c0.042-0.01,0.085-0.018,0.127-0.027
			c0.267-0.058,0.541-0.117,0.792-0.321c0.065-0.053,0.179-0.077,0.299-0.102c0.069-0.015,0.141-0.028,0.209-0.05
			c0.209-0.065,0.413-0.147,0.61-0.227c0.352-0.141,0.684-0.272,1.043-0.326h0.006c0.064-0.01,0.128-0.021,0.192-0.032
			c0.127-0.021,0.253-0.041,0.38-0.05c0.249-0.018,0.381,0.077,0.431,0.306c0.038,0.172,0.041,0.364,0.041,0.55V78.472z
			 M103.37,85.042c-0.03-0.277-0.059-0.54-0.08-0.802c-0.005-0.063-0.002-0.104,0.124-0.147c0.721-0.242,1.408-0.411,2.101-0.511
			l0.124-0.018c0.894-0.13,1.562-0.315,2.167-0.601c0.319-0.149,0.667-0.268,1.002-0.38c0.164-0.056,0.328-0.11,0.49-0.17
			c0.138-0.05,0.251-0.045,0.367,0.021l0.032,1.065c-0.087,0.029-0.17,0.056-0.254,0.083c-0.249,0.081-0.483,0.158-0.721,0.226
			c-0.943,0.265-1.869,0.525-2.806,0.771c-0.217,0.059-0.443,0.104-0.663,0.145c-0.189,0.037-0.384,0.076-0.577,0.122
			c-0.235,0.059-0.447,0.137-0.63,0.235c-0.136,0.073-0.28,0.101-0.404,0.12c-0.055,0.007-0.11,0.013-0.167,0.02
			c-0.028,0.003-0.058,0.006-0.086,0.011C103.383,85.167,103.376,85.104,103.37,85.042z"/>
		<path fill="#FFFFFF" d="M97.633,82.76c-0.4-0.005-0.725-0.027-1.021-0.069c-0.292-0.042-0.48,0.038-0.62,0.252
			c-0.131,0.197-0.324,0.315-0.643,0.391c-0.446,0.103-0.891,0.225-1.318,0.358c-0.15,0.046-0.295,0.107-0.435,0.167
			c-0.148,0.063-0.287,0.122-0.431,0.164c-0.379,0.113-0.771,0.215-1.15,0.312c-0.146,0.038-0.293,0.077-0.438,0.114
			c-0.107,0.028-0.214,0.054-0.324,0.081l-0.035,0.009c-0.014-0.031-0.024-0.059-0.029-0.081c-0.104-0.467-0.378-0.703-0.835-0.726
			c-0.219-0.012-0.436-0.058-0.665-0.109c-0.086-0.018-0.173-0.037-0.259-0.053c-0.415-0.082-0.72,0.033-1.003,0.362l-0.07,0.084
			l0.055,0.093c0.034,0.057,0.063,0.119,0.092,0.181c0.076,0.159,0.154,0.322,0.299,0.422c0.156,0.107,0.239,0.229,0.283,0.415
			c0.056,0.228,0.106,0.474,0.159,0.775c0.076,0.429,0.121,0.872,0.166,1.3c0.058,0.568,0.118,1.155,0.25,1.729
			c0.118,0.514,0.189,1.051,0.259,1.571c0.034,0.254,0.067,0.509,0.107,0.763c0.024,0.159,0.05,0.324,0.106,0.482
			c0.103,0.289,0.313,0.432,0.578,0.394c0.076-0.012,0.155-0.037,0.238-0.077c0.035-0.017,0.068-0.037,0.102-0.059
			c0.042-0.025,0.086-0.053,0.116-0.058c0.715-0.115,1.309-0.485,1.845-0.867c0.398-0.284,0.836-0.458,1.325-0.64
			c0.228-0.085,0.465-0.159,0.695-0.231c0.14-0.043,0.281-0.088,0.421-0.135c0.079-0.027,0.156-0.058,0.233-0.088
			c0.129-0.054,0.251-0.102,0.375-0.126c0.025-0.006,0.05-0.009,0.073-0.013c0.083-0.013,0.105-0.005,0.105-0.005
			c0.012,0.012,0.03,0.057,0.055,0.204c0.098,0.585,0.193,0.68,0.781,0.781c0.031,0.005,0.062,0.011,0.093,0.014
			c0.57,0.063,1.284-0.411,1.217-1.089c-0.011-0.11-0.015-0.222-0.02-0.337c-0.004-0.122-0.009-0.249-0.022-0.376
			c-0.069-0.647-0.029-1.312,0.011-1.952c0.015-0.255,0.03-0.511,0.041-0.766c0.01-0.288,0.056-0.569,0.106-0.865
			c0.063-0.387,0.13-0.787,0.107-1.203c-0.002-0.055-0.005-0.108-0.006-0.162c-0.007-0.199-0.015-0.401-0.063-0.607
			C98.406,82.927,98.204,82.765,97.633,82.76z M91.748,88.811c-0.031-0.191-0.061-0.372-0.083-0.556
			c-0.082-0.695-0.162-1.522-0.138-2.376c0.001-0.056-0.003-0.117-0.008-0.178c-0.005-0.066-0.014-0.188,0.005-0.214
			c0.028-0.035,0.154-0.06,0.239-0.077c0.049-0.01,0.098-0.02,0.142-0.03c0.185-0.049,0.37-0.096,0.554-0.142
			c0.28-0.071,0.561-0.142,0.838-0.219c0.142-0.038,0.28-0.09,0.412-0.14c0.092-0.034,0.183-0.067,0.274-0.098
			c0.15-0.047,0.299-0.097,0.449-0.146c0.482-0.157,0.981-0.321,1.478-0.464c0.054-0.015,0.099-0.026,0.138-0.031
			c0.06-0.01,0.103-0.006,0.121,0.009c0.02,0.016,0.054,0.07,0.069,0.267c0.034,0.437,0.04,0.885,0.048,1.318l0.006,0.324
			c0.01,0.545,0.014,1.091,0.019,1.638l0.001,0.183c0.001,0.072-0.003,0.145-0.009,0.217c-0.002,0.037-0.005,0.074-0.006,0.111
			c-0.017,0.331-0.232,0.571-0.575,0.643c-0.328,0.067-0.627,0.194-0.918,0.317c-0.255,0.108-0.498,0.211-0.754,0.275
			c-0.216,0.053-0.416,0.14-0.609,0.225c-0.24,0.104-0.467,0.202-0.717,0.239l-0.014,0.002c-0.183,0.025-0.346,0.117-0.501,0.205
			c-0.077,0.044-0.15,0.085-0.223,0.117c-0.037,0.017-0.08,0.029-0.128,0.044C91.903,89.754,91.825,89.275,91.748,88.811z"/>
		<path fill="#FFFFFF" d="M117.008,84.013c-0.148-0.288-0.33-0.561-0.506-0.824c-0.058-0.087-0.115-0.174-0.172-0.261
			c-0.184-0.282-0.412-0.427-0.697-0.441c-0.096-0.005-0.192-0.018-0.292-0.032c-0.186-0.025-0.377-0.053-0.569-0.027l-0.056,0.008
			c-0.624,0.09-1.198,0.288-1.183,1.11l0.001,0.098l0.091,0.039c0.054,0.022,0.11,0.042,0.166,0.061
			c0.101,0.036,0.195,0.069,0.259,0.119c0.42,0.347,0.759,0.768,1.006,1.248c0.192,0.373,0.297,0.463,0.724,0.438l0.023-0.002
			c0.061-0.003,0.125-0.008,0.164,0.007c0.125,0.041,0.257,0.055,0.392,0.033c0.182-0.025,0.344-0.103,0.492-0.183
			c0.177-0.095,0.372-0.348,0.37-0.562C117.218,84.573,117.14,84.271,117.008,84.013z"/>
	</g>
	<g>
		<path fill="#FFFFFF" d="M83.299,97.47c-0.187-0.015-0.381,0.009-0.578,0.07c-0.307,0.097-0.584,0.157-0.851,0.189
			c-0.259,0.032-0.528,0.055-0.787,0.077c-0.406,0.034-0.826,0.069-1.236,0.142c-0.298,0.051-0.497-0.01-0.749-0.243
			c-0.162-0.149-0.328-0.295-0.493-0.441c-0.229-0.202-0.466-0.413-0.688-0.626c-0.279-0.271-0.542-0.548-0.821-0.839
			c-0.077-0.082-0.156-0.166-0.234-0.247c0.01-0.009,0.02-0.017,0.029-0.024c0.158-0.117,0.318-0.231,0.478-0.346
			c0.345-0.244,0.701-0.496,1.025-0.78c0.655-0.577,1.197-1.242,1.786-1.989c0.314-0.396,0.286-0.884-0.073-1.3
			c-0.446-0.517-1.037-0.67-1.557-0.773c-0.092-0.018-0.17-0.031-0.244-0.036c-0.415-0.032-0.682,0.126-0.925,0.548
			c-0.077,0.135-0.136,0.275-0.193,0.41c-0.037,0.088-0.075,0.178-0.117,0.264c-0.261,0.529-0.666,0.941-1.096,1.376
			c-0.071,0.072-0.142,0.145-0.212,0.217c-0.113,0.117-0.243,0.221-0.378,0.33c-0.013,0.009-0.025,0.019-0.038,0.028
			c-0.775-1.063-1.796-3.395-1.912-4.197c0.009,0,0.018-0.002,0.026-0.003c0.151-0.017,0.295-0.034,0.436-0.027
			c0.179,0.008,0.358,0.016,0.537,0.03c0.223,0.018,0.417,0.042,0.595,0.072c0.257,0.045,0.519,0.078,0.801,0.102
			c0.806,0.063,1.619,0.023,2.405-0.014c0.235-0.011,0.471-0.022,0.706-0.03c0.343-0.013,0.686-0.027,1.03-0.042
			c0.777-0.032,1.58-0.067,2.368-0.073c0.418-0.004,0.76-0.124,1.076-0.378l0.097-0.078l-0.033-0.121
			c-0.182-0.658-0.376-0.944-0.867-1.275c-0.028-0.02-0.057-0.038-0.086-0.058c-0.099-0.064-0.192-0.124-0.251-0.196
			c-0.237-0.294-0.547-0.418-0.846-0.536l-0.129-0.054c-0.481-0.199-0.883-0.078-1.238,0.373c-0.124,0.157-0.255,0.311-0.387,0.463
			c-0.121,0.142-0.243,0.284-0.359,0.429c-0.114,0.143-0.195,0.187-0.333,0.18c-0.309-0.013-0.62,0.002-0.921,0.015l-0.153,0.008
			c-0.12,0.005-0.238,0.017-0.356,0.027c-0.181,0.018-0.352,0.034-0.521,0.027c-0.699-0.023-1.398-0.053-2.099-0.083
			c-0.577-0.026-1.154-0.05-1.732-0.072c-0.078-0.002-0.144-0.005-0.201-0.01c-0.177-0.013-0.177-0.013-0.234-0.36
			c-0.023-0.149-0.033-0.302-0.042-0.462c-0.016-0.28-0.033-0.567-0.132-0.836c-0.132-0.354-0.149-0.712-0.168-1.091
			c-0.006-0.125-0.012-0.25-0.022-0.376c-0.018-0.225-0.027-0.448-0.038-0.681c-0.002-0.045-0.004-0.092-0.005-0.137l0.909-0.029
			c1.243-0.036,2.496-0.075,3.748-0.108c0.097-0.004,0.195,0.006,0.29,0.018c-0.004,0.051-0.009,0.101-0.013,0.149
			c-0.02,0.222-0.04,0.43-0.044,0.638c-0.012,0.472,0.202,0.771,0.57,0.8c0.132,0.01,0.279-0.017,0.438-0.077
			c0.273-0.106,0.548-0.236,0.843-0.4c0.145-0.08,0.348-0.21,0.434-0.399l0.06-0.132c0.207-0.453,0.418-0.922,0.552-1.41
			c0.123-0.46,0.213-0.933,0.299-1.389c0.051-0.27,0.102-0.538,0.16-0.805c0.014-0.069,0.048-0.143,0.083-0.222
			c0.053-0.119,0.112-0.252,0.12-0.399c0.035-0.61,0.215-1.178,0.407-1.778c0.121-0.38,0.247-0.774,0.33-1.176
			c0.107-0.522,0.233-1.023,0.586-1.417c0.039-0.045,0.13-0.161,0.142-0.301c0.005-0.067,0.018-0.14,0.03-0.212
			c0.04-0.239,0.082-0.486-0.049-0.668c-0.271-0.376-0.59-0.754-1.094-0.966c-0.506-0.212-1.019-0.291-1.59-0.244
			c-0.176,0.016-0.349,0.047-0.517,0.075c-0.178,0.032-0.346,0.062-0.515,0.074c-0.922,0.064-1.862,0.112-2.771,0.159l-0.046,0.001
			c-0.635,0.034-1.271,0.063-1.906,0.092l-0.965,0.044c-0.021,0.001-0.043,0-0.066,0c-0.082-0.004-0.186-0.007-0.281,0.046
			c-0.303,0.171-0.638,0.166-0.992,0.161c-0.117-0.002-0.237-0.003-0.358,0.001c0.274-0.098,0.513-0.245,0.747-0.39
			c0.107-0.067,0.215-0.134,0.325-0.194c0.199-0.109,0.429-0.181,0.629-0.194c0.49-0.036,0.927-0.208,1.35-0.373
			c0.203-0.08,0.411-0.162,0.619-0.227c0.067-0.02,0.122-0.05,0.17-0.075c0.089-0.047,0.128-0.064,0.198-0.044
			c0.207,0.06,0.557-0.115,0.648-0.314c0.184-0.394,0.499-0.673,0.832-0.969c0.083-0.074,0.166-0.146,0.245-0.22
			c0.308-0.288,0.404-0.588,0.312-0.976c-0.031-0.13-0.07-0.257-0.11-0.379c0.546,0.011,1.121,0.027,1.699,0.072
			c0.564,0.045,1.064,0.112,1.53,0.207c0.123,0.026,0.261,0.027,0.36-0.008c0.178-0.063,0.367-0.082,0.591-0.064
			c0.092,0.007,0.191,0.021,0.311,0.042c0.259,0.045,0.552-0.053,0.768-0.254c0.17-0.159,0.264-0.354,0.26-0.55
			c-0.005-0.459-0.085-1.026-0.675-1.344l-0.034-0.019c-0.312-0.167-0.607-0.324-0.736-0.65c-0.052-0.13-0.177-0.199-0.277-0.254
			l-0.05-0.028c-0.136-0.081-0.281-0.127-0.43-0.139c-0.287-0.023-0.543,0.082-0.784,0.193l-0.073,0.033l-0.026,0.077
			c-0.18,0.513-0.258,0.617-0.692,0.926c-0.026,0.019-0.055,0.035-0.083,0.053c-0.088,0.053-0.188,0.114-0.256,0.215
			c-0.1,0.153-0.208,0.176-0.48,0.161c-0.861-0.042-1.727-0.062-2.564-0.077c-1.009-0.021-2.063-0.037-3.134-0.05
			c-0.681-0.007-1.396-0.007-2.187-0.002c-0.148,0.002-0.296,0.013-0.439,0.021c-0.246,0.018-0.476,0.033-0.7,0.006
			c-0.069-0.008-0.133-0.015-0.189-0.019c-0.199-0.017-0.402-0.012-0.542,0.122c-0.152,0.146-0.174,0.375-0.161,0.773l0.006,0.163
			l0.162,0.021c0.145,0.018,0.292,0.045,0.44,0.072c0.354,0.064,0.744,0.122,1.057,0.093c0.86-0.08,1.737-0.059,2.585-0.04
			c0.213,0.005,0.427,0.012,0.641,0.015c0.125,0.002,0.26,0.008,0.422,0.021c0.121,0.01,0.241,0.021,0.359,0.032
			c0.079,0.009,0.156,0.017,0.232,0.022c0.154,0.354,0.112,0.609-0.133,0.837c-0.116,0.108-0.232,0.217-0.349,0.326
			c-0.292,0.275-0.593,0.56-0.899,0.826c-0.159,0.137-0.358,0.246-0.551,0.354l-0.043,0.023c-0.23,0.127-0.464,0.253-0.698,0.378
			c-0.45,0.239-0.915,0.486-1.358,0.762c-0.276,0.172-0.519,0.239-0.802,0.22c-0.132-0.012-0.266-0.038-0.407-0.069
			c-0.061-0.013-0.123-0.025-0.183-0.036c-0.121-0.023-0.224-0.037-0.317-0.044c-0.195-0.016-0.475-0.013-0.636,0.187
			c-0.181,0.227-0.107,0.58-0.012,0.893c0.115,0.375,0.152,0.752,0.12,1.188l-0.037,0.485c-0.062,0.834-0.127,1.696-0.207,2.543
			c-0.05,0.54-0.107,1.078-0.163,1.617c-0.086,0.827-0.177,1.683-0.242,2.527c-0.026,0.326,0.047,0.652,0.118,0.966
			c0.018,0.076,0.034,0.15,0.05,0.225c0.04,0.195,0.291,0.299,0.367,0.326c0.166,0.058,0.33,0.093,0.49,0.105l0.03,0.002
			c0.277,0.018,0.549,0.024,0.837,0.032c0.074,0.001,0.147,0.003,0.222,0.005c0.018,0.047,0.036,0.095,0.055,0.142
			c0.074,0.188,0.144,0.366,0.179,0.546c0.064,0.331,0.113,0.671,0.161,1.002c0.037,0.261,0.074,0.52,0.12,0.777
			c0.051,0.303,0.117,0.593,0.185,0.901c0.018,0.082,0.036,0.164,0.055,0.248c-0.037,0.011-0.066,0.019-0.086,0.021
			c-0.163,0.007-0.327,0.01-0.491,0.012c-0.243,0.003-0.493,0.008-0.742,0.023c-0.844,0.06-1.7,0.13-2.528,0.199L65.783,88.2
			c-0.317,0.025-0.623,0.06-0.911,0.097c-0.163,0.021-0.303,0.098-0.393,0.217c-0.088,0.114-0.125,0.259-0.104,0.408
			c0.029,0.205,0.271,0.412,0.459,0.451c0.213,0.047,0.441,0.032,0.654,0.016l0.082-0.005c0.136-0.009,0.27-0.023,0.404-0.04
			c0.168-0.021,0.328-0.038,0.488-0.043c0.459-0.015,0.919-0.024,1.379-0.034c0.731-0.016,1.488-0.031,2.23-0.063
			c0.212-0.009,0.321,0.04,0.411,0.228c0.055,0.114,0.113,0.229,0.172,0.343c0.114,0.222,0.222,0.43,0.306,0.65
			c0.385,1.005,0.878,1.976,1.507,2.97c0.238,0.375,0.45,0.759,0.675,1.165c0.078,0.142,0.157,0.284,0.238,0.427
			c-0.051,0.057-0.095,0.104-0.137,0.127c-0.211,0.119-0.423,0.241-0.633,0.363c-0.621,0.356-1.263,0.727-1.915,1.036
			c-0.377,0.182-0.799,0.301-1.208,0.418c-0.179,0.052-0.358,0.103-0.536,0.157c-0.153,0.048-0.512,0.162-0.514,0.567
			c-0.002,0.324,0.215,0.559,0.565,0.612c0.333,0.051,0.623,0.067,0.886,0.049c0.325-0.022,0.653-0.053,0.971-0.083
			c0.41-0.039,0.834-0.079,1.25-0.098c0.363-0.019,0.677-0.114,0.987-0.308c0.438-0.27,0.887-0.533,1.324-0.788
			c0.138-0.081,0.275-0.161,0.412-0.243l0.396,0.365c0.357,0.329,0.705,0.648,1.055,0.969c0.283,0.257,0.568,0.509,0.854,0.763
			c0.632,0.563,1.287,1.143,1.888,1.749c0.436,0.438,0.913,0.532,1.323,0.564c0.116,0.008,0.233,0.013,0.353,0.016
			c0.21,0.005,0.428-0.048,0.599-0.142c0.506-0.279,0.937-0.539,1.316-0.793c0.757-0.511,1.289-1.24,1.803-1.947l0.136-0.187
			l-0.128-0.115C84.025,97.675,83.678,97.5,83.299,97.47z M69.92,78.796c0.033-0.004,0.064-0.009,0.096-0.014
			c0.189-0.031,0.369-0.062,0.545-0.071c0.371-0.022,0.749-0.037,1.116-0.051c0.736-0.027,1.497-0.057,2.242-0.153
			c0.724-0.096,1.505-0.104,2.462-0.028c0.083,0.006,0.166,0.013,0.249,0.021l0.034,0.002c0.19,0.016,0.381,0.013,0.564,0.01
			c0.107-0.002,0.214-0.004,0.322,0c0.213,0.003,0.426,0.01,0.675,0.018l0.143,0.005l-0.279,1.104
			c-0.035,0.02-0.075,0.037-0.105,0.04c-1.218,0.137-2.443,0.27-3.641,0.396c-0.661,0.068-1.303,0.065-1.969-0.01
			c-0.562-0.063-1.141-0.047-1.698-0.032c-0.238,0.006-0.476,0.013-0.713,0.015c-0.07,0-0.14,0.003-0.214,0.006
			c-0.062-0.18-0.015-0.356,0.061-0.61C69.87,79.246,69.934,79.032,69.92,78.796z M78.937,76.258
			c-0.047,0.221-0.106,0.443-0.168,0.68c-0.021,0.081-0.044,0.166-0.066,0.253c-0.031,0.013-0.076,0.033-0.093,0.031
			c-0.077-0.014-0.159-0.023-0.241-0.03c-0.294-0.024-0.582,0.007-0.859,0.037c-0.272,0.029-0.53,0.058-0.787,0.037l-0.023-0.002
			c-0.522-0.048-1.046-0.08-1.569-0.114l-0.35-0.022c-0.12-0.008-0.234,0.004-0.353,0.017c-0.219,0.023-0.438,0.053-0.658,0.082
			c-0.457,0.061-0.93,0.122-1.394,0.143c-0.528,0.022-1.055,0.008-1.611-0.008c-0.187-0.005-0.376-0.01-0.566-0.015
			c-0.006-0.443,0.12-0.839,0.253-1.253c0.052-0.164,0.105-0.329,0.151-0.503c0.125,0,0.248-0.001,0.37-0.001
			c0.416,0,0.807-0.002,1.206-0.017c0.208-0.007,0.412-0.034,0.611-0.062c0.08-0.011,0.163-0.021,0.243-0.031
			c0.087-0.01,0.173-0.022,0.259-0.036c0.177-0.026,0.344-0.051,0.508-0.051c0.056-0.002,0.11,0,0.164,0
			c0.343,0.003,0.697,0.008,1.062-0.175c0.095-0.047,0.241-0.044,0.396-0.041c0.088,0.002,0.18,0.004,0.271-0.005
			c0.274-0.022,0.547-0.065,0.812-0.107c0.47-0.073,0.915-0.146,1.372-0.109h0.008c0.081,0.007,0.162,0.012,0.244,0.017
			c0.161,0.008,0.322,0.018,0.48,0.042c0.31,0.05,0.447,0.202,0.445,0.496c-0.002,0.222-0.053,0.458-0.103,0.686L78.937,76.258z
			 M69.338,82.565c0.04-0.349,0.077-0.679,0.125-1.006c0.011-0.079,0.026-0.129,0.193-0.146c0.952-0.1,1.842-0.114,2.721-0.045
			l0.157,0.013c1.133,0.09,2.005,0.049,2.828-0.135c0.434-0.097,0.892-0.143,1.334-0.189c0.218-0.021,0.435-0.043,0.65-0.07
			c0.182-0.024,0.32,0.014,0.445,0.126l-0.256,1.317c-0.114,0.01-0.226,0.021-0.335,0.031c-0.328,0.03-0.638,0.06-0.946,0.075
			c-1.233,0.065-2.441,0.129-3.661,0.17c-0.283,0.01-0.572,0.002-0.854-0.006c-0.243-0.008-0.494-0.017-0.742-0.012
			c-0.303,0.005-0.585,0.044-0.838,0.114c-0.188,0.052-0.373,0.045-0.529,0.034c-0.069-0.005-0.138-0.014-0.209-0.021
			c-0.036-0.003-0.073-0.008-0.109-0.011C69.319,82.724,69.329,82.644,69.338,82.565z"/>
		<path fill="#FFFFFF" d="M62.93,78.17c-0.491-0.117-0.884-0.233-1.235-0.368c-0.347-0.132-0.6-0.085-0.831,0.137
			c-0.217,0.209-0.485,0.297-0.897,0.301c-0.578,0.003-1.157,0.028-1.719,0.073c-0.197,0.017-0.391,0.052-0.58,0.085
			c-0.198,0.036-0.385,0.071-0.575,0.084c-0.498,0.034-1.006,0.048-1.498,0.063c-0.19,0.007-0.381,0.012-0.571,0.018
			c-0.138,0.005-0.277,0.009-0.419,0.012h-0.046c-0.007-0.042-0.013-0.077-0.012-0.106c0.001-0.604-0.269-0.97-0.824-1.124
			c-0.265-0.076-0.518-0.193-0.787-0.318c-0.101-0.047-0.201-0.095-0.303-0.14c-0.486-0.214-0.892-0.157-1.333,0.17l-0.108,0.082
			l0.041,0.129c0.025,0.08,0.044,0.164,0.063,0.247c0.049,0.217,0.1,0.438,0.25,0.603c0.161,0.177,0.229,0.346,0.233,0.586
			c0.004,0.296-0.003,0.614-0.021,0.998c-0.026,0.548-0.093,1.104-0.158,1.642c-0.087,0.713-0.175,1.451-0.173,2.191
			c0.001,0.663-0.06,1.343-0.118,1.998c-0.03,0.323-0.059,0.646-0.081,0.969c-0.013,0.202-0.028,0.41-0.003,0.62
			c0.046,0.384,0.264,0.618,0.601,0.645c0.095,0.008,0.201-0.002,0.313-0.027c0.047-0.012,0.095-0.027,0.142-0.044
			c0.059-0.021,0.12-0.041,0.158-0.038c0.91,0.055,1.742-0.233,2.506-0.555c0.569-0.237,1.153-0.329,1.805-0.416
			c0.302-0.04,0.615-0.065,0.917-0.091c0.185-0.017,0.369-0.031,0.553-0.049c0.104-0.011,0.209-0.027,0.313-0.045
			c0.174-0.027,0.337-0.055,0.496-0.048c0.034,0,0.065,0.001,0.094,0.003c0.104,0.01,0.129,0.024,0.129,0.024
			c0.013,0.018,0.023,0.077,0.012,0.267c-0.042,0.743,0.048,0.887,0.742,1.174c0.037,0.017,0.074,0.031,0.111,0.044
			c0.682,0.235,1.69-0.148,1.796-1.001c0.018-0.139,0.042-0.273,0.07-0.418c0.028-0.15,0.059-0.309,0.076-0.466
			c0.096-0.815,0.33-1.619,0.556-2.396c0.09-0.31,0.181-0.616,0.263-0.928c0.093-0.351,0.228-0.682,0.37-1.031
			c0.187-0.458,0.38-0.932,0.467-1.447c0.012-0.068,0.024-0.136,0.037-0.203c0.046-0.244,0.093-0.498,0.091-0.763
			C63.832,78.593,63.628,78.335,62.93,78.17z M54.023,83.966c0.015-0.242,0.028-0.474,0.052-0.705
			c0.093-0.877,0.226-1.915,0.491-2.956c0.018-0.069,0.029-0.145,0.041-0.22c0.011-0.082,0.034-0.234,0.065-0.262
			c0.043-0.036,0.207-0.031,0.314-0.027c0.063,0.001,0.125,0.003,0.183,0.001c0.239-0.008,0.479-0.015,0.72-0.021
			c0.363-0.008,0.727-0.018,1.091-0.034c0.185-0.009,0.367-0.033,0.544-0.058c0.121-0.016,0.242-0.032,0.363-0.043
			c0.198-0.018,0.395-0.037,0.592-0.055c0.637-0.062,1.295-0.122,1.943-0.161c0.07-0.003,0.129-0.003,0.178,0
			c0.076,0.007,0.127,0.022,0.147,0.045c0.019,0.024,0.046,0.102,0.01,0.346c-0.08,0.546-0.196,1.099-0.308,1.634l-0.083,0.398
			c-0.139,0.673-0.285,1.345-0.432,2.015l-0.048,0.225c-0.02,0.09-0.046,0.177-0.072,0.265c-0.014,0.045-0.026,0.091-0.039,0.136
			c-0.113,0.401-0.443,0.636-0.885,0.628c-0.421-0.008-0.824,0.064-1.214,0.135c-0.345,0.063-0.67,0.12-1.003,0.127
			c-0.28,0.006-0.55,0.058-0.81,0.107c-0.324,0.063-0.629,0.121-0.946,0.095l-0.02-0.001c-0.231-0.019-0.455,0.049-0.671,0.113
			c-0.107,0.032-0.208,0.063-0.307,0.082c-0.05,0.01-0.105,0.015-0.169,0.018C53.953,85.166,53.989,84.557,54.023,83.966z"/>
		<path fill="#FFFFFF" d="M86.367,85.089c-0.101-0.396-0.249-0.781-0.391-1.153c-0.046-0.122-0.093-0.244-0.139-0.366
			c-0.147-0.398-0.387-0.64-0.733-0.736c-0.115-0.033-0.23-0.075-0.351-0.122c-0.22-0.082-0.448-0.167-0.691-0.189l-0.071-0.006
			c-0.79-0.062-1.55,0.021-1.76,1.034l-0.025,0.12l0.101,0.072c0.06,0.044,0.124,0.084,0.187,0.122
			c0.113,0.069,0.222,0.137,0.283,0.217c0.421,0.543,0.72,1.154,0.891,1.814c0.131,0.509,0.235,0.648,0.766,0.735l0.028,0.005
			c0.077,0.013,0.157,0.025,0.201,0.053c0.141,0.087,0.3,0.139,0.471,0.151c0.23,0.018,0.451-0.032,0.654-0.089
			c0.244-0.067,0.554-0.324,0.61-0.586C86.469,85.834,86.458,85.442,86.367,85.089z"/>
	</g>
</g>
<g>
	<path fill="#FFFFFF" d="M30.776,76.858c0.149,0.033,0.308,0.033,0.462,0.048c0.914,0.029,1.444-0.63,1.214-1.499
		c-0.048-0.18-0.048-0.385-0.02-0.57c0.081-0.52-0.152-0.879-0.682-1.005c-0.661-0.157-1.038,0.027-1.182,0.578
		c-0.041,0.15-0.041,0.351-0.142,0.435c-0.394,0.338-0.363,0.749-0.313,1.203C30.18,76.638,30.221,76.729,30.776,76.858z"/>
	<path fill="#FFFFFF" d="M27.289,76.549c0.459,0.068,1.152-0.265,1.215-0.612c0.086-0.471,0.136-0.95,0.207-1.446
		c0.013-0.555-0.022-0.595-0.608-0.675c-0.131-0.018-0.268-0.081-0.389-0.063c-0.164,0.027-0.379,0.07-0.46,0.185
		c-0.383,0.543-0.709,1.119-0.687,1.819C26.582,76.213,26.824,76.479,27.289,76.549z"/>
	<path fill="#FFFFFF" d="M49.72,114.274c-0.389-0.525-0.924-0.961-1.058-1.658c-0.02-0.112-0.174-0.194-0.248-0.305
		c-0.416-0.629-1.025-1.087-1.518-1.648c-0.596-0.678-0.74-1.466-1.005-2.254c-0.167-0.493-0.162-0.992-0.255-1.486
		c-0.136-0.733-0.318-1.462-0.389-2.203c-0.061-0.611,0.028-1.234,0.031-1.854c0.002-0.888,0.01-1.775-0.028-2.663
		c-0.04-0.995-0.146-1.987-0.187-2.982c-0.028-0.688-0.053-1.362-0.508-1.938c-0.078-0.101-0.139-0.237-0.154-0.363
		c-0.076-0.646-0.295-1.227-0.629-1.79c-0.371-0.624-0.651-1.304-0.959-1.964c-0.621-1.35-1.892-1.863-3.124-2.405
		c-0.685-0.301-1.399-0.531-2.111-0.768c-0.311-0.104-0.641-0.147-0.964-0.201c-0.306-0.052-0.619-0.055-0.917-0.123
		c-1.225-0.274-2.453-0.386-3.694-0.133c-0.536,0.108-1.071,0.219-1.609,0.331c-0.041,0.009-0.081,0.031-0.121,0.05
		c-0.795,0.381-1.591,0.761-2.381,1.149c-0.217,0.105-0.407,0.305-0.631,0.354c-0.942,0.203-1.384,1.064-2.101,1.557
		c-0.268,0.185-0.518,0.396-0.752,0.62c-1.076,1.017-2.078,2.103-2.944,3.302c-0.374,0.516-0.737,1.065-0.967,1.654
		c-0.288,0.731-0.383,1.537-0.644,2.282c-0.326,0.931-0.51,1.877-0.523,2.855c-0.005,0.487,0.013,0.976,0.041,1.461
		c0.03,0.481,0.068,0.963,0.136,1.439c0.058,0.429,0.164,0.851,0.275,1.411c-1.048-0.606-2.121-0.886-2.863-1.789
		c-0.407-0.494-0.786-1.002-1.145-1.524c-0.447-0.654-0.929-1.292-1.187-2.058c-0.041-0.12-0.108-0.268-0.209-0.326
		c-0.339-0.197-0.389-0.511-0.432-0.85c-0.018-0.15-0.076-0.297-0.129-0.439c-0.611-1.668-1.018-3.339-0.914-5.164
		c0.083-1.464,0.376-2.879,0.565-4.316c0.018-0.126,0.079-0.251,0.131-0.371c0.384-0.864,0.738-1.727,1.283-2.523
		c0.493-0.717,0.922-1.452,1.542-2.09c0.733-0.753,1.561-1.357,2.414-1.94c0.47-0.322,0.973-0.609,1.488-0.853
		c0.437-0.207,0.914-0.324,1.369-0.487c0.209-0.075,0.404-0.203,0.616-0.241c1.561-0.295,3.116-0.633,4.715-0.648
		c0.26-0.002,0.52,0.026,0.78,0.025c1.066-0.005,2.131-0.07,3.189-0.01c0.99,0.055,1.919,0,2.811-0.488
		c0.556-0.305,1.184-0.478,1.669-0.914c0.566-0.506,1.187-0.916,1.915-1.158c0.131-0.045,0.257-0.185,0.333-0.313
		c0.77-1.269,1.455-2.569,1.49-4.107c0.013-0.483-0.022-0.989,0.114-1.441c0.149-0.495,0.068-0.901-0.114-1.343
		c-0.167-0.41-0.283-0.839-0.434-1.253c-0.099-0.27-0.182-0.559-0.343-0.787c-0.808-1.135-1.611-2.291-2.803-3.063
		c-0.624-0.404-1.293-0.799-2-0.996c-0.53-0.147-1.042-0.3-1.548-0.522c-0.543-0.239-1.116-0.416-1.689-0.574
		c-0.616-0.17-1.25-0.269-1.871-0.426c-1.235-0.312-2.477-0.31-3.725-0.128c-0.372,0.053-0.73,0.203-1.101,0.247
		c-1.422,0.164-2.742,0.608-3.975,1.332c-0.128,0.077-0.293,0.092-0.437,0.149c-0.26,0.102-0.52,0.205-0.773,0.326
		c-0.136,0.063-0.247,0.194-0.386,0.235c-1.03,0.306-1.866,0.966-2.765,1.511c-0.429,0.259-0.792,0.628-1.224,0.888
		c-0.627,0.378-1.205,0.791-1.67,1.37c-0.383,0.479-0.81,0.923-1.242,1.36c-0.215,0.219-0.508,0.366-0.72,0.588
		c-0.606,0.642-1.194,1.301-1.778,1.962c-0.174,0.197-0.275,0.466-0.465,0.64c-0.752,0.689-1.401,1.457-1.889,2.355
		c-0.306,0.56-0.624,1.111-0.904,1.685c-0.455,0.93-0.886,1.871-1.32,2.813c-0.303,0.66-0.558,1.341-0.897,1.982
		c-0.409,0.777-0.54,1.629-0.76,2.46c-0.134,0.509-0.199,1.043-0.389,1.53c-0.232,0.613-0.331,1.229-0.371,1.878
		c-0.045,0.724-0.169,1.445-0.288,2.162c-0.144,0.85-0.401,1.689-0.457,2.543c-0.081,1.271-0.041,2.549-0.022,3.823
		c0.012,0.617,0.073,1.237,0.151,1.85c0.096,0.725,0.283,1.44,0.343,2.168c0.096,1.154,0.505,2.194,1.045,3.194
		c0.101,0.189,0.26,0.354,0.419,0.503c0.192,0.178,0.267,0.353,0.26,0.635c-0.013,0.431,0.028,0.873,0.379,1.218
		c0.119,0.116,0.154,0.315,0.228,0.478c0.234,0.524,0.404,1.091,0.722,1.557c0.313,0.458,0.556,1.007,1.101,1.284
		c0.114,0.056,0.202,0.171,0.286,0.271c0.482,0.572,0.984,1.13,1.429,1.731c0.447,0.601,0.811,1.264,1.257,1.866
		c0.419,0.569,0.841,1.158,1.364,1.626c1.151,1.021,2.447,1.824,3.942,2.263c0.086,0.023,0.197,0.035,0.242,0.094
		c0.394,0.507,1.003,0.638,1.543,0.878c0.563,0.248,1.144,0.465,1.729,0.655c0.988,0.322,2.025,0.168,3.033,0.306
		c0.106,0.014,0.22-0.024,0.328-0.034c1.232-0.111,2.464-0.214,3.697-0.334c0.414-0.041,0.826-0.118,1.237-0.184
		c0.129-0.021,0.258-0.061,0.384-0.091c0.566-0.134,1.187-0.081,1.659-0.527c0.088-0.084,0.24-0.122,0.369-0.145
		c0.629-0.104,1.142-0.459,1.677-0.763c0.459-0.259,0.887-0.599,1.374-0.772c0.637-0.229,1.2-0.548,1.748-0.928
		c0.611-0.426,1.058-1.055,1.729-1.405c0.036-0.019,0.041-0.083,0.076-0.106c0.116-0.08,0.24-0.151,0.432-0.269
		c0.5,0.977,0.96,1.902,1.444,2.812c0.516,0.965,0.93,2.008,1.962,2.58c0.076,0.042,0.131,0.119,0.194,0.18
		c0.429,0.386,0.854,0.772,1.285,1.154c1.359,1.198,3.03,1.033,4.659,1.065c0.043,0,0.088-0.011,0.129-0.027
		c1.131-0.431,2.34-0.692,3.343-1.409c0.654-0.464,1.444-0.851,1.426-1.857c-0.002-0.138,0.129-0.276,0.19-0.417
		c0.043-0.097,0.106-0.198,0.108-0.299c0.027-0.838,0.038-1.679,0.065-2.518C49.968,114.727,49.892,114.506,49.72,114.274z
		 M25.862,101.574c0.131-0.415,0.328-0.819,0.548-1.198c0.228-0.396,0.629-0.548,1.068-0.484c0.452,0.066,0.649,0.435,0.743,0.836
		c0.06,0.255,0.058,0.525,0.083,0.787c-0.01,0.371,0.081,0.746-0.311,1.016c-0.396,0.273-1.386,0.324-1.765,0.038
		C25.896,102.317,25.741,101.963,25.862,101.574z M22.037,102.528c0.02-1.113,0.207-1.355,1.311-1.621
		c0.614,0.55,0.651,1.308,0.684,2.056c0.005,0.136-0.093,0.3-0.192,0.407c-0.3,0.33-1.426,0.428-1.752,0.138
		c-0.104-0.093-0.131-0.303-0.137-0.464C21.946,102.874,22.034,102.7,22.037,102.528z M38.407,106.099
		c-0.335,1.003-0.788,1.968-1.156,2.959c-0.576,1.552-1.803,2.45-3.141,3.275c-0.516,0.321-0.935,0.8-1.399,1.202
		c-0.8,0.697-1.608,1.361-2.659,1.697c-0.532,0.169-0.984,0.573-1.49,0.841c-0.447,0.237-0.901,0.487-1.381,0.639
		c-1.293,0.409-2.616,0.666-3.977,0.728c-0.642,0.026-1.278,0.148-1.919,0.159c-0.927,0.016-1.859,0.02-2.78-0.066
		c-0.49-0.045-0.987-0.237-1.437-0.455c-0.99-0.482-1.911-1.128-2.934-1.509c-0.874-0.325-1.568-0.901-2.366-1.32
		c-0.25-0.129-0.462-0.345-0.654-0.557c-0.596-0.656-1.094-1.385-1.586-2.123c-0.376-0.564-0.851-1.063-1.275-1.597
		c-0.151-0.189-0.275-0.401-0.427-0.592c-0.328-0.413-0.679-0.81-0.997-1.229c-0.439-0.58-0.861-1.173-1.283-1.768
		c-0.149-0.213-0.295-0.438-0.399-0.677c-0.197-0.454-0.369-0.92-0.538-1.386c-0.111-0.298-0.223-0.569-0.568-0.687
		c-0.29-0.098-0.321-0.387-0.386-0.649c-0.078-0.315-0.209-0.619-0.288-0.936c-0.114-0.45-0.222-0.905-0.292-1.364
		c-0.083-0.522-0.131-1.051-0.177-1.578c-0.051-0.614-0.081-1.232-0.114-1.725c0.128-1.088,0.255-2.043,0.351-3
		c0.063-0.639,0.053-1.284,0.134-1.918c0.128-0.987,0.311-1.969,0.469-2.951c0.2-1.244,0.359-2.5,0.617-3.734
		c0.189-0.904,0.51-1.783,0.765-2.675c0.058-0.207,0.083-0.424,0.121-0.638c0.007-0.041-0.025-0.106-0.005-0.128
		c0.543-0.55,0.366-1.399,0.841-1.986c0.154-0.188,0.133-0.505,0.242-0.742c0.379-0.844,0.677-1.747,1.197-2.497
		c0.583-0.841,1.053-1.773,1.856-2.479c0.674-0.597,1.192-1.366,1.808-2.03c0.508-0.551,1.071-1.051,1.588-1.592
		c1.021-1.063,2.207-1.916,3.392-2.775c0.699-0.505,1.409-0.993,2.146-1.434c0.449-0.268,0.967-0.422,1.444-0.644
		c0.298-0.139,0.566-0.356,0.871-0.455c1.339-0.43,2.629-0.992,4.071-1.107c0.935-0.075,1.859-0.1,2.786-0.021
		c1.043,0.092,2.038,0.366,3,0.789c0.618,0.272,1.265,0.479,1.891,0.733c0.243,0.1,0.459,0.261,0.689,0.389
		c1.142,0.64,2.022,1.508,2.73,2.632c0.444,0.706,0.783,1.424,0.975,2.204c0.204,0.833,0.268,1.697,0.07,2.556
		c-0.146,0.624-0.232,1.266-0.421,1.874c-0.114,0.365-0.303,0.763-0.581,1.01c-0.957,0.861-2.061,1.543-3.23,2.06
		c-0.518,0.229-1.172,0.177-1.765,0.198c-0.459,0.017-0.924-0.073-1.386-0.078c-0.995-0.009-1.993,0.002-2.987,0.015
		c-0.194,0.003-0.387,0.051-0.579,0.086c-0.086,0.016-0.179,0.092-0.25,0.073c-0.536-0.142-1.053,0.004-1.576,0.063
		c-0.417,0.048-0.835,0.071-1.245,0.156c-1.831,0.384-3.548,1.097-5.212,1.927c-0.626,0.314-1.164,0.806-1.76,1.188
		c-1.03,0.655-1.765,1.575-2.421,2.58c-0.753,1.154-1.333,2.382-1.685,3.716c-0.045,0.172-0.076,0.354-0.154,0.509
		c-0.535,1.045-0.649,2.177-0.722,3.321c-0.023,0.328-0.091,0.653-0.102,0.981c-0.04,1.627,0.152,3.232,0.591,4.792
		c0.252,0.885,0.689,1.719,1.045,2.574c0.051,0.121,0.106,0.239,0.161,0.36c0.508,1.059,1.01,2.119,1.861,2.965
		c0.152,0.15,0.235,0.369,0.351,0.555c0.396,0.633,0.99,1.047,1.596,1.448c0.129,0.086,0.273,0.156,0.384,0.262
		c0.558,0.521,1.245,0.82,1.947,1.056c0.601,0.2,1.24,0.29,1.858,0.445c0.932,0.232,1.889,0.212,2.828,0.156
		c0.588-0.032,1.172-0.111,1.768-0.116c0.5-0.002,0.962-0.269,1.437-0.462c0.505-0.206,0.813-0.63,1.283-0.861
		c0.467-0.229,0.889-0.57,1.295-0.905c0.339-0.278,0.599-0.652,0.937-0.93c1.083-0.882,1.55-2.226,2.462-3.235
		c0.159-0.736,0.568-1.33,1.043-1.899c0.243-0.285,0.498-0.501,0.866-0.57c0.836-0.156,1.694-0.198,2.49,0.073
		c0.591,0.203,1.05,0.674,1.288,1.326C38.913,102.411,39.024,104.252,38.407,106.099z"/>
</g>
<path fill="#FFFFFF" d="M78.213,113.276v3.547c0,0.045-0.144,0.14-0.431,0.284s-0.72,0.277-1.299,0.399
	c-0.58,0.122-1.283,0.183-2.112,0.183c-1.089-0.023-1.95-0.225-2.581-0.603s-1.077-0.946-1.338-1.704
	c-0.262-0.759-0.392-1.756-0.392-2.994c0.027-0.996,0.179-1.834,0.454-2.514c0.275-0.679,0.712-1.2,1.31-1.564
	s1.383-0.554,2.356-0.567c0.924,0,1.73,0.056,2.418,0.168c0.688,0.111,1.042,0.196,1.063,0.255l0.381,1.583
	c0-0.011-0.113-0.079-0.34-0.206c-0.248-0.138-0.572-0.261-0.975-0.369c-0.402-0.108-0.892-0.162-1.469-0.162
	c-0.268,0-0.479,0.007-0.634,0.021c-1.41,0.09-2.114,1.208-2.114,3.356c0,0.743,0.033,1.392,0.098,1.947
	c0.065,0.555,0.22,1.033,0.464,1.436s0.607,0.628,1.088,0.676c0.588,0,1.03-0.054,1.325-0.16c0.296-0.106,0.48-0.194,0.552-0.263
	v-2.748H78.213z"/>
<path fill="#FFFFFF" d="M83.405,117.607v-0.737c-0.055,0.127-0.24,0.285-0.554,0.475c-0.315,0.188-0.849,0.283-1.601,0.283
	c-0.643-0.023-1.178-0.188-1.604-0.495c-0.426-0.306-0.645-0.789-0.655-1.449c0-0.708,0.253-1.238,0.761-1.593
	c0.507-0.354,1.268-0.569,2.282-0.645c0.467-0.038,0.828-0.157,1.08-0.358c0.253-0.201,0.379-0.427,0.379-0.678
	c0-0.255-0.116-0.473-0.348-0.655c-0.232-0.183-0.546-0.273-0.941-0.273c-0.814,0-1.448,0.15-1.9,0.451s-0.749,0.553-0.89,0.756
	l0.294-1.397c0-0.024,0.107-0.099,0.322-0.222c0.215-0.124,0.515-0.24,0.9-0.349c0.385-0.108,0.844-0.164,1.377-0.167
	c1.086,0,1.872,0.185,2.356,0.554c0.484,0.37,0.727,0.854,0.727,1.452v5.048H83.405z M82.436,116.509
	c0.646-0.175,0.969-0.457,0.969-0.846v-1.604c-0.003,0.011-0.028,0.06-0.072,0.147c-0.045,0.087-0.146,0.174-0.304,0.26
	s-0.399,0.148-0.722,0.186c-0.55,0.076-0.97,0.199-1.258,0.369c-0.289,0.17-0.433,0.462-0.433,0.874
	c0.044,0.478,0.426,0.717,1.145,0.717C81.977,116.612,82.202,116.578,82.436,116.509z"/>
<path fill="#FFFFFF" d="M94.347,113.276v3.547c0,0.045-0.144,0.14-0.431,0.284s-0.72,0.277-1.299,0.399
	c-0.58,0.122-1.283,0.183-2.112,0.183c-1.089-0.023-1.95-0.225-2.581-0.603s-1.077-0.946-1.338-1.704
	c-0.262-0.759-0.392-1.756-0.392-2.994c0.027-0.996,0.179-1.834,0.454-2.514c0.275-0.679,0.712-1.2,1.31-1.564
	s1.383-0.554,2.356-0.567c0.924,0,1.73,0.056,2.418,0.168c0.688,0.111,1.042,0.196,1.063,0.255l0.381,1.583
	c0-0.011-0.113-0.079-0.34-0.206c-0.248-0.138-0.572-0.261-0.975-0.369c-0.402-0.108-0.892-0.162-1.469-0.162
	c-0.268,0-0.479,0.007-0.634,0.021c-1.41,0.09-2.114,1.208-2.114,3.356c0,0.743,0.033,1.392,0.098,1.947
	c0.065,0.555,0.22,1.033,0.464,1.436s0.607,0.628,1.088,0.676c0.588,0,1.03-0.054,1.325-0.16c0.296-0.106,0.48-0.194,0.552-0.263
	v-2.748H94.347z"/>
<path fill="#FFFFFF" d="M99.54,117.607v-0.737c-0.055,0.127-0.24,0.285-0.554,0.475c-0.315,0.188-0.849,0.283-1.601,0.283
	c-0.643-0.023-1.178-0.188-1.604-0.495c-0.426-0.306-0.645-0.789-0.655-1.449c0-0.708,0.253-1.238,0.761-1.593
	c0.507-0.354,1.268-0.569,2.282-0.645c0.467-0.038,0.828-0.157,1.08-0.358c0.253-0.201,0.379-0.427,0.379-0.678
	c0-0.255-0.116-0.473-0.348-0.655c-0.232-0.183-0.546-0.273-0.941-0.273c-0.814,0-1.448,0.15-1.9,0.451s-0.749,0.553-0.89,0.756
	l0.294-1.397c0-0.024,0.107-0.099,0.322-0.222c0.215-0.124,0.515-0.24,0.9-0.349c0.385-0.108,0.844-0.164,1.377-0.167
	c1.086,0,1.872,0.185,2.356,0.554c0.484,0.37,0.727,0.854,0.727,1.452v5.048H99.54z M98.57,116.509
	c0.646-0.175,0.969-0.457,0.969-0.846v-1.604c-0.003,0.011-0.028,0.06-0.072,0.147c-0.045,0.087-0.146,0.174-0.304,0.26
	s-0.399,0.148-0.722,0.186c-0.55,0.076-0.97,0.199-1.258,0.369c-0.289,0.17-0.433,0.462-0.433,0.874
	c0.044,0.478,0.426,0.717,1.145,0.717C98.111,116.612,98.336,116.578,98.57,116.509z"/>
<path fill="#FFFFFF" d="M109.847,117.607h-2.238v-9.844h6.698v1.228h-4.46v2.872h3.718v1.222h-3.718V117.607z"/>
<path fill="#FFFFFF" d="M118.954,117.607v-0.737c-0.055,0.127-0.24,0.285-0.554,0.475c-0.315,0.188-0.849,0.283-1.601,0.283
	c-0.643-0.023-1.178-0.188-1.604-0.495c-0.426-0.306-0.645-0.789-0.655-1.449c0-0.708,0.253-1.238,0.761-1.593
	c0.507-0.354,1.268-0.569,2.282-0.645c0.467-0.038,0.828-0.157,1.08-0.358c0.253-0.201,0.379-0.427,0.379-0.678
	c0-0.255-0.116-0.473-0.348-0.655c-0.232-0.183-0.546-0.273-0.941-0.273c-0.814,0-1.448,0.15-1.9,0.451s-0.749,0.553-0.89,0.756
	l0.294-1.397c0-0.024,0.107-0.099,0.322-0.222c0.215-0.124,0.515-0.24,0.9-0.349c0.385-0.108,0.844-0.164,1.377-0.167
	c1.086,0,1.872,0.185,2.356,0.554c0.484,0.37,0.727,0.854,0.727,1.452v5.048H118.954z M117.984,116.509
	c0.646-0.175,0.969-0.457,0.969-0.846v-1.604c-0.003,0.011-0.028,0.06-0.072,0.147c-0.045,0.087-0.146,0.174-0.304,0.26
	s-0.399,0.148-0.722,0.186c-0.55,0.076-0.97,0.199-1.258,0.369c-0.289,0.17-0.433,0.462-0.433,0.874
	c0.044,0.478,0.426,0.717,1.145,0.717C117.525,116.612,117.75,116.578,117.984,116.509z"/>
<path fill="#FFFFFF" d="M121.764,117.607v-7.033h1.985v0.866c0.007-0.007,0.047-0.056,0.121-0.147
	c0.074-0.091,0.185-0.186,0.333-0.286c0.148-0.1,0.349-0.193,0.604-0.283c0.271-0.113,0.617-0.17,1.036-0.17
	c0.323,0,0.526,0.014,0.609,0.041l0.17,1.016c-0.241-0.059-0.466-0.088-0.675-0.088c-0.458,0-0.837,0.086-1.14,0.258
	c-0.34,0.169-0.602,0.399-0.784,0.691c-0.183,0.292-0.273,0.561-0.273,0.805v4.331H121.764z"/>
<path fill="#FFFFFF" d="M127.167,117.607v-7.033h1.985v0.572c0.409-0.409,1.037-0.613,1.882-0.613c0.598,0,1.018,0.107,1.261,0.324
	c0.242,0.217,0.384,0.397,0.425,0.542c0.003-0.007,0.073-0.085,0.209-0.232c0.136-0.147,0.336-0.282,0.601-0.404
	s0.602-0.192,1.011-0.209c0.753,0,1.317,0.172,1.694,0.516s0.564,0.79,0.564,1.341v5.197h-1.521v-5.027
	c0-0.633-0.38-0.949-1.14-0.949c-0.399,0.027-0.683,0.172-0.854,0.434c-0.17,0.261-0.272,0.476-0.307,0.645v4.898h-1.521v-5.027
	c0-0.271-0.093-0.498-0.279-0.679c-0.186-0.18-0.474-0.271-0.866-0.271c-0.419,0.042-0.711,0.199-0.876,0.472
	c-0.165,0.273-0.26,0.496-0.284,0.668v4.837H127.167z"/>
<path fill="#FFFFFF" d="M138.744,107.743c0.351,0,0.625,0.11,0.822,0.33s0.296,0.483,0.296,0.789c0,0.313-0.101,0.581-0.302,0.805
	c-0.201,0.223-0.48,0.335-0.838,0.335c-0.344,0-0.617-0.113-0.82-0.338c-0.203-0.226-0.304-0.485-0.304-0.781
	c0-0.303,0.102-0.568,0.304-0.797C138.106,107.857,138.386,107.743,138.744,107.743z M137.749,117.607v-7.033h1.965v7.033H137.749z"
	/>
<path fill="#FFFFFF" d="M146.665,112.198v5.409h-1.48v-5.151c0-0.591-0.451-0.887-1.351-0.887c-0.44,0.052-0.755,0.188-0.946,0.41
	s-0.305,0.401-0.343,0.538v5.09h-1.985v-7.033h1.985v0.572c0.027-0.018,0.121-0.079,0.281-0.186c0.16-0.106,0.387-0.205,0.681-0.294
	c0.294-0.09,0.635-0.134,1.024-0.134c0.732,0,1.271,0.167,1.616,0.502C146.492,111.371,146.665,111.759,146.665,112.198z"/>
<path fill="#FFFFFF" d="M150.253,119.17c1.086,0,1.629-0.323,1.629-0.97v-0.907c-0.502,0.251-1.116,0.376-1.841,0.376
	c-0.529-0.021-0.98-0.107-1.354-0.26c-0.373-0.153-0.691-0.493-0.954-1.021c-0.263-0.527-0.395-1.304-0.395-2.328
	c0.028-1.059,0.196-1.847,0.505-2.364c0.31-0.517,0.659-0.84,1.049-0.969s0.836-0.193,1.338-0.193
	c0.278,0.014,0.534,0.06,0.766,0.139s0.439,0.167,0.622,0.263c0.175,0.093,0.263,0.142,0.263,0.145v-0.505h1.965v7.307
	c0,1.427-1.05,2.158-3.151,2.196c-0.753,0-1.374-0.063-1.864-0.19c-0.49-0.127-0.77-0.226-0.838-0.294l-0.15-1.099
	c0.155,0.104,0.449,0.235,0.882,0.397C149.16,119.053,149.669,119.146,150.253,119.17z M151.883,112.074
	c0-0.037-0.119-0.129-0.356-0.275c-0.237-0.146-0.505-0.245-0.804-0.297c-0.447,0-0.802,0.092-1.065,0.276
	c-0.263,0.184-0.45,0.462-0.562,0.835s-0.176,0.869-0.193,1.487c0,0.836,0.122,1.488,0.366,1.957
	c0.244,0.47,0.707,0.704,1.387,0.704c0.361-0.024,0.641-0.083,0.84-0.178s0.328-0.169,0.387-0.225V112.074z"/>
</svg>
