<?xml version="1.0" encoding="utf-8"?>
<!-- Generator: Adobe Illustrator 16.0.0, SVG Export Plug-In . SVG Version: 6.00 Build 0)  -->
<!DOCTYPE svg PUBLIC "-//W3C//DTD SVG 1.1//EN" "http://www.w3.org/Graphics/SVG/1.1/DTD/svg11.dtd">
<svg version="1.1" id="Capa_1" xmlns="http://www.w3.org/2000/svg" xmlns:xlink="http://www.w3.org/1999/xlink" x="0px" y="0px"
	 width="49.652px" height="49.652px" viewBox="0 0 49.652 49.652" enable-background="new 0 0 49.652 49.652" xml:space="preserve">
<path fill="none" stroke="#8B8B8B" stroke-miterlimit="10" d="M24.826,0C11.137,0,0,11.137,0,24.826s11.138,24.826,24.826,24.826
	s24.826-11.138,24.826-24.826S38.516,0,24.826,0z"/>
<path fill="#8B8B8B" d="M33.219,36.659c-1.15,0.542-2.196,0.926-3.135,1.144c-0.936,0.218-1.943,0.328-3.031,0.328
	c-1.233,0-1.964-0.155-2.91-0.467c-0.949-0.312-1.759-0.76-2.428-1.333c-0.672-0.577-1.134-1.189-1.393-1.839
	c-0.259-0.65-0.389-1.593-0.389-2.828v-9.466h-3.668v-3.824c1.06-0.344,2.289-0.837,3.044-1.479
	c0.758-0.646,1.364-1.416,1.819-2.318c0.461-0.899,0.775-2.048,0.948-3.438h3.839v6.24h6.241v4.82h-6.241v6.92
	c0,1.565-0.021,2.471,0.146,2.914c0.166,0.44,0.578,0.899,1.026,1.164c0.602,0.358,1.28,0.538,2.05,0.538
	c1.366,0,2.728-0.443,4.077-1.332v4.256H33.219L33.219,36.659z"/>
</svg>
