<?xml version="1.0" encoding="utf-8"?>
<!-- Generator: Adobe Illustrator 16.0.0, SVG Export Plug-In . SVG Version: 6.00 Build 0)  -->
<!DOCTYPE svg PUBLIC "-//W3C//DTD SVG 1.1//EN" "http://www.w3.org/Graphics/SVG/1.1/DTD/svg11.dtd">
<svg version="1.1" id="Capa_1" xmlns="http://www.w3.org/2000/svg" xmlns:xlink="http://www.w3.org/1999/xlink" x="0px" y="0px"
	 width="595.279px" height="841.891px" viewBox="0 0 595.279 841.891" enable-background="new 0 0 595.279 841.891"
	 xml:space="preserve">
<path fill="none" stroke="#8B8B8B" stroke-width="5" stroke-miterlimit="10" d="M297.64,126.281
	c-162.752,0-294.663,131.924-294.663,294.664c0,162.747,131.911,294.663,294.663,294.663c162.74,0,294.663-131.916,294.663-294.663
	C592.303,258.205,460.38,126.281,297.64,126.281z"/>
<path fill="#8B8B8B" d="M418.687,367.134c0.124,2.518,0.167,5.047,0.167,7.59c0,77.467-58.97,166.796-166.79,166.796
	c-33.1,0-63.912-9.711-89.85-26.348c4.576,0.552,9.239,0.825,13.977,0.825c27.47,0,52.744-9.37,72.811-25.102
	c-25.653-0.465-47.307-17.418-54.767-40.702c3.584,0.676,7.255,1.054,11.031,1.054c5.339,0,10.523-0.719,15.44-2.059
	c-26.812-5.388-47.027-29.075-47.027-57.487c0-0.248,0-0.49,0.013-0.732c7.894,4.39,16.94,7.026,26.546,7.335
	c-15.731-10.517-26.074-28.456-26.074-48.8c0-10.74,2.883-20.804,7.931-29.466c28.908,35.469,72.109,58.802,120.829,61.251
	c-1.004-4.291-1.513-8.768-1.513-13.363c0-32.375,26.241-58.616,58.616-58.616c16.86,0,32.096,7.119,42.786,18.509
	c13.356-2.629,25.906-7.503,37.229-14.225c-4.384,13.685-13.673,25.182-25.771,32.43c11.855-1.42,23.153-4.563,33.67-9.227
	C440.092,348.544,430.146,358.875,418.687,367.134z"/>
</svg>
